conforma.glyphspackage
{
glyphname = exclam;
layers = (
{
layerId = m01;
shapes = (
{
closed = 1;
nodes = (
(160,194,l),
(175,456,l),
(175,670,l),
(85,670,l),
(85,454,l),
(100,194,l)
);
},
{
closed = 1;
nodes = (
(180,0,l),
(180,113,l),
(80,113,l),
(80,0,l)
);
}
);
width = 260;
}
);
unicode = 33;
}
{
glyphname = numbersign;
layers = (
{
guides = (
{
angle = 72;
pos = (661,301);
}
);
layerId = m01;
shapes = (
{
closed = 1;
nodes = (
(410,0,l),
(640,670,l),
(560,670,l),
(330,0,l)
);
},
{
closed = 1;
nodes = (
(619,170,l),
(640,234,l),
(36,234,l),
(15,170,l)
);
},
{
closed = 1;
nodes = (
(170,0,l),
(400,670,l),
(320,670,l),
(90,0,l)
);
},
{
closed = 1;
nodes = (
(704,436,l),
(725,500,l),
(121,500,l),
(100,436,l)
);
}
);
width = 740;
},
{
guides = (
{
angle = 72;
pos = (661,301);
}
);
layerId = m002;
shapes = (
{
closed = 1;
nodes = (
(410,0,l),
(640,670,l),
(560,670,l),
(330,0,l)
);
},
{
closed = 1;
nodes = (
(619,170,l),
(640,234,l),
(36,234,l),
(15,170,l)
);
},
{
closed = 1;
nodes = (
(170,0,l),
(400,670,l),
(320,670,l),
(90,0,l)
);
},
{
closed = 1;
nodes = (
(704,436,l),
(725,500,l),
(121,500,l),
(100,436,l)
);
}
);
width = 740;
}
);
unicode = 35;
}
{
glyphname = dollar;
layers = (
{
layerId = m01;
shapes = (
{
closed = 1;
nodes = (
(437,2,o),
(526,76,o),
(526,194,cs),
(526,290,o),
(465,343,o),
(366,363,cs),
(267,382,ls),
(197,397,o),
(160,427,o),
(160,489,cs),
(160,546,o),
(202,591,o),
(284,591,cs),
(363,591,o),
(420,556,o),
(423,470,c),
(518,470,l),
(515,602,o),
(422,668,o),
(284,668,cs),
(155,668,o),
(67,590,o),
(67,480,cs),
(67,392,o),
(121,320,o),
(241,295,cs),
(336,277,ls),
(400,264,o),
(430,231,o),
(430,185,cs),
(430,118,o),
(378,79,o),
(302,79,cs),
(219,79,o),
(155,128,o),
(154,228,c),
(55,228,l),
(55,91,o),
(151,2,o),
(299,2,cs)
);
},
{
closed = 1;
nodes = (
(332,-114,l),
(332,784,l),
(260,784,l),
(260,-114,l)
);
}
);
width = 577;
},
{
layerId = m002;
shapes = (
{
closed = 1;
nodes = (
(437,2,o),
(526,76,o),
(526,194,cs),
(526,290,o),
(465,343,o),
(366,363,cs),
(267,382,ls),
(197,397,o),
(160,427,o),
(160,489,cs),
(160,546,o),
(202,591,o),
(284,591,cs),
(363,591,o),
(420,556,o),
(423,470,c),
(518,470,l),
(515,602,o),
(422,668,o),
(284,668,cs),
(155,668,o),
(67,590,o),
(67,480,cs),
(67,392,o),
(121,320,o),
(241,295,cs),
(336,277,ls),
(400,264,o),
(430,231,o),
(430,185,cs),
(430,118,o),
(378,79,o),
(302,79,cs),
(219,79,o),
(155,128,o),
(154,228,c),
(55,228,l),
(55,91,o),
(151,2,o),
(299,2,cs)
);
},
{
closed = 1;
nodes = (
(332,-114,l),
(332,784,l),
(260,784,l),
(260,-114,l)
);
}
);
width = 577;
}
);
unicode = 36;
}
{
glyphname = percent;
layers = (
{
layerId = m01;
shapes = (
{
closed = 1;
nodes = (
(240,0,l),
(670,670,l),
(590,670,l),
(160,0,l)
);
},
{
closed = 1;
nodes = (
(303,352,o),
(360,413,o),
(360,517,cs),
(360,621,o),
(303,682,o),
(203,682,cs),
(103,682,o),
(46,621,o),
(46,517,cs),
(46,413,o),
(103,352,o),
(203,352,cs)
);
},
{
closed = 1;
nodes = (
(147,410,o),
(120,449,o),
(120,517,cs),
(120,585,o),
(147,624,o),
(203,624,cs),
(259,624,o),
(286,585,o),
(286,517,cs),
(286,449,o),
(259,410,o),
(203,410,cs)
);
},
{
closed = 1;
nodes = (
(727,-12,o),
(784,49,o),
(784,153,cs),
(784,257,o),
(727,318,o),
(627,318,cs),
(527,318,o),
(470,257,o),
(470,153,cs),
(470,49,o),
(527,-12,o),
(627,-12,cs)
);
},
{
closed = 1;
nodes = (
(571,46,o),
(544,85,o),
(544,153,cs),
(544,221,o),
(571,260,o),
(627,260,cs),
(683,260,o),
(710,221,o),
(710,153,cs),
(710,85,o),
(683,46,o),
(627,46,cs)
);
}
);
width = 830;
}
);
unicode = 37;
}
{
glyphname = ampersand;
layers = (
{
background = {
shapes = (
{
closed = 1;
nodes = (
(430,-9,o),
(521,68,o),
(521,188,cs),
(521,289,o),
(458,361,o),
(358,376,c),
(356,362,l),
(440,372,o),
(493,427,o),
(493,511,cs),
(493,614,o),
(413,684,o),
(287,684,cs),
(161,684,o),
(81,613,o),
(81,511,cs),
(81,427,o),
(134,373,o),
(218,362,c),
(216,376,l),
(116,358,o),
(53,286,o),
(53,188,cs),
(53,68,o),
(143,-9,o),
(286,-9,cs)
);
},
{
closed = 1;
nodes = (
(205,60,o),
(158,108,o),
(158,194,cs),
(158,280,o),
(205,330,o),
(287,330,cs),
(369,330,o),
(416,280,o),
(416,194,cs),
(416,108,o),
(369,60,o),
(287,60,cs)
);
},
{
closed = 1;
nodes = (
(220,399,o),
(182,438,o),
(182,507,cs),
(182,577,o),
(220,617,o),
(287,617,cs),
(354,617,o),
(392,577,o),
(392,507,cs),
(392,438,o),
(354,399,o),
(287,399,cs)
);
}
);
};
layerId = m01;
shapes = (
{
closed = 1;
nodes = (
(298,331,l),
(404,386,o),
(462,444,o),
(462,529,cs),
(462,629,o),
(390,684,o),
(285,684,cs),
(150,684,o),
(87,601,o),
(87,515,cs),
(87,431,o),
(141,381,o),
(206,312,cs),
(503,-2,l),
(635,-2,l),
(273,377,ls),
(218,435,o),
(186,468,o),
(186,526,cs),
(186,582,o),
(221,616,o),
(277,616,cs),
(328,616,o),
(362,581,o),
(362,523,cs),
(362,467,o),
(328,422,o),
(251,383,c)
);
},
{
closed = 1;
nodes = (
(178,350,l),
(98,311,o),
(23,264,o),
(23,159,cs),
(23,52,o),
(104,-11,o),
(234,-11,cs),
(350,-11,o),
(420,46,o),
(456,94,c),
(398,141,l),
(371,92,o),
(310,63,o),
(254,63,cs),
(191,63,o),
(134,93,o),
(134,166,cs),
(134,238,o),
(178,271,o),
(249,311,c)
);
},
{
closed = 1;
nodes = (
(484,127,l),
(525,176,o),
(565,251,o),
(576,347,c),
(473,347,l),
(471,283,o),
(452,222,o),
(435,196,c)
);
}
);
width = 609;
}
);
unicode = 38;
}
{
glyphname = quotesingle;
layers = (
{
layerId = m01;
shapes = (
{
closed = 1;
nodes = (
(150,417,l),
(165,670,l),
(60,670,l),
(75,417,l)
);
}
);
width = 225;
},
{
layerId = m002;
shapes = (
{
closed = 1;
nodes = (
(150,417,l),
(165,670,l),
(60,670,l),
(75,417,l)
);
}
);
width = 225;
}
);
unicode = 39;
}
{
glyphname = parenright;
kernLeft = parenright;
kernRight = parenright;
layers = (
{
layerId = m01;
shapes = (
{
closed = 1;
nodes = (
(64,-150,ls),
(196,-150,o),
(279,-84,o),
(279,280,cs),
(279,644,o),
(196,710,o),
(64,710,cs),
(39,710,l),
(39,648,l),
(51,648,ls),
(150,648,o),
(179,553,o),
(179,280,cs),
(179,7,o),
(150,-88,o),
(51,-88,cs),
(39,-88,l),
(39,-150,l)
);
}
);
width = 355;
}
);
unicode = 41;
}
{
glyphname = asterisk;
layers = (
{
background = {
shapes = (
{
closed = 1;
nodes = (
(36,421,l),
(66,370,l),
(403,564,l),
(373,615,l)
);
},
{
closed = 1;
nodes = (
(190,315,l),
(249,315,l),
(249,670,l),
(190,670,l)
);
},
{
closed = 1;
nodes = (
(66,616,l),
(37,564,l),
(373,369,l),
(402,421,l)
);
}
);
};
layerId = m01;
shapes = (
{
closed = 1;
nodes = (
(239,448,l),
(373,369,l),
(402,421,l),
(267,499,l),
(267,487,l),
(403,564,l),
(373,615,l),
(238,536,l),
(249,529,l),
(250,670,l),
(189,670,l),
(190,529,l),
(200,537,l),
(66,616,l),
(37,564,l),
(174,486,l),
(174,499,l),
(36,421,l),
(66,370,l),
(202,450,l),
(190,457,l),
(189,315,l),
(250,315,l),
(249,457,l)
);
}
);
width = 439;
}
);
unicode = 42;
}
{
glyphname = plus;
layers = (
{
layerId = m01;
shapes = (
{
closed = 1;
nodes = (
(327,116,l),
(327,554,l),
(247,554,l),
(247,116,l)
);
},
{
closed = 1;
nodes = (
(507,296,l),
(507,374,l),
(67,374,l),
(67,296,l)
);
}
);
width = 574;
},
{
layerId = m002;
shapes = (
{
closed = 1;
nodes = (
(327,116,l),
(327,554,l),
(247,554,l),
(247,116,l)
);
},
{
closed = 1;
nodes = (
(507,296,l),
(507,374,l),
(67,374,l),
(67,296,l)
);
}
);
width = 574;
}
);
unicode = 43;
}
{
glyphname = comma;
kernLeft = comma;
kernRight = comma;
layers = (
{
layerId = m01;
shapes = (
{
closed = 1;
nodes = (
(115,-112,l),
(176,101,l),
(74,101,l),
(39,-112,l)
);
}
);
width = 235;
},
{
layerId = m002;
shapes = (
{
closed = 1;
nodes = (
(115,-118,l),
(176,95,l),
(74,95,l),
(39,-118,l)
);
}
);
width = 235;
}
);
unicode = 44;
}
{
glyphname = hyphen;
kernLeft = hyphen;
kernRight = hyphen;
layers = (
{
layerId = m01;
shapes = (
{
closed = 1;
nodes = (
(306,215,l),
(306,295,l),
(48,295,l),
(48,215,l)
);
}
);
width = 354;
},
{
layerId = m002;
shapes = (
{
closed = 1;
nodes = (
(306,215,l),
(306,295,l),
(48,295,l),
(48,215,l)
);
}
);
width = 354;
}
);
unicode = 45;
}
{
glyphname = period;
kernLeft = period;
kernRight = period;
layers = (
{
layerId = m01;
shapes = (
{
closed = 1;
nodes = (
(176,0,l),
(176,113,l),
(76,113,l),
(76,0,l)
);
}
);
width = 252;
},
{
layerId = m002;
shapes = (
{
closed = 1;
nodes = (
(176,0,l),
(176,113,l),
(76,113,l),
(76,0,l)
);
}
);
width = 252;
}
);
unicode = 46;
}
{
glyphname = slash;
layers = (
{
layerId = m01;
shapes = (
{
closed = 1;
nodes = (
(16,-150,l),
(109,-150,l),
(399,710,l),
(306,710,l)
);
}
);
width = 415;
}
);
unicode = 47;
}
{
glyphname = zero;
kernLeft = "0";
kernRight = "0";
layers = (
{
layerId = m01;
shapes = (
{
closed = 1;
nodes = (
(458,-12,o),
(550,115,o),
(550,335,cs),
(550,555,o),
(458,682,o),
(299,682,cs),
(140,682,o),
(48,555,o),
(48,335,cs),
(48,115,o),
(140,-12,o),
(299,-12,cs)
);
},
{
closed = 1;
nodes = (
(196,68,o),
(150,164,o),
(150,335,cs),
(150,506,o),
(196,602,o),
(299,602,cs),
(402,602,o),
(448,506,o),
(448,335,cs),
(448,164,o),
(402,68,o),
(299,68,cs)
);
}
);
width = 598;
}
);
unicode = 48;
}
{
glyphname = one;
kernLeft = "1";
kernRight = "1";
layers = (
{
layerId = m01;
shapes = (
{
closed = 1;
nodes = (
(275,0,l),
(275,670,l),
(210,670,l),
(189,566,o),
(134,547,o),
(36,547,c),
(36,485,l),
(186,485,l),
(178,547,l),
(178,0,l)
);
}
);
width = 358;
}
);
unicode = 49;
}
{
glyphname = two;
kernLeft = "2";
kernRight = "2";
layers = (
{
background = {
shapes = (
{
closed = 1;
nodes = (
(488,0,l),
(488,80,l),
(95,80,l),
(135,67,l),
(136,134,o),
(203,172,o),
(283,225,cs),
(391,294,o),
(480,360,o),
(480,479,cs),
(480,599,o),
(396,682,o),
(261,682,cs),
(129,682,o),
(43,601,o),
(42,465,c),
(138,465,l),
(138,555,o),
(180,604,o),
(261,604,cs),
(339,604,o),
(383,560,o),
(383,478,cs),
(383,391,o),
(312,344,o),
(225,287,cs),
(128,224,o),
(35,168,o),
(35,36,cs),
(35,0,l)
);
}
);
};
layerId = m01;
shapes = (
{
closed = 1;
nodes = (
(488,0,l),
(488,80,l),
(95,80,l),
(135,67,l),
(136,134,o),
(203,172,o),
(283,225,cs),
(390,294,o),
(478,361,o),
(478,486,cs),
(478,602,o),
(398,682,o),
(263,682,cs),
(129,682,o),
(42,604,o),
(42,477,c),
(138,477,l),
(138,559,o),
(180,604,o),
(261,604,cs),
(338,604,o),
(381,561,o),
(381,483,cs),
(381,393,o),
(311,344,o),
(225,287,cs),
(128,224,o),
(35,163,o),
(35,36,cs),
(35,0,l)
);
}
);
width = 520;
}
);
unicode = 50;
}
{
glyphname = three;
kernLeft = "3";
kernRight = "3";
layers = (
{
background = {
shapes = (
{
pos = (4,0);
ref = two;
}
);
};
layerId = m01;
shapes = (
{
closed = 1;
nodes = (
(401,-12,o),
(503,65,o),
(503,192,cs),
(503,288,o),
(437,353,o),
(333,359,c),
(333,338,l),
(434,353,o),
(482,419,o),
(483,500,cs),
(484,607,o),
(400,682,o),
(271,682,cs),
(139,682,o),
(48,603,o),
(47,477,c),
(143,477,l),
(145,558,o),
(194,603,o),
(271,603,cs),
(342,603,o),
(387,561,o),
(387,495,cs),
(387,425,o),
(340,385,o),
(261,385,cs),
(196,385,l),
(196,307,l),
(264,307,ls),
(352,307,o),
(404,270,o),
(404,191,cs),
(404,115,o),
(352,67,o),
(268,67,cs),
(188,67,o),
(134,112,o),
(134,214,c),
(35,214,l),
(35,79,o),
(116,-12,o),
(263,-12,cs)
);
}
);
width = 545;
}
);
unicode = 51;
}
{
glyphname = four;
kernLeft = "4";
kernRight = "4";
layers = (
{
background = {
shapes = (
{
pos = (-58,0);
ref = H;
}
);
};
layerId = m01;
shapes = (
{
closed = 1;
nodes = (
(443,0,l),
(443,670,l),
(336,670,l),
(25,228,l),
(25,155,l),
(548,155,l),
(548,232,l),
(75,232,l),
(98,205,l),
(398,636,l),
(351,652,l),
(351,0,l)
);
}
);
width = 565;
}
);
unicode = 52;
}
{
glyphname = five;
kernLeft = "5";
kernRight = "5";
layers = (
{
background = {
shapes = (
{
closed = 1;
nodes = (
(422,-12,o),
(519,76,o),
(519,227,cs),
(519,374,o),
(429,460,o),
(294,460,cs),
(207,460,o),
(143,425,o),
(121,353,c),
(151,354,l),
(171,624,l),
(144,592,l),
(484,592,l),
(484,670,l),
(82,670,l),
(56,304,l),
(152,304,l),
(169,356,o),
(216,386,o),
(281,386,cs),
(370,386,o),
(420,328,o),
(420,227,cs),
(420,124,o),
(372,67,o),
(278,67,cs),
(194,67,o),
(141,120,o),
(141,214,c),
(42,214,l),
(44,79,o),
(139,-12,o),
(278,-12,cs)
);
}
);
};
layerId = m01;
shapes = (
{
closed = 1;
nodes = (
(429,-12,o),
(525,77,o),
(525,226,cs),
(525,369,o),
(439,449,o),
(302,449,cs),
(217,449,o),
(153,418,o),
(131,353,c),
(157,354,l),
(177,624,l),
(150,592,l),
(490,592,l),
(490,670,l),
(88,670,l),
(65,304,l),
(158,304,l),
(175,349,o),
(222,375,o),
(287,375,cs),
(379,375,o),
(426,320,o),
(426,224,cs),
(426,125,o),
(377,67,o),
(285,67,cs),
(202,67,o),
(147,122,o),
(147,214,c),
(48,214,l),
(50,79,o),
(146,-12,o),
(285,-12,cs)
);
}
);
width = 567;
}
);
unicode = 53;
}
{
glyphname = six;
kernLeft = "6";
kernRight = "6";
layers = (
{
background = {
shapes = (
{
closed = 1;
nodes = (
(446,-12,o),
(526,86,o),
(526,216,cs),
(526,370,o),
(424,438,o),
(311,438,cs),
(224,438,o),
(146,400,o),
(135,314,c),
(146,338,l),
(146,508,o),
(200,604,o),
(306,604,cs),
(372,604,o),
(414,558,o),
(414,477,c),
(513,477,l),
(511,590,o),
(444,682,o),
(307,682,cs),
(123,682,o),
(48,521,o),
(48,307,cs),
(48,88,o),
(134,-12,o),
(293,-12,cs)
);
},
{
closed = 1;
nodes = (
(205,67,o),
(156,121,o),
(156,216,cs),
(156,308,o),
(204,360,o),
(290,360,cs),
(378,360,o),
(428,308,o),
(428,215,cs),
(428,120,o),
(379,67,o),
(291,67,cs)
);
}
);
};
layerId = m01;
shapes = (
{
closed = 1;
nodes = (
(446,-12,o),
(526,86,o),
(526,216,cs),
(526,370,o),
(424,438,o),
(311,438,cs),
(224,438,o),
(146,400,o),
(135,314,c),
(146,338,l),
(146,499,o),
(190,604,o),
(299,604,cs),
(371,604,o),
(413,560,o),
(414,477,c),
(513,477,l),
(511,593,o),
(441,682,o),
(303,682,cs),
(120,682,o),
(48,525,o),
(48,326,cs),
(48,97,o),
(125,-12,o),
(293,-12,cs)
);
},
{
closed = 1;
nodes = (
(205,67,o),
(156,121,o),
(156,216,cs),
(156,308,o),
(204,360,o),
(290,360,cs),
(378,360,o),
(428,308,o),
(428,215,cs),
(428,120,o),
(379,67,o),
(291,67,cs)
);
}
);
width = 562;
}
);
metricLeft = zero;
unicode = 54;
}
{
glyphname = seven;
kernLeft = "7";
kernRight = "7";
layers = (
{
background = {
shapes = (
{
closed = 1;
nodes = (
(228,0,l),
(241,253,o),
(311,441,o),
(441,598,c),
(441,670,l),
(17,670,l),
(17,592,l),
(373,592,l),
(339,602,l),
(249,494,o),
(141,283,o),
(124,0,c)
);
}
);
};
layerId = m01;
shapes = (
{
closed = 1;
nodes = (
(228,0,l),
(238,235,o),
(308,413,o),
(441,602,c),
(441,670,l),
(17,670,l),
(17,592,l),
(373,592,l),
(341,602,l),
(239,453,o),
(137,265,o),
(124,0,c)
);
}
);
width = 464;
}
);
unicode = 55;
}
{
glyphname = eight;
kernLeft = "8";
kernRight = "8";
layers = (
{
background = {
shapes = (
{
closed = 1;
nodes = (
(426,-11,o),
(516,65,o),
(516,189,cs),
(516,288,o),
(453,363,o),
(353,377,c),
(353,352,l),
(439,360,o),
(499,421,o),
(499,503,cs),
(499,610,o),
(415,682,o),
(277,682,cs),
(139,682,o),
(55,610,o),
(55,503,cs),
(55,421,o),
(115,360,o),
(201,352,c),
(201,377,l),
(101,363,o),
(38,288,o),
(38,189,cs),
(38,65,o),
(128,-11,o),
(277,-11,cs)
);
},
{
closed = 1;
nodes = (
(188,67,o),
(138,111,o),
(138,192,cs),
(138,270,o),
(189,317,o),
(277,317,cs),
(365,317,o),
(416,270,o),
(416,192,cs),
(416,111,o),
(366,67,o),
(277,67,cs)
);
},
{
closed = 1;
nodes = (
(199,391,o),
(153,431,o),
(153,500,cs),
(153,566,o),
(199,604,o),
(277,604,cs),
(355,604,o),
(401,566,o),
(401,500,cs),
(401,431,o),
(355,391,o),
(277,391,cs)
);
}
);
};
layerId = m01;
shapes = (
{
closed = 1;
nodes = (
(428,-11,o),
(520,65,o),
(520,187,cs),
(520,294,o),
(444,360,o),
(323,374,c),
(323,349,l),
(426,357,o),
(499,402,o),
(499,505,cs),
(499,610,o),
(415,682,o),
(277,682,cs),
(139,682,o),
(55,610,o),
(55,505,cs),
(55,407,o),
(127,357,o),
(231,349,c),
(231,374,l),
(110,360,o),
(34,294,o),
(34,187,cs),
(34,65,o),
(126,-11,o),
(277,-11,cs)
);
},
{
closed = 1;
nodes = (
(185,67,o),
(134,112,o),
(134,192,cs),
(134,272,o),
(185,317,o),
(277,317,cs),
(369,317,o),
(420,272,o),
(420,192,cs),
(420,112,o),
(369,67,o),
(277,67,cs)
);
},
{
closed = 1;
nodes = (
(198,391,o),
(153,430,o),
(153,500,cs),
(153,567,o),
(198,604,o),
(277,604,cs),
(356,604,o),
(401,567,o),
(401,500,cs),
(401,430,o),
(356,391,o),
(277,391,cs)
);
}
);
width = 554;
}
);
unicode = 56;
}
{
glyphname = nine;
kernLeft = "9";
kernRight = "9";
layers = (
{
background = {
shapes = (
{
angle = 180;
pos = (562,670);
ref = six;
}
);
};
layerId = m01;
shapes = (
{
closed = 1;
nodes = (
(448,-12,o),
(520,145,o),
(520,344,cs),
(520,573,o),
(443,682,o),
(275,682,cs),
(122,682,o),
(42,584,o),
(42,454,cs),
(42,300,o),
(144,232,o),
(257,232,cs),
(344,232,o),
(422,270,o),
(433,356,c),
(422,332,l),
(422,171,o),
(380,66,o),
(269,66,cs),
(197,66,o),
(155,110,o),
(154,193,c),
(55,193,l),
(57,77,o),
(127,-12,o),
(265,-12,cs)
);
},
{
closed = 1;
nodes = (
(190,310,o),
(140,362,o),
(140,455,cs),
(140,550,o),
(189,603,o),
(277,603,cs),
(363,603,o),
(412,549,o),
(412,454,cs),
(412,362,o),
(364,310,o),
(278,310,cs)
);
}
);
width = 574;
}
);
unicode = 57;
}
{
glyphname = equal;
layers = (
{
background = {
shapes = (
{
closed = 1;
nodes = (
(507,296,l),
(507,374,l),
(67,374,l),
(67,296,l)
);
},
{
closed = 1;
nodes = (
(247,116,l),
(327,116,l),
(327,554,l),
(247,554,l)
);
}
);
};
layerId = m01;
shapes = (
{
closed = 1;
nodes = (
(507,396,l),
(507,474,l),
(67,474,l),
(67,396,l)
);
},
{
closed = 1;
nodes = (
(507,196,l),
(507,274,l),
(67,274,l),
(67,196,l)
);
}
);
width = 600;
},
{
background = {
shapes = (
{
closed = 1;
nodes = (
(507,296,l),
(507,374,l),
(67,374,l),
(67,296,l)
);
},
{
closed = 1;
nodes = (
(247,116,l),
(327,116,l),
(327,554,l),
(247,554,l)
);
}
);
};
layerId = m002;
shapes = (
{
closed = 1;
nodes = (
(507,396,l),
(507,474,l),
(67,474,l),
(67,396,l)
);
},
{
closed = 1;
nodes = (
(507,196,l),
(507,274,l),
(67,274,l),
(67,196,l)
);
}
);
width = 600;
}
);
unicode = 61;
}
{
glyphname = question;
layers = (
{
layerId = m01;
shapes = (
{
closed = 1;
nodes = (
(230,194,l),
(233,225,ls),
(236,262,o),
(247,279,o),
(319,338,cs),
(379,386,o),
(417,425,o),
(417,506,cs),
(417,619,o),
(339,682,o),
(223,682,cs),
(104,682,o),
(26,614,o),
(26,495,c),
(122,495,l),
(122,568,o),
(160,604,o),
(224,604,cs),
(280,604,o),
(319,577,o),
(319,506,cs),
(319,446,o),
(290,419,o),
(243,383,cs),
(187,339,o),
(152,312,o),
(163,219,cs),
(166,194,l)
);
},
{
closed = 1;
nodes = (
(252,0,l),
(252,113,l),
(152,113,l),
(152,0,l)
);
}
);
width = 451;
}
);
unicode = 63;
}
{
glyphname = at;
layers = (
{
background = {
shapes = (
{
closed = 1;
nodes = (
(813,12,o),
(872,125,o),
(872,258,cs),
(872,502,o),
(724,643,o),
(472,643,cs),
(218,643,o),
(58,484,o),
(58,237,cs),
(58,-49,o),
(252,-157,o),
(462,-157,cs),
(532,-157,o),
(600,-146,o),
(646,-133,c),
(646,-60,l),
(595,-75,o),
(538,-84,o),
(469,-84,cs),
(264,-84,o),
(146,35,o),
(146,236,cs),
(146,437,o),
(270,565,o),
(472,565,cs),
(675,565,o),
(786,462,o),
(786,257,cs),
(786,164,o),
(758,80,o),
(699,80,cs),
(663,80,o),
(651,108,o),
(651,138,cs),
(651,457,l),
(572,457,l),
(572,378,l),
(585,383,l),
(557,433,o),
(508,463,o),
(442,463,cs),
(328,463,o),
(253,382,o),
(253,235,cs),
(253,95,o),
(322,15,o),
(442,15,cs),
(540,15,o),
(600,70,o),
(600,160,c),
(583,120,l),
(583,109,ls),
(583,56,o),
(620,12,o),
(694,12,cs)
);
},
{
closed = 1;
nodes = (
(376,78,o),
(341,136,o),
(341,239,cs),
(341,342,o),
(376,400,o),
(454,400,cs),
(531,400,o),
(565,342,o),
(565,239,cs),
(565,136,o),
(531,78,o),
(454,78,cs)
);
}
);
};
layerId = m01;
shapes = (
{
closed = 1;
nodes = (
(807,12,o),
(863,121,o),
(863,267,cs),
(863,502,o),
(712,643,o),
(475,643,cs),
(223,643,o),
(66,486,o),
(66,235,cs),
(66,-42,o),
(256,-148,o),
(463,-148,cs),
(531,-148,o),
(600,-137,o),
(646,-124,c),
(646,-60,l),
(595,-75,o),
(536,-84,o),
(474,-84,cs),
(258,-84,o),
(136,32,o),
(136,238,cs),
(136,448,o),
(264,579,o),
(479,579,cs),
(679,579,o),
(793,465,o),
(793,263,cs),
(793,156,o),
(763,71,o),
(698,71,cs),
(663,71,o),
(651,92,o),
(651,120,cs),
(651,457,l),
(576,457,l),
(576,378,l),
(585,383,l),
(557,433,o),
(508,463,o),
(441,463,cs),
(330,463,o),
(257,382,o),
(257,236,cs),
(257,95,o),
(325,15,o),
(442,15,cs),
(540,15,o),
(600,70,o),
(600,160,c),
(583,120,l),
(583,109,ls),
(583,56,o),
(620,12,o),
(695,12,cs)
);
},
{
closed = 1;
nodes = (
(373,78,o),
(337,136,o),
(337,239,cs),
(337,342,o),
(373,400,o),
(454,400,cs),
(534,400,o),
(569,342,o),
(569,239,cs),
(569,136,o),
(534,78,o),
(454,78,cs)
);
}
);
width = 929;
}
);
unicode = 64;
}
{
color = 3;
glyphname = A;
kernLeft = A;
kernRight = A;
layers = (
{
anchors = (
{
name = bottom;
pos = (313,0);
},
{
name = ogonek;
pos = (621,0);
},
{
name = top;
pos = (313,670);
}
);
background = {
shapes = (
{
closed = 1;
nodes = (
(103,0,l),
(280,499,l),
(327,649,l),
(292,649,l),
(342,497,l),
(520,0,l),
(621,0,l),
(379,670,l),
(247,670,l),
(4,0,l)
);
},
{
closed = 1;
nodes = (
(477,191,l),
(477,272,l),
(155,272,l),
(155,191,l)
);
}
);
};
layerId = m01;
shapes = (
{
closed = 1;
nodes = (
(103,0,l),
(259,441,l),
(327,649,l),
(292,649,l),
(361,441,l),
(520,0,l),
(621,0,l),
(379,670,l),
(247,670,l),
(4,0,l)
);
},
{
closed = 1;
nodes = (
(477,191,l),
(477,272,l),
(155,272,l),
(155,191,l)
);
}
);
width = 626;
},
{
anchors = (
{
name = bottom;
pos = (367,0);
},
{
name = ogonek;
pos = (675,0);
},
{
name = top;
pos = (367,670);
}
);
background = {
shapes = (
{
closed = 1;
nodes = (
(221,0,l),
(362,427,l),
(387,504,l),
(357,504,l),
(380,431,l),
(518,0,l),
(747,0,l),
(504,670,l),
(242,670,l),
(-2,0,l)
);
},
{
closed = 1;
nodes = (
(535,102,l),
(535,274,l),
(213,274,l),
(213,102,l)
);
}
);
};
layerId = m002;
shapes = (
{
closed = 1;
nodes = (
(217,0,l),
(344,394,l),
(383,526,l),
(360,526,l),
(394,400,l),
(520,0,l),
(747,0,l),
(504,670,l),
(242,670,l),
(-2,0,l)
);
},
{
closed = 1;
nodes = (
(535,113,l),
(535,265,l),
(213,265,l),
(213,113,l)
);
}
);
width = 745;
}
);
unicode = 65;
}
{
color = 3;
glyphname = B;
kernLeft = H;
kernRight = B;
layers = (
{
anchors = (
{
name = bottom;
pos = (316,0);
},
{
name = center;
pos = (161,168);
},
{
name = top;
pos = (316,670);
}
);
background = {
shapes = (
{
ref = H;
}
);
};
layerId = m01;
shapes = (
{
closed = 1;
nodes = (
(341,0,ls),
(512,0,o),
(574,91,o),
(574,192,cs),
(574,289,o),
(518,345,o),
(424,359,c),
(439,348,l),
(509,362,o),
(562,415,o),
(562,502,cs),
(562,614,o),
(474,670,o),
(340,670,cs),
(147,670,l),
(147,591,l),
(335,591,ls),
(414,591,o),
(463,553,o),
(463,485,cs),
(463,419,o),
(414,378,o),
(335,378,cs),
(135,378,l),
(135,300,l),
(339,300,ls),
(423,300,o),
(474,259,o),
(474,189,cs),
(474,119,o),
(423,79,o),
(339,79,cs),
(147,79,l),
(147,0,l)
);
},
{
closed = 1;
nodes = (
(174,0,l),
(174,670,l),
(75,670,l),
(75,0,l)
);
}
);
width = 614;
},
{
anchors = (
{
name = bottom;
pos = (316,0);
},
{
name = center;
pos = (161,168);
},
{
name = top;
pos = (316,670);
}
);
background = {
shapes = (
{
ref = H;
}
);
};
layerId = m002;
shapes = (
{
closed = 1;
nodes = (
(341,0,ls),
(512,0,o),
(574,91,o),
(574,192,cs),
(574,289,o),
(518,345,o),
(424,359,c),
(439,348,l),
(509,362,o),
(562,415,o),
(562,502,cs),
(562,614,o),
(474,670,o),
(340,670,cs),
(147,670,l),
(147,591,l),
(335,591,ls),
(414,591,o),
(463,553,o),
(463,485,cs),
(463,419,o),
(414,378,o),
(335,378,cs),
(135,378,l),
(135,300,l),
(339,300,ls),
(423,300,o),
(474,259,o),
(474,189,cs),
(474,119,o),
(423,79,o),
(339,79,cs),
(147,79,l),
(147,0,l)
);
},
{
closed = 1;
nodes = (
(174,0,l),
(174,670,l),
(75,670,l),
(75,0,l)
);
}
);
width = 614;
}
);
metricLeft = H;
unicode = 66;
}
{
color = 3;
glyphname = C;
kernLeft = O;
kernRight = C;
layers = (
{
anchors = (
{
name = bottom;
pos = (335,0);
},
{
name = top;
pos = (335,670);
}
);
background = {
shapes = (
{
ref = O;
}
);
};
layerId = m01;
shapes = (
{
closed = 1;
nodes = (
(505,-12,o),
(618,86,o),
(636,251,c),
(534,251,l),
(522,131,o),
(453,68,o),
(350,68,cs),
(223,68,o),
(147,167,o),
(147,336,cs),
(147,502,o),
(221,602,o),
(350,602,cs),
(440,602,o),
(511,556,o),
(527,444,c),
(628,444,l),
(609,598,o),
(501,682,o),
(350,682,cs),
(161,682,o),
(45,549,o),
(45,336,cs),
(45,124,o),
(160,-12,o),
(350,-12,cs)
);
}
);
width = 672;
},
{
anchors = (
{
name = bottom;
pos = (335,0);
},
{
name = top;
pos = (335,670);
}
);
background = {
shapes = (
{
ref = O;
}
);
};
layerId = m002;
shapes = (
{
closed = 1;
nodes = (
(505,-12,o),
(618,86,o),
(636,251,c),
(534,251,l),
(522,131,o),
(453,68,o),
(350,68,cs),
(223,68,o),
(147,167,o),
(147,336,cs),
(147,502,o),
(221,602,o),
(350,602,cs),
(440,602,o),
(511,556,o),
(527,444,c),
(628,444,l),
(609,598,o),
(501,682,o),
(350,682,cs),
(161,682,o),
(45,549,o),
(45,336,cs),
(45,124,o),
(160,-12,o),
(350,-12,cs)
);
}
);
width = 672;
}
);
metricLeft = O;
unicode = 67;
}
{
color = 3;
glyphname = D;
kernLeft = H;
kernRight = O;
layers = (
{
anchors = (
{
name = bottom;
pos = (338,0);
},
{
name = center;
pos = (172,335);
},
{
name = top;
pos = (338,670);
}
);
background = {
shapes = (
{
pos = (-26,0);
ref = O;
}
);
};
layerId = m01;
shapes = (
{
closed = 1;
nodes = (
(301,0,ls),
(512,0,o),
(631,136,o),
(631,336,cs),
(631,536,o),
(512,670,o),
(301,670,cs),
(128,670,l),
(128,589,l),
(290,589,ls),
(438,589,o),
(528,495,o),
(528,336,cs),
(528,176,o),
(438,81,o),
(290,81,cs),
(128,81,l),
(128,0,l)
);
},
{
closed = 1;
nodes = (
(175,0,l),
(175,670,l),
(75,670,l),
(75,0,l)
);
}
);
width = 676;
}
);
metricLeft = H;
metricRight = O;
unicode = 68;
}
{
color = 3;
glyphname = E;
kernLeft = H;
kernRight = E;
layers = (
{
anchors = (
{
name = bottom;
pos = (296,0);
},
{
name = ogonek;
pos = (519,0);
},
{
name = top;
pos = (296,670);
},
{
name = topleft;
pos = (26,670);
}
);
background = {
shapes = (
{
pos = (-2,0);
ref = H;
}
);
};
layerId = m01;
shapes = (
{
closed = 1;
nodes = (
(175,0,l),
(175,670,l),
(75,670,l),
(75,0,l)
);
},
{
closed = 1;
nodes = (
(519,0,l),
(519,81,l),
(134,81,l),
(134,0,l)
);
},
{
closed = 1;
nodes = (
(499,301,l),
(499,382,l),
(134,382,l),
(134,301,l)
);
},
{
closed = 1;
nodes = (
(510,589,l),
(510,670,l),
(134,670,l),
(134,589,l)
);
}
);
width = 569;
},
{
anchors = (
{
name = bottom;
pos = (303,0);
},
{
name = ogonek;
pos = (526,0);
},
{
name = top;
pos = (303,670);
},
{
name = topleft;
pos = (33,670);
}
);
layerId = m002;
shapes = (
{
closed = 1;
nodes = (
(258,0,l),
(258,670,l),
(40,670,l),
(40,0,l)
);
},
{
closed = 1;
nodes = (
(557,0,l),
(557,170,l),
(141,170,l),
(141,0,l)
);
},
{
closed = 1;
nodes = (
(540,255,l),
(540,417,l),
(141,417,l),
(141,255,l)
);
},
{
closed = 1;
nodes = (
(548,500,l),
(548,670,l),
(141,670,l),
(141,500,l)
);
}
);
width = 578;
}
);
metricLeft = H;
unicode = 69;
}
{
color = 3;
glyphname = F;
kernLeft = H;
kernRight = F;
layers = (
{
anchors = (
{
name = bottom;
pos = (268,0);
},
{
name = top;
pos = (268,670);
}
);
background = {
shapes = (
{
closed = 1;
nodes = (
(181,0,l),
(181,670,l),
(79,670,l),
(79,0,l)
);
},
{
closed = 1;
nodes = (
(493,303,l),
(493,374,l),
(138,374,l),
(138,303,l)
);
},
{
closed = 1;
nodes = (
(510,598,l),
(510,670,l),
(138,670,l),
(138,598,l)
);
}
);
};
layerId = m01;
shapes = (
{
closed = 1;
nodes = (
(175,0,l),
(175,670,l),
(75,670,l),
(75,0,l)
);
},
{
closed = 1;
nodes = (
(491,295,l),
(491,377,l),
(134,377,l),
(134,295,l)
);
},
{
closed = 1;
nodes = (
(503,588,l),
(503,670,l),
(134,670,l),
(134,588,l)
);
}
);
width = 543;
},
{
anchors = (
{
name = bottom;
pos = (330,0);
},
{
name = top;
pos = (330,670);
}
);
background = {
shapes = (
{
closed = 1;
nodes = (
(243,0,l),
(243,670,l),
(141,670,l),
(141,0,l)
);
},
{
closed = 1;
nodes = (
(555,303,l),
(555,374,l),
(200,374,l),
(200,303,l)
);
},
{
closed = 1;
nodes = (
(572,598,l),
(572,670,l),
(200,670,l),
(200,598,l)
);
}
);
};
layerId = m002;
shapes = (
{
closed = 1;
nodes = (
(259,0,l),
(259,670,l),
(37,670,l),
(37,0,l)
);
},
{
closed = 1;
nodes = (
(533,228,l),
(533,390,l),
(196,390,l),
(196,228,l)
);
},
{
closed = 1;
nodes = (
(539,504,l),
(539,670,l),
(196,670,l),
(196,504,l)
);
}
);
width = 557;
}
);
metricLeft = H;
unicode = 70;
}
{
color = 3;
glyphname = G;
kernLeft = O;
kernRight = G;
layers = (
{
anchors = (
{
name = bottom;
pos = (343,0);
},
{
name = top;
pos = (343,670);
}
);
background = {
shapes = (
{
ref = O;
}
);
};
layerId = m01;
shapes = (
{
closed = 1;
nodes = (
(517,-12,o),
(648,83,o),
(648,330,cs),
(648,352,l),
(305,352,l),
(305,272,l),
(583,272,l),
(546,283,l),
(544,154,o),
(473,68,o),
(356,68,cs),
(226,68,o),
(147,168,o),
(147,334,cs),
(147,501,o),
(226,602,o),
(356,602,cs),
(455,602,o),
(520,549,o),
(540,446,c),
(642,446,l),
(623,594,o),
(517,682,o),
(358,682,cs),
(166,682,o),
(45,555,o),
(45,334,cs),
(45,129,o),
(153,-12,o),
(354,-12,cs)
);
}
);
width = 690;
},
{
anchors = (
{
name = bottom;
pos = (351,0);
},
{
name = top;
pos = (351,670);
}
);
background = {
shapes = (
{
closed = 1;
nodes = (
(574,-14,o),
(690,105,o),
(690,334,cs),
(690,389,l),
(328,389,l),
(328,253,l),
(590,253,l),
(473,288,l),
(470,206,o),
(438,166,o),
(367,166,cs),
(276,166,o),
(244,230,o),
(244,337,cs),
(244,446,o),
(275,510,o),
(362,510,cs),
(426,510,o),
(458,474,o),
(465,425,c),
(687,425,l),
(671,578,o),
(555,684,o),
(360,684,cs),
(136,684,o),
(18,562,o),
(18,339,cs),
(18,110,o),
(136,-14,o),
(353,-14,cs)
);
}
);
};
layerId = m002;
shapes = (
{
closed = 1;
nodes = (
(574,-14,o),
(690,105,o),
(690,334,cs),
(690,389,l),
(328,389,l),
(328,253,l),
(590,253,l),
(473,288,l),
(470,206,o),
(438,166,o),
(367,166,cs),
(276,166,o),
(244,230,o),
(244,337,cs),
(244,446,o),
(275,510,o),
(362,510,cs),
(426,510,o),
(458,474,o),
(465,425,c),
(687,425,l),
(671,578,o),
(555,684,o),
(360,684,cs),
(136,684,o),
(18,562,o),
(18,339,cs),
(18,110,o),
(136,-14,o),
(353,-14,cs)
);
}
);
width = 701;
}
);
metricLeft = O;
unicode = 71;
}
{
color = 3;
glyphname = H;
kernLeft = H;
kernRight = H;
layers = (
{
anchors = (
{
name = bottom;
pos = (341,0);
},
{
name = center;
pos = (341,503);
},
{
name = top;
pos = (341,670);
},
{
name = topleft;
pos = (75,670);
}
);
layerId = m01;
shapes = (
{
closed = 1;
nodes = (
(606,0,l),
(606,670,l),
(506,670,l),
(506,0,l)
);
},
{
closed = 1;
nodes = (
(175,0,l),
(175,670,l),
(75,670,l),
(75,0,l)
);
},
{
closed = 1;
nodes = (
(556,300,l),
(556,382,l),
(134,382,l),
(134,300,l)
);
}
);
width = 681;
},
{
anchors = (
{
name = bottom;
pos = (358,0);
},
{
name = center;
pos = (358,536);
},
{
name = top;
pos = (358,670);
},
{
name = topleft;
pos = (40,670);
}
);
layerId = m002;
shapes = (
{
closed = 1;
nodes = (
(675,0,l),
(675,670,l),
(453,670,l),
(453,0,l)
);
},
{
closed = 1;
nodes = (
(262,0,l),
(262,670,l),
(40,670,l),
(40,0,l)
);
},
{
closed = 1;
nodes = (
(623,244,l),
(623,422,l),
(181,422,l),
(181,244,l)
);
}
);
width = 715;
}
);
unicode = 72;
}
{
color = 3;
glyphname = I;
kernLeft = H;
kernRight = H;
layers = (
{
anchors = (
{
name = bottom;
pos = (126,0);
},
{
name = ogonek;
pos = (177,0);
},
{
name = top;
pos = (126,670);
},
{
name = topleft;
pos = (75,670);
}
);
layerId = m01;
shapes = (
{
closed = 1;
nodes = (
(175,0,l),
(175,670,l),
(75,670,l),
(75,0,l)
);
}
);
width = 250;
},
{
anchors = (
{
name = bottom;
pos = (148,0);
},
{
name = ogonek;
pos = (259,0);
},
{
name = top;
pos = (148,670);
},
{
name = topleft;
pos = (37,670);
}
);
layerId = m002;
shapes = (
{
closed = 1;
nodes = (
(259,0,l),
(259,670,l),
(37,670,l),
(37,0,l)
);
}
);
width = 296;
}
);
metricLeft = H;
metricRight = H;
unicode = 73;
}
{
glyphname = J;
kernLeft = J;
kernRight = J;
layers = (
{
anchors = (
{
name = bottom;
pos = (197,0);
},
{
name = top;
pos = (51,670);
}
);
background = {
shapes = (
{
closed = 1;
nodes = (
(350,-12,o),
(444,60,o),
(444,208,cs),
(444,670,l),
(342,670,l),
(342,206,ls),
(342,115,o),
(300,68,o),
(223,68,cs),
(146,68,o),
(107,114,o),
(104,205,c),
(2,205,l),
(10,62,o),
(95,-12,o),
(225,-12,cs)
);
}
);
};
layerId = m01;
shapes = (
{
closed = 1;
nodes = (
(348,-12,o),
(444,65,o),
(444,208,cs),
(444,670,l),
(342,670,l),
(342,206,ls),
(342,115,o),
(300,68,o),
(223,68,cs),
(146,68,o),
(107,114,o),
(104,205,c),
(2,205,l),
(8,62,o),
(91,-12,o),
(223,-12,cs)
);
}
);
width = 516;
},
{
anchors = (
{
name = bottom;
pos = (197,0);
},
{
name = top;
pos = (51,670);
}
);
background = {
shapes = (
{
closed = 1;
nodes = (
(350,-12,o),
(444,60,o),
(444,208,cs),
(444,670,l),
(342,670,l),
(342,206,ls),
(342,115,o),
(300,68,o),
(223,68,cs),
(146,68,o),
(107,114,o),
(104,205,c),
(2,205,l),
(10,62,o),
(95,-12,o),
(225,-12,cs)
);
}
);
};
layerId = m002;
shapes = (
{
closed = 1;
nodes = (
(348,-12,o),
(444,65,o),
(444,208,cs),
(444,670,l),
(342,670,l),
(342,206,ls),
(342,115,o),
(300,68,o),
(223,68,cs),
(146,68,o),
(107,114,o),
(104,205,c),
(2,205,l),
(8,62,o),
(91,-12,o),
(223,-12,cs)
);
}
);
width = 516;
}
);
metricRight = U;
unicode = 74;
}
{
glyphname = K;
kernLeft = H;
kernRight = K;
layers = (
{
anchors = (
{
name = bottom;
pos = (301,0);
},
{
name = top;
pos = (301,670);
}
);
background = {
shapes = (
{
ref = H;
}
);
};
layerId = m01;
shapes = (
{
closed = 1;
nodes = (
(605,0,l),
(272,361,l),
(275,346,l),
(589,670,l),
(467,670,l),
(168,358,l),
(168,333,l),
(473,0,l)
);
},
{
closed = 1;
nodes = (
(175,0,l),
(175,670,l),
(75,670,l),
(75,0,l)
);
}
);
width = 612;
},
{
anchors = (
{
name = bottom;
pos = (301,0);
},
{
name = top;
pos = (301,670);
}
);
background = {
shapes = (
{
ref = H;
}
);
};
layerId = m002;
shapes = (
{
closed = 1;
nodes = (
(605,0,l),
(272,361,l),
(275,346,l),
(589,670,l),
(467,670,l),
(168,358,l),
(168,333,l),
(473,0,l)
);
},
{
closed = 1;
nodes = (
(175,0,l),
(175,670,l),
(75,670,l),
(75,0,l)
);
}
);
width = 612;
}
);
metricLeft = H;
unicode = 75;
}
{
color = 3;
glyphname = L;
kernLeft = H;
kernRight = L;
layers = (
{
anchors = (
{
name = bottom;
pos = (261,0);
},
{
name = center;
pos = (125,335);
},
{
name = top;
pos = (125,670);
},
{
name = topright;
pos = (175,670);
}
);
layerId = m01;
shapes = (
{
closed = 1;
nodes = (
(175,0,l),
(175,670,l),
(75,670,l),
(75,0,l)
);
},
{
closed = 1;
nodes = (
(501,0,l),
(501,82,l),
(134,82,l),
(134,0,l)
);
}
);
width = 532;
}
);
metricLeft = H;
unicode = 76;
}
{
color = 3;
glyphname = M;
kernLeft = H;
kernRight = H;
layers = (
{
anchors = (
{
name = bottom;
pos = (407,0);
},
{
name = top;
pos = (407,670);
}
);
background = {
shapes = (
{
pos = (14,0);
ref = H;
}
);
};
layerId = m01;
shapes = (
{
closed = 1;
nodes = (
(165,0,l),
(165,644,l),
(154,644,l),
(355,0,l),
(476,0,l),
(675,644,l),
(665,644,l),
(665,0,l),
(759,0,l),
(759,670,l),
(592,670,l),
(407,52,l),
(428,67,l),
(242,670,l),
(75,670,l),
(75,0,l)
);
}
);
width = 834;
}
);
metricLeft = H;
metricRight = H;
unicode = 77;
}
{
color = 3;
glyphname = N;
kernLeft = H;
kernRight = H;
layers = (
{
anchors = (
{
name = bottom;
pos = (347,0);
},
{
name = top;
pos = (347,670);
}
);
background = {
shapes = (
{
ref = H;
}
);
};
layerId = m01;
shapes = (
{
closed = 1;
nodes = (
(165,0,l),
(165,634,l),
(117,634,l),
(501,0,l),
(626,0,l),
(626,670,l),
(534,670,l),
(534,36,l),
(582,36,l),
(198,670,l),
(75,670,l),
(75,0,l)
);
}
);
width = 701;
},
{
anchors = (
{
name = bottom;
pos = (337,0);
},
{
name = top;
pos = (337,670);
}
);
background = {
shapes = (
{
pos = (5,0);
ref = H;
}
);
};
layerId = m002;
shapes = (
{
closed = 1;
nodes = (
(227,0,l),
(227,634,l),
(118,634,l),
(442,0,l),
(709,0,l),
(709,670,l),
(519,670,l),
(519,36,l),
(628,36,l),
(304,670,l),
(37,670,l),
(37,0,l)
);
}
);
width = 746;
}
);
metricLeft = H;
metricRight = H;
unicode = 78;
}
{
color = 3;
glyphname = O;
kernLeft = O;
kernRight = O;
layers = (
{
anchors = (
{
name = bottom;
pos = (341,0);
},
{
name = center;
pos = (341,335);
},
{
name = ogonek;
pos = (612,10);
},
{
name = top;
pos = (341,670);
},
{
name = topleft;
pos = (22,670);
},
{
name = topright;
pos = (660,670);
}
);
background = {
shapes = (
{
pos = (52,0);
ref = S;
}
);
};
layerId = m01;
shapes = (
{
closed = 1;
nodes = (
(549,-12,o),
(657,120,o),
(657,335,cs),
(657,550,o),
(549,682,o),
(351,682,cs),
(153,682,o),
(45,550,o),
(45,335,cs),
(45,120,o),
(153,-12,o),
(351,-12,cs)
);
},
{
closed = 1;
nodes = (
(215,68,o),
(147,164,o),
(147,335,cs),
(147,506,o),
(215,602,o),
(351,602,cs),
(487,602,o),
(555,506,o),
(555,335,cs),
(555,164,o),
(487,68,o),
(351,68,cs)
);
}
);
width = 702;
}
);
unicode = 79;
}
{
glyphname = P;
kernLeft = H;
kernRight = P;
layers = (
{
anchors = (
{
name = bottom;
pos = (295,0);
},
{
name = top;
pos = (295,670);
}
);
background = {
shapes = (
{
pos = (8,0);
ref = R;
}
);
};
layerId = m01;
shapes = (
{
closed = 1;
nodes = (
(296,252,ls),
(477,252,o),
(550,355,o),
(550,467,cs),
(550,583,o),
(477,670,o),
(292,670,cs),
(145,670,l),
(145,590,l),
(284,590,ls),
(401,590,o),
(450,539,o),
(450,465,cs),
(450,384,o),
(393,332,o),
(284,332,cs),
(133,332,l),
(133,252,l)
);
},
{
closed = 1;
nodes = (
(175,0,l),
(175,670,l),
(75,670,l),
(75,0,l)
);
}
);
width = 581;
}
);
metricLeft = H;
unicode = 80;
}
{
glyphname = Q;
kernLeft = O;
kernRight = O;
layers = (
{
anchors = (
{
name = bottom;
pos = (346,0);
},
{
name = top;
pos = (346,670);
}
);
background = {
shapes = (
{
closed = 1;
nodes = (
(598,-64,l),
(529,49,l),
(419,49,l),
(488,-64,l)
);
}
);
};
layerId = m01;
shapes = (
{
ref = O;
},
{
closed = 1;
nodes = (
(430,37,l),
(505,-85,l),
(615,-85,l),
(523,63,l)
);
}
);
width = 702;
}
);
metricLeft = O;
metricRight = O;
unicode = 81;
}
{
color = 3;
glyphname = R;
kernLeft = H;
kernRight = R;
layers = (
{
anchors = (
{
name = bottom;
pos = (314,0);
},
{
name = top;
pos = (314,670);
}
);
background = {
shapes = (
{
ref = H;
}
);
};
layerId = m01;
shapes = (
{
closed = 1;
nodes = (
(586,0,l),
(536,218,ls),
(518,295,o),
(476,327,o),
(411,329,c),
(418,319,l),
(496,329,o),
(558,391,o),
(558,487,cs),
(558,593,o),
(487,670,o),
(334,670,cs),
(147,670,l),
(147,590,l),
(319,590,ls),
(405,590,o),
(457,549,o),
(458,474,cs),
(459,402,o),
(406,358,o),
(319,358,cs),
(135,358,l),
(135,278,l),
(331,278,ls),
(394,278,o),
(424,260,o),
(439,195,cs),
(483,0,l)
);
},
{
closed = 1;
nodes = (
(175,0,l),
(175,670,l),
(75,670,l),
(75,0,l)
);
}
);
width = 625;
}
);
metricLeft = H;
unicode = 82;
}
{
color = 3;
glyphname = S;
kernLeft = S;
kernRight = S;
layers = (
{
anchors = (
{
name = bottom;
pos = (301,0);
},
{
name = top;
pos = (301,670);
}
);
background = {
shapes = (
{
closed = 1;
nodes = (
(460,-12,o),
(556,65,o),
(556,189,cs),
(556,292,o),
(491,350,o),
(386,371,cs),
(280,392,ls),
(204,407,o),
(164,438,o),
(164,498,cs),
(164,559,o),
(209,604,o),
(298,604,cs),
(378,604,o),
(435,565,o),
(448,471,c),
(548,471,l),
(534,602,o),
(436,682,o),
(298,682,cs),
(156,682,o),
(64,601,o),
(64,486,cs),
(64,396,o),
(123,322,o),
(252,296,cs),
(353,276,ls),
(422,262,o),
(454,229,o),
(454,179,cs),
(454,108,o),
(397,67,o),
(311,67,cs),
(217,67,o),
(148,120,o),
(143,229,c),
(41,229,l),
(41,83,o),
(146,-12,o),
(310,-12,cs)
);
}
);
};
layerId = m01;
shapes = (
{
closed = 1;
nodes = (
(456,-12,o),
(552,65,o),
(552,189,cs),
(552,292,o),
(487,349,o),
(382,370,cs),
(276,391,ls),
(201,406,o),
(162,435,o),
(162,495,cs),
(162,554,o),
(206,600,o),
(294,600,cs),
(379,600,o),
(440,562,o),
(443,471,c),
(545,471,l),
(542,611,o),
(442,682,o),
(294,682,cs),
(156,682,o),
(62,601,o),
(62,486,cs),
(62,396,o),
(120,324,o),
(248,298,cs),
(349,278,ls),
(418,264,o),
(450,229,o),
(450,179,cs),
(450,110,o),
(393,70,o),
(309,70,cs),
(215,70,o),
(144,122,o),
(142,229,c),
(37,229,l),
(37,83,o),
(142,-12,o),
(306,-12,cs)
);
}
);
width = 597;
}
);
unicode = 83;
userData = {
RMXScaler = {
source = S;
};
};
}
{
color = 3;
glyphname = T;
kernLeft = T;
kernRight = T;
layers = (
{
anchors = (
{
name = bottom;
pos = (283,0);
},
{
name = center;
pos = (246,335);
},
{
name = top;
pos = (246,670);
}
);
background = {
shapes = (
{
pos = (-89,0);
ref = H;
}
);
};
layerId = m01;
shapes = (
{
closed = 1;
nodes = (
(296,0,l),
(296,670,l),
(196,670,l),
(196,0,l)
);
},
{
closed = 1;
nodes = (
(490,588,l),
(490,670,l),
(2,670,l),
(2,588,l)
);
}
);
width = 492;
},
{
anchors = (
{
name = bottom;
pos = (283,0);
},
{
name = center;
pos = (246,335);
},
{
name = top;
pos = (246,670);
}
);
background = {
shapes = (
{
pos = (-89,0);
ref = H;
}
);
};
layerId = m002;
shapes = (
{
closed = 1;
nodes = (
(296,0,l),
(296,670,l),
(196,670,l),
(196,0,l)
);
},
{
closed = 1;
nodes = (
(490,588,l),
(490,670,l),
(2,670,l),
(2,588,l)
);
}
);
width = 492;
}
);
unicode = 84;
}
{
color = 3;
glyphname = U;
kernLeft = U;
kernRight = U;
layers = (
{
anchors = (
{
name = bottom;
pos = (321,0);
},
{
name = ogonek;
pos = (407,0);
},
{
name = top;
pos = (321,670);
},
{
name = topright;
pos = (612,670);
}
);
background = {
shapes = (
{
pos = (-3,0);
ref = H;
}
);
};
layerId = m01;
shapes = (
{
closed = 1;
nodes = (
(486,-12,o),
(586,87,o),
(586,230,cs),
(586,670,l),
(490,670,l),
(490,238,ls),
(490,135,o),
(435,68,o),
(331,68,cs),
(230,68,o),
(170,132,o),
(170,231,cs),
(170,670,l),
(72,670,l),
(72,230,ls),
(72,87,o),
(169,-12,o),
(326,-12,cs)
);
}
);
width = 658;
},
{
anchors = (
{
name = bottom;
pos = (315,0);
},
{
name = ogonek;
pos = (401,0);
},
{
name = top;
pos = (315,670);
},
{
name = topright;
pos = (606,670);
}
);
background = {
shapes = (
{
pos = (-9,0);
ref = H;
}
);
};
layerId = m002;
shapes = (
{
closed = 1;
nodes = (
(519,-12,o),
(634,91,o),
(634,259,cs),
(634,670,l),
(416,670,l),
(416,259,ls),
(416,205,o),
(388,170,o),
(335,170,cs),
(282,170,o),
(250,205,o),
(250,259,cs),
(250,670,l),
(28,670,l),
(28,259,ls),
(28,91,o),
(134,-12,o),
(332,-12,cs)
);
}
);
width = 662;
}
);
unicode = 85;
}
{
color = 3;
glyphname = V;
kernLeft = V;
kernRight = V;
layers = (
{
anchors = (
{
name = bottom;
pos = (307,0);
},
{
name = top;
pos = (307,670);
}
);
background = {
shapes = (
{
pos = (-28,0);
ref = H;
}
);
};
layerId = m01;
shapes = (
{
closed = 1;
nodes = (
(369,1,l),
(602,671,l),
(500,671,l),
(352,239,l),
(285,22,l),
(336,22,l),
(266,243,l),
(120,671,l),
(15,671,l),
(247,1,l)
);
}
);
width = 614;
},
{
anchors = (
{
name = bottom;
pos = (343,0);
},
{
name = top;
pos = (343,670);
}
);
background = {
shapes = (
{
angle = 180;
pos = (716,670);
ref = A;
}
);
};
layerId = m002;
shapes = (
{
closed = 1;
nodes = (
(474,0,l),
(689,670,l),
(468,670,l),
(375,349,l),
(337,182,l),
(359,182,l),
(322,344,l),
(225,670,l),
(-2,670,l),
(212,0,l)
);
}
);
width = 685;
}
);
unicode = 86;
}
{
glyphname = W;
kernLeft = W;
kernRight = W;
layers = (
{
anchors = (
{
name = bottom;
pos = (438,0);
},
{
name = top;
pos = (438,670);
}
);
background = {
shapes = (
{
closed = 1;
nodes = (
(324,1,l),
(471,632,l),
(451,632,l),
(599,1,l),
(744,1,l),
(906,671,l),
(811,671,l),
(663,39,l),
(683,39,l),
(538,671,l),
(389,671,l),
(243,39,l),
(264,39,l),
(117,671,l),
(16,671,l),
(178,1,l)
);
}
);
};
layerId = m01;
shapes = (
{
closed = 1;
nodes = (
(320,1,l),
(467,632,l),
(447,632,l),
(595,1,l),
(740,1,l),
(902,671,l),
(807,671,l),
(659,39,l),
(680,39,l),
(534,671,l),
(385,671,l),
(239,39,l),
(260,39,l),
(111,671,l),
(12,671,l),
(174,1,l)
);
}
);
width = 914;
}
);
unicode = 87;
}
{
glyphname = X;
kernLeft = X;
kernRight = X;
layers = (
{
anchors = (
{
name = bottom;
pos = (291,0);
},
{
name = top;
pos = (291,670);
}
);
background = {
shapes = (
{
pos = (-42,0);
ref = H;
},
{
closed = 0;
nodes = (
(692,-167,l),
(19,838,l)
);
},
{
closed = 0;
nodes = (
(-91,-167,l),
(582,838,l)
);
}
);
};
layerId = m01;
shapes = (
{
closed = 1;
nodes = (
(573,0,l),
(136,670,l),
(24,670,l),
(461,0,l)
);
},
{
closed = 1;
nodes = (
(116,0,l),
(299,279,l),
(258,370,l),
(7,0,l)
);
},
{
closed = 1;
nodes = (
(568,670,l),
(462,670,l),
(276,387,l),
(313,296,l)
);
}
);
width = 581;
},
{
anchors = (
{
name = bottom;
pos = (291,0);
},
{
name = top;
pos = (291,670);
}
);
background = {
shapes = (
{
pos = (-42,0);
ref = H;
},
{
closed = 0;
nodes = (
(692,-167,l),
(19,838,l)
);
},
{
closed = 0;
nodes = (
(-91,-167,l),
(582,838,l)
);
}
);
};
layerId = m002;
shapes = (
{
closed = 1;
nodes = (
(573,0,l),
(136,670,l),
(24,670,l),
(461,0,l)
);
},
{
closed = 1;
nodes = (
(116,0,l),
(299,279,l),
(258,370,l),
(7,0,l)
);
},
{
closed = 1;
nodes = (
(568,670,l),
(462,670,l),
(276,387,l),
(313,296,l)
);
}
);
width = 581;
}
);
unicode = 88;
}
{
glyphname = Y;
kernLeft = Y;
kernRight = Y;
layers = (
{
anchors = (
{
name = bottom;
pos = (281,0);
},
{
name = top;
pos = (281,670);
},
{
name = topleft;
pos = (16,670);
}
);
background = {
shapes = (
{
closed = 1;
nodes = (
(332,0,l),
(332,313,l),
(315,211,l),
(553,671,l),
(459,671,l),
(286,316,l),
(299,316,l),
(123,671,l),
(10,671,l),
(260,189,l),
(231,315,l),
(231,0,l)
);
}
);
};
layerId = m01;
shapes = (
{
closed = 1;
nodes = (
(331,0,l),
(331,338,l),
(314,241,l),
(554,671,l),
(456,671,l),
(272,335,l),
(296,335,l),
(114,671,l),
(6,671,l),
(259,214,l),
(231,340,l),
(231,0,l)
);
}
);
width = 561;
},
{
anchors = (
{
name = bottom;
pos = (281,0);
},
{
name = top;
pos = (281,670);
},
{
name = topleft;
pos = (16,670);
}
);
background = {
shapes = (
{
closed = 1;
nodes = (
(332,0,l),
(332,313,l),
(315,211,l),
(553,671,l),
(459,671,l),
(286,316,l),
(299,316,l),
(123,671,l),
(10,671,l),
(260,189,l),
(231,315,l),
(231,0,l)
);
}
);
};
layerId = m002;
shapes = (
{
closed = 1;
nodes = (
(331,0,l),
(331,338,l),
(314,241,l),
(554,671,l),
(456,671,l),
(272,335,l),
(296,335,l),
(114,671,l),
(6,671,l),
(259,214,l),
(231,340,l),
(231,0,l)
);
}
);
width = 561;
}
);
unicode = 89;
}
{
glyphname = Z;
kernLeft = Z;
kernRight = Z;
layers = (
{
anchors = (
{
name = bottom;
pos = (263,0);
},
{
name = center;
pos = (263,335);
},
{
name = top;
pos = (263,670);
}
);
background = {
shapes = (
{
pos = (-46,0);
ref = H;
}
);
};
layerId = m01;
shapes = (
{
closed = 1;
nodes = (
(511,0,l),
(511,80,l),
(65,80,l),
(129,63,l),
(501,605,l),
(501,670,l),
(27,670,l),
(27,590,l),
(463,590,l),
(390,604,l),
(20,65,l),
(20,0,l)
);
}
);
width = 525;
},
{
anchors = (
{
name = bottom;
pos = (263,0);
},
{
name = center;
pos = (263,335);
},
{
name = top;
pos = (263,670);
}
);
background = {
shapes = (
{
pos = (-46,0);
ref = H;
}
);
};
layerId = m002;
shapes = (
{
closed = 1;
nodes = (
(511,0,l),
(511,80,l),
(65,80,l),
(129,63,l),
(501,605,l),
(501,670,l),
(27,670,l),
(27,590,l),
(463,590,l),
(390,604,l),
(20,65,l),
(20,0,l)
);
}
);
width = 525;
}
);
unicode = 90;
}
{
glyphname = bracketright;
kernLeft = bracketright;
kernRight = bracketright;
layers = (
{
background = {
shapes = (
{
closed = 1;
nodes = (
(255,710,l),
(30,710,l),
(30,648,l),
(159,648,l),
(159,-78,l),
(30,-78,l),
(30,-140,l),
(255,-140,l)
);
}
);
};
layerId = m01;
shapes = (
{
closed = 1;
nodes = (
(255,-150,l),
(255,710,l),
(30,710,l),
(30,638,l),
(158,638,l),
(158,-78,l),
(30,-78,l),
(30,-150,l)
);
}
);
width = 327;
},
{
background = {
shapes = (
{
closed = 1;
nodes = (
(255,710,l),
(30,710,l),
(30,648,l),
(159,648,l),
(159,-78,l),
(30,-78,l),
(30,-140,l),
(255,-140,l)
);
}
);
};
layerId = m002;
shapes = (
{
closed = 1;
nodes = (
(255,-150,l),
(255,710,l),
(30,710,l),
(30,638,l),
(158,638,l),
(158,-78,l),
(30,-78,l),
(30,-150,l)
);
}
);
width = 327;
}
);
unicode = 93;
}
{
glyphname = underscore;
layers = (
{
layerId = m01;
shapes = (
{
closed = 1;
nodes = (
(454,-190,l),
(454,-116,l),
(46,-116,l),
(46,-190,l)
);
}
);
width = 500;
}
);
unicode = 95;
}
{
color = 3;
glyphname = a;
kernLeft = a;
kernRight = a;
layers = (
{
anchors = (
{
name = bottom;
pos = (256,0);
},
{
name = ogonek;
pos = (450,0);
},
{
name = top;
pos = (256,500);
}
);
background = {
shapes = (
{
closed = 1;
nodes = (
(284,-12,o),
(340,33,o),
(362,89,c),
(356,85,l),
(356,0,l),
(450,0,l),
(450,328,ls),
(450,462,o),
(370,512,o),
(261,512,cs),
(140,512,o),
(62,451,o),
(50,343,c),
(147,343,l),
(153,403,o),
(192,438,o),
(256,438,cs),
(320,438,o),
(356,401,o),
(356,340,cs),
(356,284,l),
(381,319,l),
(207,285,ls),
(89,262,o),
(40,211,o),
(40,127,cs),
(40,58,o),
(91,-12,o),
(199,-12,cs)
);
},
{
closed = 1;
nodes = (
(167,65,o),
(137,96,o),
(137,139,cs),
(137,182,o),
(167,211,o),
(231,224,cs),
(387,255,l),
(355,258,l),
(355,211,ls),
(355,115,o),
(301,65,o),
(226,65,cs)
);
}
);
};
layerId = m01;
shapes = (
{
closed = 1;
nodes = (
(284,-12,o),
(340,33,o),
(362,89,c),
(356,89,l),
(356,0,l),
(450,0,l),
(450,328,ls),
(450,462,o),
(370,512,o),
(261,512,cs),
(140,512,o),
(62,451,o),
(50,343,c),
(147,343,l),
(153,403,o),
(192,438,o),
(256,438,cs),
(320,438,o),
(355,401,o),
(355,340,cs),
(355,284,l),
(381,319,l),
(207,285,ls),
(89,262,o),
(40,211,o),
(40,127,cs),
(40,58,o),
(91,-12,o),
(199,-12,cs)
);
},
{
closed = 1;
nodes = (
(167,65,o),
(137,96,o),
(137,139,cs),
(137,182,o),
(167,211,o),
(231,224,cs),
(387,255,l),
(355,258,l),
(355,211,ls),
(355,115,o),
(301,65,o),
(226,65,cs)
);
}
);
width = 514;
},
{
anchors = (
{
name = bottom;
pos = (279,0);
},
{
name = ogonek;
pos = (477,0);
},
{
name = top;
pos = (279,500);
}
);
background = {
shapes = (
{
closed = 1;
nodes = (
(317,-12,o),
(373,33,o),
(395,89,c),
(389,85,l),
(389,0,l),
(483,0,l),
(483,328,ls),
(483,462,o),
(403,512,o),
(294,512,cs),
(173,512,o),
(95,451,o),
(83,343,c),
(180,343,l),
(186,403,o),
(225,438,o),
(289,438,cs),
(353,438,o),
(389,401,o),
(389,340,cs),
(389,284,l),
(414,319,l),
(240,285,ls),
(122,262,o),
(73,211,o),
(73,127,cs),
(73,58,o),
(124,-12,o),
(232,-12,cs)
);
},
{
closed = 1;
nodes = (
(200,65,o),
(170,96,o),
(170,139,cs),
(170,182,o),
(200,211,o),
(264,224,cs),
(420,255,l),
(388,258,l),
(388,211,ls),
(388,115,o),
(334,65,o),
(259,65,cs)
);
}
);
};
layerId = m002;
shapes = (
{
closed = 1;
nodes = (
(321,-10,o),
(372,71,o),
(379,171,c),
(354,171,l),
(354,0,l),
(554,0,l),
(554,307,ls),
(554,460,o),
(456,534,o),
(292,534,cs),
(147,534,o),
(36,467,o),
(29,337,c),
(243,337,l),
(244,363,o),
(263,376,o),
(291,376,cs),
(323,376,o),
(339,360,o),
(339,329,cs),
(339,283,l),
(422,336,l),
(223,318,ls),
(83,305,o),
(20,245,o),
(20,144,cs),
(20,60,o),
(69,-10,o),
(182,-10,cs)
);
},
{
closed = 1;
nodes = (
(258,130,o),
(244,145,o),
(244,166,cs),
(244,189,o),
(260,204,o),
(293,208,cs),
(373,218,l),
(339,244,l),
(339,194,ls),
(339,153,o),
(319,130,o),
(285,130,cs)
);
}
);
width = 581;
}
);
metricRight = n;
unicode = 97;
userData = {
RMXScaler = {
source = a;
};
};
}
{
color = 3;
glyphname = b;
kernLeft = h;
kernRight = o;
layers = (
{
anchors = (
{
name = bottom;
pos = (281,0);
},
{
name = center;
pos = (143,560);
},
{
name = top;
pos = (281,500);
}
);
background = {
shapes = (
{
closed = 1;
nodes = (
(445,-12,o),
(529,87,o),
(529,250,cs),
(529,408,o),
(452,512,o),
(319,512,cs),
(233,512,o),
(164,467,o),
(141,396,c),
(159,396,l),
(159,700,l),
(63,700,l),
(63,0,l),
(159,0,l),
(159,95,l),
(152,79,l),
(181,21,o),
(241,-12,o),
(314,-12,cs)
);
},
{
closed = 1;
nodes = (
(211,62,o),
(157,133,o),
(157,250,cs),
(157,367,o),
(211,438,o),
(295,438,cs),
(380,438,o),
(431,367,o),
(431,250,cs),
(431,133,o),
(380,62,o),
(295,62,cs)
);
}
);
};
layerId = m01;
shapes = (
{
closed = 1;
nodes = (
(446,-12,o),
(525,90,o),
(525,250,cs),
(525,416,o),
(452,512,o),
(317,512,cs),
(225,512,o),
(159,467,o),
(137,396,c),
(163,396,l),
(163,700,l),
(67,700,l),
(67,0,l),
(161,0,l),
(161,95,l),
(156,79,l),
(184,21,o),
(247,-12,o),
(320,-12,cs)
);
},
{
closed = 1;
nodes = (
(205,62,o),
(161,130,o),
(161,250,cs),
(161,370,o),
(206,438,o),
(297,438,cs),
(384,438,o),
(427,370,o),
(427,250,cs),
(427,130,o),
(383,62,o),
(295,62,cs)
);
}
);
width = 563;
}
);
metricLeft = h;
metricRight = o;
unicode = 98;
}
{
glyphname = c;
kernLeft = o;
kernRight = c;
layers = (
{
anchors = (
{
name = bottom;
pos = (262,0);
},
{
name = top;
pos = (262,500);
}
);
background = {
shapes = (
{
pos = (-1,0);
ref = o;
}
);
};
layerId = m01;
shapes = (
{
closed = 1;
nodes = (
(397,-12,o),
(480,70,o),
(488,197,c),
(388,197,l),
(385,110,o),
(344,63,o),
(269,63,cs),
(182,63,o),
(136,131,o),
(136,251,cs),
(136,370,o),
(182,437,o),
(269,437,cs),
(330,437,o),
(373,406,o),
(383,339,c),
(482,339,l),
(469,440,o),
(397,512,o),
(273,512,cs),
(134,512,o),
(38,424,o),
(38,249,cs),
(38,89,o),
(123,-12,o),
(267,-12,cs)
);
}
);
width = 523;
},
{
anchors = (
{
name = bottom;
pos = (262,0);
},
{
name = top;
pos = (262,500);
}
);
background = {
shapes = (
{
pos = (-1,0);
ref = o;
}
);
};
layerId = m002;
shapes = (
{
closed = 1;
nodes = (
(397,-12,o),
(480,70,o),
(488,197,c),
(388,197,l),
(385,110,o),
(344,63,o),
(269,63,cs),
(182,63,o),
(136,131,o),
(136,251,cs),
(136,370,o),
(182,437,o),
(269,437,cs),
(330,437,o),
(373,406,o),
(383,339,c),
(482,339,l),
(469,440,o),
(397,512,o),
(273,512,cs),
(134,512,o),
(38,424,o),
(38,249,cs),
(38,89,o),
(123,-12,o),
(267,-12,cs)
);
}
);
width = 523;
}
);
metricLeft = o;
unicode = 99;
}
{
color = 3;
glyphname = d;
kernLeft = o;
kernRight = d;
layers = (
{
anchors = (
{
name = bottom;
pos = (281,0);
},
{
name = center;
pos = (449,700);
},
{
name = top;
pos = (281,500);
},
{
name = topright;
pos = (495,700);
}
);
background = {
shapes = (
{
pos = (562,0);
ref = b;
scale = (-1,1);
}
);
};
layerId = m01;
shapes = (
{
closed = 1;
nodes = (
(327,-12,o),
(392,30,o),
(411,95,c),
(401,89,l),
(401,0,l),
(495,0,l),
(495,700,l),
(399,700,l),
(399,396,l),
(424,400,l),
(404,467,o),
(342,512,o),
(256,512,cs),
(128,512,o),
(38,417,o),
(38,251,cs),
(38,79,o),
(119,-12,o),
(244,-12,cs)
);
},
{
closed = 1;
nodes = (
(180,62,o),
(136,130,o),
(136,250,cs),
(136,370,o),
(180,438,o),
(270,438,cs),
(358,438,o),
(401,370,o),
(401,250,cs),
(401,130,o),
(357,62,o),
(269,62,cs)
);
}
);
width = 562;
},
{
anchors = (
{
name = bottom;
pos = (284,0);
},
{
name = center;
pos = (452,700);
},
{
name = top;
pos = (284,500);
},
{
name = topright;
pos = (498,700);
}
);
background = {
shapes = (
{
closed = 1;
nodes = (
(317,-14,o),
(373,57,o),
(384,155,c),
(365,155,l),
(365,0,l),
(569,0,l),
(569,700,l),
(351,700,l),
(351,366,l),
(376,366,l),
(373,458,o),
(315,534,o),
(216,534,cs),
(95,534,o),
(14,447,o),
(14,261,cs),
(14,81,o),
(88,-14,o),
(210,-14,cs)
);
},
{
closed = 1;
nodes = (
(251,149,o),
(234,186,o),
(234,260,cs),
(234,333,o),
(251,370,o),
(294,370,cs),
(336,370,o),
(352,333,o),
(352,260,cs),
(352,186,o),
(335,149,o),
(293,149,cs)
);
}
);
};
layerId = m002;
shapes = (
{
closed = 1;
nodes = (
(337,-14,o),
(378,54,o),
(387,155,c),
(366,155,l),
(366,0,l),
(572,0,l),
(572,700,l),
(354,700,l),
(354,366,l),
(389,366,l),
(360,483,o),
(326,534,o),
(224,534,cs),
(103,534,o),
(17,444,o),
(17,261,cs),
(17,79,o),
(96,-14,o),
(215,-14,cs)
);
},
{
closed = 1;
nodes = (
(254,149,o),
(237,186,o),
(237,260,cs),
(237,333,o),
(254,370,o),
(297,370,cs),
(339,370,o),
(355,333,o),
(355,260,cs),
(355,186,o),
(338,149,o),
(296,149,cs)
);
}
);
width = 605;
}
);
metricLeft = o;
metricRight = l;
unicode = 100;
}
{
color = 3;
glyphname = e;
kernLeft = o;
kernRight = e;
layers = (
{
anchors = (
{
name = bottom;
pos = (263,0);
},
{
name = ogonek;
pos = (356,2);
},
{
name = top;
pos = (263,500);
}
);
background = {
shapes = (
{
pos = (-10,0);
ref = o;
}
);
};
layerId = m01;
shapes = (
{
closed = 1;
nodes = (
(388,-12,o),
(478,64,o),
(487,173,c),
(387,173,l),
(379,101,o),
(338,62,o),
(270,62,cs),
(179,62,o),
(136,130,o),
(136,250,cs),
(136,370,o),
(180,438,o),
(270,438,cs),
(347,438,o),
(389,385,o),
(391,300,c),
(399,304,l),
(119,304,l),
(119,228,l),
(491,228,l),
(491,262,ls),
(491,411,o),
(409,512,o),
(268,512,cs),
(121,512,o),
(38,405,o),
(38,248,cs),
(38,93,o),
(122,-12,o),
(268,-12,cs)
);
}
);
width = 528;
}
);
metricLeft = o;
unicode = 101;
}
{
color = 3;
glyphname = f;
kernLeft = f;
kernRight = f;
layers = (
{
anchors = (
{
name = bottom;
pos = (164,0);
},
{
name = top;
pos = (164,700);
}
);
background = {
shapes = (
{
closed = 1;
nodes = (
(206,1,l),
(206,564,ls),
(206,604,o),
(230,624,o),
(273,624,cs),
(315,624,l),
(315,704,l),
(279,704,ls),
(177,704,o),
(110,652,o),
(110,555,cs),
(110,1,l)
);
},
{
closed = 1;
nodes = (
(322,422,l),
(322,500,l),
(25,500,l),
(25,422,l)
);
}
);
};
layerId = m01;
shapes = (
{
closed = 1;
nodes = (
(200,1,l),
(200,564,ls),
(200,604,o),
(218,624,o),
(260,624,cs),
(323,624,l),
(323,700,l),
(260,700,ls),
(164,700,o),
(104,651,o),
(104,560,cs),
(104,1,l)
);
},
{
closed = 1;
nodes = (
(316,426,l),
(316,500,l),
(19,500,l),
(19,426,l)
);
}
);
width = 331;
}
);
unicode = 102;
}
{
color = 3;
glyphname = g;
kernLeft = g;
kernRight = u;
layers = (
{
anchors = (
{
name = bottom;
pos = (285,-190);
},
{
name = top;
pos = (285,500);
}
);
background = {
shapes = (
{
pos = (8,0);
ref = o;
}
);
};
layerId = m01;
shapes = (
{
closed = 1;
nodes = (
(420,-202,o),
(496,-112,o),
(496,7,cs),
(496,500,l),
(400,500,l),
(400,409,l),
(419,405,l),
(395,477,o),
(338,512,o),
(263,512,cs),
(135,512,o),
(46,422,o),
(46,245,cs),
(46,83,o),
(128,-8,o),
(249,-8,cs),
(327,-8,o),
(389,34,o),
(410,100,c),
(400,94,l),
(400,2,ls),
(400,-82,o),
(363,-128,o),
(271,-128,cs),
(191,-128,o),
(149,-90,o),
(147,-32,c),
(47,-32,l),
(52,-134,o),
(128,-202,o),
(266,-202,cs)
);
},
{
closed = 1;
nodes = (
(189,66,o),
(144,132,o),
(144,248,cs),
(144,370,o),
(189,438,o),
(275,438,cs),
(358,438,o),
(402,371,o),
(402,252,cs),
(402,133,o),
(358,66,o),
(275,66,cs)
);
}
);
width = 563;
},
{
anchors = (
{
name = bottom;
pos = (286,-190);
},
{
name = top;
pos = (286,500);
}
);
background = {
shapes = (
{
pos = (9,0);
ref = d;
}
);
};
layerId = m002;
shapes = (
{
closed = 1;
nodes = (
(468,-204,o),
(581,-125,o),
(581,31,cs),
(581,520,l),
(374,520,l),
(374,366,l),
(408,366,l),
(375,483,o),
(336,534,o),
(222,534,cs),
(105,534,o),
(26,445,o),
(26,282,cs),
(26,119,o),
(107,34,o),
(227,34,cs),
(316,34,o),
(368,64,o),
(392,160,c),
(366,158,l),
(366,12,ls),
(366,-31,o),
(341,-56,o),
(302,-56,cs),
(263,-56,o),
(244,-39,o),
(241,-8,c),
(23,-8,l),
(31,-124,o),
(130,-204,o),
(303,-204,cs)
);
},
{
closed = 1;
nodes = (
(263,170,o),
(246,202,o),
(246,270,cs),
(246,339,o),
(263,372,o),
(305,372,cs),
(347,372,o),
(364,339,o),
(364,270,cs),
(364,202,o),
(347,170,o),
(305,170,cs)
);
}
);
width = 614;
}
);
metricRight = l;
unicode = 103;
}
{
color = 3;
glyphname = h;
kernLeft = h;
kernRight = n;
layers = (
{
anchors = (
{
name = bottom;
pos = (271,0);
},
{
name = center;
pos = (137,560);
},
{
name = top;
pos = (271,700);
}
);
background = {
shapes = (
{
closed = 1;
nodes = (
(159,0,l),
(159,232,ls),
(159,381,o),
(205,441,o),
(282,441,cs),
(348,441,o),
(379,400,o),
(379,319,cs),
(379,0,l),
(475,0,l),
(475,337,ls),
(475,450,o),
(417,512,o),
(313,512,cs),
(239,512,o),
(165,476,o),
(138,381,c),
(159,388,l),
(159,700,l),
(63,700,l),
(63,0,l)
);
}
);
};
layerId = m01;
shapes = (
{
closed = 1;
nodes = (
(163,0,l),
(163,320,ls),
(163,391,o),
(212,435,o),
(278,435,cs),
(341,435,o),
(383,396,o),
(383,326,cs),
(383,0,l),
(479,0,l),
(479,332,ls),
(479,437,o),
(413,512,o),
(307,512,cs),
(231,512,o),
(159,474,o),
(139,376,c),
(163,388,l),
(163,700,l),
(67,700,l),
(67,0,l)
);
}
);
width = 543;
}
);
metricLeft = l;
metricRight = n;
unicode = 104;
}
{
glyphname = k;
kernLeft = h;
kernRight = k;
layers = (
{
anchors = (
{
name = bottom;
pos = (250,0);
},
{
name = top;
pos = (250,700);
}
);
background = {
shapes = (
{
ref = n;
}
);
};
layerId = m01;
shapes = (
{
closed = 1;
nodes = (
(163,0,l),
(163,700,l),
(67,700,l),
(67,0,l)
);
},
{
closed = 1;
nodes = (
(381,0,l),
(502,0,l),
(256,283,l),
(252,266,l),
(489,500,l),
(374,500,l),
(149,275,l),
(154,262,l)
);
}
);
width = 500;
}
);
metricLeft = l;
unicode = 107;
}
{
glyphname = l;
kernLeft = h;
kernRight = d;
layers = (
{
anchors = (
{
name = bottom;
pos = (115,0);
},
{
name = center;
pos = (115,250);
},
{
name = top;
pos = (115,700);
},
{
name = topright;
pos = (163,700);
}
);
layerId = m01;
shapes = (
{
closed = 1;
nodes = (
(163,0,l),
(163,700,l),
(67,700,l),
(67,0,l)
);
}
);
width = 230;
},
{
anchors = (
{
name = bottom;
pos = (139,0);
},
{
name = center;
pos = (139,260);
},
{
name = top;
pos = (139,875);
},
{
name = topright;
pos = (248,875);
}
);
layerId = m002;
shapes = (
{
closed = 1;
nodes = (
(248,0,l),
(248,700,l),
(30,700,l),
(30,0,l)
);
}
);
width = 278;
}
);
unicode = 108;
}
{
color = 3;
glyphname = m;
kernLeft = n;
kernRight = n;
layers = (
{
anchors = (
{
name = bottom;
pos = (424,0);
},
{
name = top;
pos = (424,500);
}
);
background = {
shapes = (
{
closed = 1;
nodes = (
(159,0,l),
(159,262,ls),
(159,379,o),
(203,441,o),
(280,441,cs),
(344,441,o),
(374,400,o),
(374,329,cs),
(374,0,l),
(470,0,l),
(470,262,ls),
(470,379,o),
(514,441,o),
(591,441,cs),
(655,441,o),
(685,400,o),
(685,329,cs),
(685,0,l),
(781,0,l),
(781,346,ls),
(781,453,o),
(726,512,o),
(627,512,cs),
(555,512,o),
(486,481,o),
(453,400,c),
(461,402,l),
(444,473,o),
(394,512,o),
(316,512,cs),
(245,512,o),
(178,479,o),
(145,400,c),
(159,404,l),
(159,500,l),
(63,500,l),
(63,0,l)
);
}
);
};
layerId = m01;
shapes = (
{
closed = 1;
nodes = (
(163,0,l),
(163,325,ls),
(163,393,o),
(210,435,o),
(274,435,cs),
(335,435,o),
(375,398,o),
(375,331,cs),
(375,0,l),
(471,0,l),
(471,325,ls),
(471,393,o),
(518,435,o),
(582,435,cs),
(643,435,o),
(683,398,o),
(683,331,cs),
(683,0,l),
(779,0,l),
(779,336,ls),
(779,438,o),
(712,512,o),
(608,512,cs),
(539,512,o),
(470,480,o),
(440,401,c),
(463,396,l),
(443,466,o),
(386,512,o),
(303,512,cs),
(229,512,o),
(159,475,o),
(139,380,c),
(161,388,l),
(161,500,l),
(67,500,l),
(67,0,l)
);
}
);
width = 843;
},
{
anchors = (
{
name = bottom;
pos = (457,0);
},
{
name = top;
pos = (457,520);
}
);
background = {
shapes = (
{
closed = 1;
nodes = (
(248,0,l),
(248,292,ls),
(248,333,o),
(265,353,o),
(298,353,cs),
(330,353,o),
(346,334,o),
(346,296,cs),
(346,0,l),
(564,0,l),
(564,350,ls),
(564,464,o),
(503,534,o),
(395,534,cs),
(303,534,o),
(236,493,o),
(214,389,c),
(234,389,l),
(234,520,l),
(30,520,l),
(30,0,l)
);
}
);
};
layerId = m002;
shapes = (
{
closed = 1;
nodes = (
(251,0,l),
(251,298,ls),
(251,339,o),
(268,359,o),
(301,359,cs),
(333,359,o),
(349,340,o),
(349,302,cs),
(349,0,l),
(567,0,l),
(567,298,ls),
(567,339,o),
(584,359,o),
(617,359,cs),
(649,359,o),
(665,340,o),
(665,302,cs),
(665,0,l),
(883,0,l),
(883,350,ls),
(883,464,o),
(822,534,o),
(714,534,cs),
(634,534,o),
(572,503,o),
(543,425,c),
(556,425,l),
(534,494,o),
(480,534,o),
(398,534,cs),
(306,534,o),
(239,493,o),
(217,389,c),
(237,389,l),
(237,520,l),
(33,520,l),
(33,0,l)
);
}
);
width = 913;
}
);
metricLeft = n;
metricRight = n;
unicode = 109;
}
{
color = 3;
glyphname = n;
kernLeft = n;
kernRight = n;
layers = (
{
anchors = (
{
name = bottom;
pos = (271,0);
},
{
name = top;
pos = (271,500);
}
);
background = {
shapes = (
{
pos = (21,0);
ref = a;
}
);
};
layerId = m01;
shapes = (
{
closed = 1;
nodes = (
(163,0,l),
(163,320,ls),
(163,391,o),
(212,435,o),
(278,435,cs),
(341,435,o),
(383,396,o),
(383,326,cs),
(383,0,l),
(479,0,l),
(479,332,ls),
(479,437,o),
(413,512,o),
(307,512,cs),
(231,512,o),
(159,474,o),
(139,376,c),
(161,388,l),
(161,500,l),
(67,500,l),
(67,0,l)
);
}
);
width = 543;
}
);
unicode = 110;
}
{
color = 3;
glyphname = o;
kernLeft = o;
kernRight = o;
layers = (
{
anchors = (
{
name = bottom;
pos = (264,0);
},
{
name = center;
pos = (264,250);
},
{
name = ogonek;
pos = (479,10);
},
{
name = top;
pos = (264,500);
},
{
name = topright;
pos = (513,500);
}
);
background = {
shapes = (
{
pos = (-31,0);
ref = n;
}
);
};
layerId = m01;
shapes = (
{
closed = 1;
nodes = (
(414,-12,o),
(502,88,o),
(502,250,cs),
(502,412,o),
(414,512,o),
(270,512,cs),
(126,512,o),
(38,412,o),
(38,250,cs),
(38,88,o),
(126,-12,o),
(270,-12,cs)
);
},
{
closed = 1;
nodes = (
(181,62,o),
(136,130,o),
(136,250,cs),
(136,370,o),
(181,438,o),
(270,438,cs),
(359,438,o),
(404,370,o),
(404,250,cs),
(404,130,o),
(359,62,o),
(270,62,cs)
);
}
);
width = 540;
},
{
anchors = (
{
name = bottom;
pos = (290,0);
},
{
name = center;
pos = (290,250);
},
{
name = ogonek;
pos = (505,10);
},
{
name = top;
pos = (290,500);
},
{
name = topright;
pos = (539,500);
}
);
background = {
shapes = (
{
pos = (-8,0);
ref = n;
}
);
};
layerId = m002;
shapes = (
{
closed = 1;
nodes = (
(469,-14,o),
(575,91,o),
(575,261,cs),
(575,430,o),
(469,534,o),
(296,534,cs),
(123,534,o),
(17,430,o),
(17,261,cs),
(17,91,o),
(123,-14,o),
(296,-14,cs)
);
},
{
closed = 1;
nodes = (
(254,150,o),
(237,185,o),
(237,260,cs),
(237,335,o),
(254,370,o),
(296,370,cs),
(338,370,o),
(355,335,o),
(355,260,cs),
(355,185,o),
(338,150,o),
(296,150,cs)
);
}
);
width = 592;
}
);
unicode = 111;
}
{
color = 3;
glyphname = p;
kernLeft = n;
kernRight = o;
layers = (
{
anchors = (
{
name = bottom;
pos = (282,0);
},
{
name = top;
pos = (282,500);
}
);
background = {
shapes = (
{
closed = 1;
nodes = (
(169,-190,l),
(169,87,l),
(162,71,l),
(191,18,o),
(255,-12,o),
(326,-12,cs),
(457,-12,o),
(539,87,o),
(539,247,cs),
(539,412,o),
(459,512,o),
(326,512,cs),
(236,512,o),
(172,467,o),
(150,396,c),
(167,396,l),
(167,500,l),
(73,500,l),
(73,-190,l)
);
},
{
closed = 1;
nodes = (
(221,62,o),
(167,133,o),
(167,250,cs),
(167,367,o),
(222,438,o),
(307,438,cs),
(391,438,o),
(441,367,o),
(441,250,cs),
(441,133,o),
(390,62,o),
(305,62,cs)
);
}
);
};
layerId = m01;
shapes = (
{
closed = 1;
nodes = (
(163,-190,l),
(163,87,l),
(156,71,l),
(183,19,o),
(246,-12,o),
(313,-12,cs),
(439,-12,o),
(525,85,o),
(525,251,cs),
(525,407,o),
(448,512,o),
(319,512,cs),
(231,512,o),
(166,467,o),
(144,396,c),
(161,396,l),
(161,500,l),
(67,500,l),
(67,-190,l)
);
},
{
closed = 1;
nodes = (
(213,62,o),
(161,133,o),
(161,250,cs),
(161,367,o),
(214,438,o),
(297,438,cs),
(378,438,o),
(427,367,o),
(427,250,cs),
(427,133,o),
(378,62,o),
(295,62,cs)
);
}
);
width = 563;
}
);
metricLeft = n;
metricRight = o;
unicode = 112;
}
{
color = 3;
glyphname = q;
kernLeft = o;
kernRight = u;
layers = (
{
anchors = (
{
name = bottom;
pos = (282,0);
},
{
name = top;
pos = (282,500);
}
);
background = {
shapes = (
{
angle = 180;
pos = (575,500);
ref = b;
}
);
};
layerId = m01;
shapes = (
{
closed = 1;
nodes = (
(496,-190,l),
(496,500,l),
(402,500,l),
(402,405,l),
(413,417,l),
(382,480,o),
(325,512,o),
(256,512,cs),
(120,512,o),
(38,410,o),
(38,245,cs),
(38,87,o),
(116,-12,o),
(251,-12,cs),
(342,-12,o),
(403,44,o),
(416,104,c),
(400,104,l),
(400,-190,l)
);
},
{
closed = 1;
nodes = (
(179,62,o),
(136,128,o),
(136,245,cs),
(136,369,o),
(180,438,o),
(268,438,cs),
(358,438,o),
(402,370,o),
(402,250,cs),
(402,130,o),
(357,62,o),
(266,62,cs)
);
}
);
width = 563;
}
);
metricLeft = o;
metricRight = l;
unicode = 113;
}
{
color = 3;
glyphname = r;
kernLeft = n;
kernRight = r;
layers = (
{
anchors = (
{
name = bottom;
pos = (177,0);
},
{
name = top;
pos = (177,500);
}
);
background = {
shapes = (
{
ref = n;
}
);
};
layerId = m01;
shapes = (
{
closed = 1;
nodes = (
(163,0,l),
(163,240,ls),
(163,349,o),
(201,415,o),
(310,415,cs),
(354,415,l),
(354,503,l),
(316,503,ls),
(218,503,o),
(156,439,o),
(141,344,c),
(161,349,l),
(161,500,l),
(67,500,l),
(67,0,l)
);
}
);
width = 369;
},
{
anchors = (
{
name = bottom;
pos = (177,0);
},
{
name = top;
pos = (177,500);
}
);
background = {
shapes = (
{
closed = 1;
nodes = (
(163,0,l),
(163,240,ls),
(163,349,o),
(201,415,o),
(310,415,cs),
(354,415,l),
(354,503,l),
(316,503,ls),
(218,503,o),
(156,439,o),
(141,344,c),
(161,349,l),
(161,500,l),
(67,500,l),
(67,0,l)
);
}
);
};
layerId = m002;
shapes = (
{
closed = 1;
nodes = (
(304,525,o),
(244,477,o),
(227,351,c),
(234,351,l),
(234,520,l),
(30,520,l),
(30,0,l),
(248,0,l),
(248,240,ls),
(248,281,o),
(266,301,o),
(300,301,cs),
(425,301,l),
(425,525,l),
(397,525,ls)
);
}
);
width = 429;
}
);
metricLeft = n;
unicode = 114;
}
{
color = 3;
glyphname = s;
kernLeft = s;
kernRight = s;
layers = (
{
anchors = (
{
name = bottom;
pos = (251,0);
},
{
name = top;
pos = (251,500);
}
);
background = {
shapes = (
{
pos = (-10,0);
ref = n;
}
);
};
layerId = m01;
shapes = (
{
closed = 1;
nodes = (
(394,-12,o),
(464,66,o),
(464,148,cs),
(464,222,o),
(420,265,o),
(334,284,cs),
(226,308,ls),
(179,318,o),
(155,336,o),
(155,370,cs),
(155,412,o),
(194,440,o),
(251,440,cs),
(312,440,o),
(354,410,o),
(353,343,c),
(451,343,l),
(450,451,o),
(372,512,o),
(251,512,cs),
(135,512,o),
(59,449,o),
(59,363,cs),
(59,295,o),
(97,241,o),
(203,219,cs),
(301,197,ls),
(345,187,o),
(366,168,o),
(366,138,cs),
(366,95,o),
(327,62,o),
(262,62,cs),
(186,62,o),
(140,106,o),
(140,179,c),
(40,179,l),
(40,63,o),
(117,-12,o),
(257,-12,cs)
);
}
);
width = 502;
},
{
anchors = (
{
name = bottom;
pos = (257,0);
},
{
name = top;
pos = (257,500);
}
);
background = {
shapes = (
{
pos = (-11,0);
ref = n;
}
);
};
layerId = m002;
shapes = (
{
closed = 1;
nodes = (
(444,-14,o),
(540,61,o),
(540,178,cs),
(540,283,o),
(479,327,o),
(323,337,cs),
(283,340,ls),
(237,342,o),
(226,355,o),
(226,372,cs),
(226,390,o),
(240,405,o),
(268,405,cs),
(297,405,o),
(320,388,o),
(321,351,c),
(525,351,l),
(517,467,o),
(424,534,o),
(275,534,cs),
(114,534,o),
(22,463,o),
(22,353,cs),
(22,269,o),
(64,199,o),
(236,192,cs),
(268,191,ls),
(318,189,o),
(328,172,o),
(328,151,cs),
(328,135,o),
(316,118,o),
(281,118,cs),
(240,118,o),
(220,142,o),
(219,178,c),
(13,178,l),
(20,72,o),
(100,-14,o),
(277,-14,cs)
);
}
);
width = 557;
}
);
unicode = 115;
userData = {
RMXScaler = {
source = s;
};
};
}
{
color = 3;
glyphname = t;
kernLeft = t;
kernRight = t;
layers = (
{
anchors = (
{
name = bottom;
pos = (178,0);
},
{
name = center;
pos = (178,250);
},
{
name = top;
pos = (178,670);
},
{
name = topright;
pos = (194,726);
}
);
background = {
shapes = (
{
closed = 1;
nodes = (
(256,-8,o),
(277,-5,o),
(299,0,c),
(299,67,l),
(286,65,o),
(271,64,o),
(259,64,cs),
(212,64,o),
(190,79,o),
(190,125,cs),
(190,640,l),
(94,640,l),
(94,107,ls),
(94,20,o),
(154,-8,o),
(236,-8,cs)
);
},
{
closed = 1;
nodes = (
(309,432,l),
(309,500,l),
(10,500,l),
(10,432,l)
);
}
);
};
layerId = m01;
shapes = (
{
closed = 1;
nodes = (
(328,0,l),
(328,76,l),
(251,76,ls),
(214,76,o),
(194,89,o),
(194,126,cs),
(194,670,l),
(98,670,l),
(98,116,ls),
(98,28,o),
(155,0,o),
(230,0,cs)
);
},
{
closed = 1;
nodes = (
(314,426,l),
(314,500,l),
(9,500,l),
(9,426,l)
);
}
);
width = 343;
},
{
anchors = (
{
name = bottom;
pos = (199,0);
},
{
name = center;
pos = (199,260);
},
{
name = top;
pos = (199,670);
},
{
name = topright;
pos = (287,743);
}
);
background = {
shapes = (
{
closed = 1;
nodes = (
(331,0,l),
(331,76,l),
(254,76,ls),
(217,76,o),
(197,89,o),
(197,126,cs),
(197,670,l),
(101,670,l),
(101,116,ls),
(101,28,o),
(158,0,o),
(233,0,cs)
);
},
{
closed = 1;
nodes = (
(317,426,l),
(317,500,l),
(12,500,l),
(12,426,l)
);
}
);
};
layerId = m002;
shapes = (
{
closed = 1;
nodes = (
(385,0,l),
(385,152,l),
(323,152,ls),
(297,152,o),
(285,162,o),
(285,182,cs),
(285,670,l),
(67,670,l),
(67,147,ls),
(67,51,o),
(126,0,o),
(225,0,cs)
);
},
{
closed = 1;
nodes = (
(378,378,l),
(378,520,l),
(3,520,l),
(3,378,l)
);
}
);
width = 398;
}
);
unicode = 116;
}
{
color = 3;
glyphname = u;
kernLeft = u;
kernRight = u;
layers = (
{
anchors = (
{
name = bottom;
pos = (267,0);
},
{
name = ogonek;
pos = (470,0);
},
{
name = top;
pos = (267,500);
},
{
name = topright;
pos = (513,500);
}
);
background = {
shapes = (
{
angle = 180;
pos = (529,500);
ref = n;
}
);
};
layerId = m01;
shapes = (
{
closed = 1;
nodes = (
(301,-12,o),
(366,20,o),
(387,95,c),
(376,96,l),
(376,0,l),
(470,0,l),
(470,500,l),
(374,500,l),
(374,181,ls),
(374,109,o),
(326,65,o),
(259,65,cs),
(196,65,o),
(160,101,o),
(160,164,cs),
(160,500,l),
(64,500,l),
(64,158,ls),
(64,50,o),
(129,-12,o),
(229,-12,cs)
);
}
);
width = 537;
}
);
metricLeft = "=|n";
metricRight = "=|n";
unicode = 117;
}
{
color = 3;
glyphname = v;
kernLeft = v;
kernRight = v;
layers = (
{
anchors = (
{
name = bottom;
pos = (245,0);
},
{
name = top;
pos = (245,500);
}
);
background = {
shapes = (
{
closed = 1;
nodes = (
(293,0,l),
(467,500,l),
(382,500,l),
(222,19,l),
(263,19,l),
(106,500,l),
(4,500,l),
(177,0,l)
);
}
);
};
layerId = m01;
shapes = (
{
closed = 1;
nodes = (
(307,0,l),
(481,500,l),
(385,500,l),
(225,19,l),
(268,19,l),
(108,500,l),
(8,500,l),
(181,0,l)
);
}
);
width = 489;
},
{
anchors = (
{
name = bottom;
pos = (328,0);
},
{
name = top;
pos = (328,500);
}
);
background = {
shapes = (
{
closed = 1;
nodes = (
(416,0,l),
(602,520,l),
(387,520,l),
(291,162,l),
(326,162,l),
(225,520,l),
(-4,520,l),
(179,0,l)
);
}
);
};
layerId = m002;
shapes = (
{
closed = 1;
nodes = (
(419,0,l),
(605,520,l),
(385,520,l),
(289,162,l),
(324,162,l),
(223,520,l),
(-1,520,l),
(182,0,l)
);
}
);
width = 604;
}
);
unicode = 118;
}
{
glyphname = w;
kernLeft = w;
kernRight = w;
layers = (
{
anchors = (
{
name = bottom;
pos = (367,0);
},
{
name = top;
pos = (367,500);
}
);
background = {
shapes = (
{
ref = v;
}
);
};
layerId = m01;
shapes = (
{
closed = 1;
nodes = (
(263,0,l),
(383,451,l),
(354,450,l),
(465,0,l),
(589,0,l),
(726,500,l),
(637,500,l),
(517,46,l),
(541,46,l),
(430,500,l),
(314,500,l),
(195,46,l),
(220,46,l),
(103,500,l),
(7,500,l),
(140,0,l)
);
}
);
width = 734;
}
);
unicode = 119;
}
{
glyphname = x;
kernLeft = x;
kernRight = x;
layers = (
{
anchors = (
{
name = bottom;
pos = (232,0);
},
{
name = top;
pos = (232,500);
}
);
background = {
shapes = (
{
pos = (-40,0);
ref = n;
}
);
};
layerId = m01;
shapes = (
{
closed = 1;
nodes = (
(467,0,l),
(110,500,l),
(2,500,l),
(359,0,l)
);
},
{
closed = 1;
nodes = (
(99,0,l),
(240,195,l),
(185,256,l),
(-4,0,l)
);
},
{
closed = 1;
nodes = (
(460,500,l),
(362,500,l),
(223,303,l),
(276,244,l)
);
}
);
width = 463;
},
{
anchors = (
{
name = bottom;
pos = (232,0);
},
{
name = top;
pos = (232,500);
}
);
background = {
shapes = (
{
pos = (-40,0);
ref = n;
}
);
};
layerId = m002;
shapes = (
{
closed = 1;
nodes = (
(467,0,l),
(110,500,l),
(2,500,l),
(359,0,l)
);
},
{
closed = 1;
nodes = (
(99,0,l),
(240,195,l),
(185,256,l),
(-4,0,l)
);
},
{
closed = 1;
nodes = (
(460,500,l),
(362,500,l),
(223,303,l),
(276,244,l)
);
}
);
width = 463;
}
);
unicode = 120;
}
{
glyphname = y;
kernLeft = y;
kernRight = y;
layers = (
{
anchors = (
{
name = bottom;
pos = (247,0);
},
{
name = top;
pos = (247,500);
}
);
background = {
shapes = (
{
pos = (2,0);
ref = v;
}
);
};
guides = (
{
angle = 90;
pos = (242,420);
}
);
layerId = m01;
shapes = (
{
closed = 1;
nodes = (
(221,-190,l),
(487,500,l),
(394,500,l),
(234,76,l),
(275,76,l),
(107,500,l),
(7,500,l),
(218,-24,l),
(212,28,l),
(127,-190,l)
);
}
);
width = 493;
}
);
unicode = 121;
}
{
glyphname = z;
kernLeft = z;
kernRight = z;
layers = (
{
anchors = (
{
name = bottom;
pos = (232,0);
},
{
name = center;
pos = (232,250);
},
{
name = top;
pos = (232,500);
}
);
background = {
shapes = (
{
pos = (-25,0);
ref = n;
}
);
};
layerId = m01;
shapes = (
{
closed = 1;
nodes = (
(425,0,l),
(425,78,l),
(108,78,l),
(143,62,l),
(419,434,l),
(419,500,l),
(41,500,l),
(41,422,l),
(333,422,l),
(309,436,l),
(35,66,l),
(35,0,l)
);
}
);
width = 455;
}
);
unicode = 122;
}
{
glyphname = copyright;
layers = (
{
background = {
anchors = (
{
name = bottom;
pos = (400,5);
},
{
name = top;
pos = (388,505);
}
);
shapes = (
{
closed = 1;
nodes = (
(481,162,o),
(541,218,o),
(544,307,c),
(470,307,l),
(470,255,o),
(444,221,o),
(396,221,cs),
(342,221,o),
(311,264,o),
(311,340,cs),
(311,416,o),
(341,458,o),
(398,458,cs),
(434,458,o),
(461,438,o),
(466,395,c),
(540,395,l),
(536,472,o),
(483,517,o),
(397,517,cs),
(298,517,o),
(232,457,o),
(232,339,cs),
(232,230,o),
(291,162,o),
(391,162,cs)
);
}
);
};
layerId = m01;
shapes = (
{
closed = 1;
nodes = (
(483,158,o),
(541,214,o),
(544,303,c),
(470,303,l),
(470,251,o),
(444,217,o),
(396,217,cs),
(340,217,o),
(308,260,o),
(308,336,cs),
(308,412,o),
(339,454,o),
(398,454,cs),
(434,454,o),
(461,434,o),
(466,391,c),
(540,391,l),
(534,467,o),
(483,513,o),
(397,513,cs),
(298,513,o),
(232,453,o),
(232,335,cs),
(232,226,o),
(291,158,o),
(391,158,cs)
);
},
{
closed = 1;
nodes = (
(595,-11,o),
(729,128,o),
(729,336,cs),
(729,544,o),
(595,682,o),
(393,682,cs),
(191,682,o),
(56,544,o),
(56,336,cs),
(56,128,o),
(191,-11,o),
(393,-11,cs)
);
},
{
closed = 1;
nodes = (
(219,41,o),
(112,153,o),
(112,336,cs),
(112,519,o),
(219,630,o),
(393,630,cs),
(566,630,o),
(673,519,o),
(673,336,cs),
(673,153,o),
(566,41,o),
(393,41,cs)
);
}
);
width = 785;
}
);
unicode = 169;
}
{
glyphname = eogonek;
kernLeft = o;
kernRight = e;
layers = (
{
anchors = (
{
name = bottom;
pos = (263,0);
},
{
name = ogonek;
pos = (356,2);
},
{
name = top;
pos = (263,500);
}
);
background = {
shapes = (
{
closed = 0;
nodes = (
(288,2,l),
(246,-33,o),
(219,-69,o),
(219,-119,cs),
(219,-174,o),
(270,-200,o),
(327,-200,cs),
(340,-200,o),
(354,-199,o),
(366,-196,c),
(366,-138,l),
(359,-139,o),
(351,-140,o),
(342,-140,cs),
(314,-140,o),
(291,-128,o),
(291,-93,cs),
(291,-59,o),
(310,-35,o),
(356,-8,cs),
(407,22,o),
(479,80,o),
(487,173,c),
(387,173,l),
(379,101,o),
(338,62,o),
(270,62,cs),
(179,62,o),
(136,130,o),
(136,250,cs),
(136,370,o),
(180,438,o),
(270,438,cs),
(347,438,o),
(389,385,o),
(391,300,c),
(399,304,l),
(119,304,l),
(119,228,l),
(491,228,l),
(491,262,ls),
(491,411,o),
(409,512,o),
(268,512,cs),
(121,512,o),
(38,405,o),
(38,248,cs),
(38,93,o),
(122,-12,o),
(268,-12,cs)
);
}
);
};
layerId = m01;
shapes = (
{
closed = 1;
nodes = (
(122,-12,o),
(38,93,o),
(38,248,cs),
(38,405,o),
(121,512,o),
(268,512,cs),
(409,512,o),
(491,411,o),
(491,262,cs),
(491,228,l),
(119,228,l),
(119,304,l),
(399,304,l),
(391,300,l),
(389,385,o),
(347,438,o),
(270,438,cs),
(180,438,o),
(136,370,o),
(136,250,cs),
(136,130,o),
(179,62,o),
(270,62,cs),
(338,62,o),
(379,101,o),
(387,173,c),
(487,173,l),
(474,86,o),
(427,43,o),
(386,8,cs),
(339,-32,o),
(323,-64,o),
(323,-92,cs),
(323,-128,o),
(346,-140,o),
(374,-140,cs),
(383,-140,o),
(391,-139,o),
(398,-138,c),
(398,-196,l),
(386,-199,o),
(372,-200,o),
(359,-200,cs),
(305,-200,o),
(256,-172,o),
(256,-112,cs),
(256,-66,o),
(281,-29,o),
(321,2,c),
(345,2,l),
(326,-5,o),
(297,-12,o),
(268,-12,c)
);
}
);
width = 528;
}
);
unicode = 281;
}
{
glyphname = idotless;
kernLeft = h;
kernRight = u;
layers = (
{
anchors = (
{
name = bottom;
pos = (111,0);
},
{
name = ogonek;
pos = (159,0);
},
{
name = top;
pos = (111,500);
}
);
layerId = m01;
shapes = (
{
closed = 1;
nodes = (
(159,0,l),
(159,500,l),
(63,500,l),
(63,0,l)
);
}
);
width = 222;
}
);
unicode = 305;
}
{
glyphname = jdotless;
kernLeft = j;
kernRight = u;
layers = (
{
anchors = (
{
name = bottom;
pos = (111,-190);
},
{
name = top;
pos = (111,500);
}
);
layerId = m01;
shapes = (
{
closed = 1;
nodes = (
(25,-190,ls),
(108,-190,o),
(159,-152,o),
(159,-62,cs),
(159,500,l),
(63,500,l),
(63,-67,ls),
(63,-99,o),
(46,-114,o),
(12,-114,cs),
(-31,-114,l),
(-31,-190,l)
);
}
);
width = 222;
},
{
anchors = (
{
name = bottom;
pos = (111,-190);
},
{
name = top;
pos = (111,500);
}
);
layerId = m002;
shapes = (
{
closed = 1;
nodes = (
(25,-190,ls),
(108,-190,o),
(159,-152,o),
(159,-62,cs),
(159,500,l),
(63,500,l),
(63,-67,ls),
(63,-99,o),
(46,-114,o),
(12,-114,cs),
(-31,-114,l),
(-31,-190,l)
);
}
);
width = 222;
}
);
metricRight = i;
unicode = 567;
}
{
glyphname = gravecomb;
layers = (
{
anchors = (
{
name = _top;
pos = (146,500);
},
{
name = top;
pos = (146,686);
}
);
layerId = m01;
shapes = (
{
closed = 1;
nodes = (
(134,690,l),
(15,690,l),
(118,558,l),
(203,558,l)
);
}
);
width = 300;
}
);
unicode = 768;
}
{
glyphname = acutecomb;
layers = (
{
anchors = (
{
name = _top;
pos = (146,500);
},
{
name = top;
pos = (146,686);
}
);
layerId = m01;
shapes = (
{
closed = 1;
nodes = (
(186,558,l),
(289,690,l),
(170,690,l),
(101,558,l)
);
}
);
width = 300;
}
);
unicode = 769;
}
{
glyphname = circumflexcomb;
layers = (
{
anchors = (
{
name = _top;
pos = (146,500);
},
{
name = top;
pos = (146,699);
}
);
layerId = m01;
shapes = (
{
closed = 1;
nodes = (
(80,560,l),
(181,680,l),
(115,680,l),
(216,560,l),
(299,560,l),
(199,700,l),
(97,700,l),
(-3,560,l)
);
}
);
width = 300;
},
{
anchors = (
{
name = _top;
pos = (146,500);
},
{
name = top;
pos = (146,699);
}
);
layerId = m002;
shapes = (
{
closed = 1;
nodes = (
(80,560,l),
(181,680,l),
(115,680,l),
(216,560,l),
(299,560,l),
(199,700,l),
(97,700,l),
(-3,560,l)
);
}
);
width = 300;
}
);
unicode = 770;
}
{
glyphname = macroncomb;
layers = (
{
anchors = (
{
name = _top;
pos = (201,500);
},
{
name = top;
pos = (201,654);
}
);
layerId = m01;
shapes = (
{
closed = 1;
nodes = (
(342,590,l),
(342,654,l),
(59,654,l),
(59,590,l)
);
}
);
width = 300;
}
);
unicode = 772;
}
{
glyphname = dotaccentcomb;
layers = (
{
anchors = (
{
name = _top;
pos = (155,500);
},
{
name = top;
pos = (155,697);
}
);
background = {
shapes = (
{
closed = 1;
nodes = (
(130,588,l),
(130,697,l),
(39,697,l),
(39,588,l)
);
},
{
closed = 1;
nodes = (
(270,588,l),
(270,697,l),
(179,697,l),
(179,588,l)
);
}
);
};
layerId = m01;
shapes = (
{
closed = 1;
nodes = (
(202,588,l),
(202,700,l),
(107,700,l),
(107,588,l)
);
}
);
width = 300;
},
{
anchors = (
{
name = _top;
pos = (155,520);
},
{
name = top;
pos = (155,697);
}
);
background = {
shapes = (
{
closed = 1;
nodes = (
(130,588,l),
(130,697,l),
(39,697,l),
(39,588,l)
);
},
{
closed = 1;
nodes = (
(270,588,l),
(270,697,l),
(179,697,l),
(179,588,l)
);
}
);
};
layerId = m002;
shapes = (
{
closed = 1;
nodes = (
(264,565,l),
(264,731,l),
(46,731,l),
(46,565,l)
);
}
);
width = 300;
}
);
unicode = 775;
}
{
glyphname = dieresiscomb;
layers = (
{
anchors = (
{
name = _top;
pos = (155,500);
},
{
name = top;
pos = (155,697);
}
);
layerId = m01;
shapes = (
{
closed = 1;
nodes = (
(130,588,l),
(130,697,l),
(39,697,l),
(39,588,l)
);
},
{
closed = 1;
nodes = (
(270,588,l),
(270,697,l),
(179,697,l),
(179,588,l)
);
}
);
width = 300;
}
);
unicode = 776;
}
{
glyphname = caroncomb;
layers = (
{
anchors = (
{
name = _top;
pos = (146,500);
},
{
name = top;
pos = (146,666);
}
);
background = {
shapes = (
{
ref = acutecomb;
}
);
};
layerId = m01;
shapes = (
{
closed = 1;
nodes = (
(199,558,l),
(287,680,l),
(198,680,l),
(148,614,l),
(98,680,l),
(9,680,l),
(97,558,l)
);
}
);
width = 300;
}
);
unicode = 780;
}
{
glyphname = cedillacomb;
layers = (
{
anchors = (
{
name = _bottom;
pos = (140,0);
},
{
name = bottom;
pos = (140,-202);
}
);
background = {
shapes = (
{
closed = 1;
nodes = (
(73,20,l),
(44,-95,l),
(104,-95,l),
(111,-82,o),
(119,-74,o),
(136,-74,cs),
(158,-74,o),
(171,-88,o),
(171,-114,cs),
(171,-141,o),
(158,-155,o),
(136,-155,cs),
(115,-155,o),
(102,-144,o),
(102,-120,c),
(33,-120,l),
(37,-171,o),
(69,-197,o),
(130,-197,cs),
(193,-197,o),
(239,-169,o),
(239,-109,cs),
(239,-58,o),
(205,-34,o),
(158,-34,cs),
(128,-34,o),
(108,-44,o),
(99,-67,c),
(111,-63,l),
(130,20,l)
);
}
);
};
layerId = m01;
shapes = (
{
closed = 1;
nodes = (
(73,20,l),
(37,-100,l),
(104,-100,l),
(108,-90,o),
(114,-84,o),
(127,-84,cs),
(143,-84,o),
(152,-95,o),
(152,-114,cs),
(152,-134,o),
(143,-145,o),
(127,-145,cs),
(112,-145,o),
(102,-136,o),
(102,-119,c),
(29,-120,l),
(29,-169,o),
(66,-197,o),
(130,-197,cs),
(193,-197,o),
(239,-169,o),
(239,-109,cs),
(239,-58,o),
(205,-34,o),
(158,-34,cs),
(128,-34,o),
(108,-44,o),
(99,-67,c),
(118,-63,l),
(143,20,l)
);
}
);
width = 300;
}
);
unicode = 807;
}
{
glyphname = ogonekcomb;
layers = (
{
anchors = (
{
name = _ogonek;
pos = (229,0);
}
);
layerId = m01;
shapes = (
{
closed = 1;
nodes = (
(207,-202,o),
(219,-201,o),
(230,-198,c),
(230,-134,l),
(224,-135,o),
(217,-136,o),
(209,-136,cs),
(182,-136,o),
(160,-123,o),
(160,-89,cs),
(160,-56,o),
(186,-24,o),
(229,0,c),
(161,0,l),
(118,-23,o),
(92,-65,o),
(92,-108,cs),
(92,-173,o),
(141,-202,o),
(195,-202,cs)
);
}
);
width = 300;
}
);
unicode = 808;
}
{
color = 6;
glyphname = "koKai-thai";
layers = (
{
anchors = (
{
name = bottom;
pos = (509,0);
},
{
name = top;
pos = (495,536);
}
);
background = {
shapes = (
{
closed = 1;
nodes = (
(165,0,l),
(165,176,ls),
(165,232,o),
(180,260,o),
(237,286,cs),
(248,291,l),
(248,340,l),
(132,371,l),
(137,341,l),
(137,350,ls),
(137,423,o),
(188,470,o),
(276,470,cs),
(363,470,o),
(411,423,o),
(411,346,cs),
(411,0,l),
(503,0,l),
(503,344,ls),
(503,466,o),
(419,544,o),
(278,544,cs),
(126,544,o),
(45,455,o),
(45,343,cs),
(45,332,l),
(205,296,l),
(188,312,l),
(169,307,ls),
(90,286,o),
(73,232,o),
(73,170,cs),
(73,0,l)
);
}
);
};
layerId = m01;
shapes = (
{
closed = 1;
nodes = (
(165,0,l),
(165,176,ls),
(165,232,o),
(175,264,o),
(248,291,c),
(248,340,l),
(132,371,l),
(137,341,l),
(137,350,ls),
(137,423,o),
(188,470,o),
(276,470,cs),
(363,470,o),
(411,423,o),
(411,346,cs),
(411,0,l),
(503,0,l),
(503,344,ls),
(503,466,o),
(416,544,o),
(275,544,cs),
(123,544,o),
(45,455,o),
(45,343,cs),
(45,332,l),
(205,296,l),
(185,307,l),
(91,286,o),
(73,244,o),
(73,170,cs),
(73,0,l)
);
}
);
width = 573;
},
{
anchors = (
{
name = bottom;
pos = (579,0);
},
{
name = top;
pos = (569,552);
}
);
background = {
shapes = (
{
pos = (-15,0);
ref = "boBaimai-thai";
}
);
};
layerId = m002;
shapes = (
{
closed = 1;
nodes = (
(258,0,l),
(258,160,ls),
(258,207,o),
(272,238,o),
(321,248,c),
(321,336,l),
(144,381,l),
(222,327,l),
(222,343,ls),
(222,385,o),
(249,410,o),
(292,410,cs),
(342,410,o),
(367,381,o),
(367,337,cs),
(367,0,l),
(579,0,l),
(579,322,ls),
(579,478,o),
(482,566,o),
(307,566,cs),
(133,566,o),
(28,471,o),
(28,328,cs),
(28,300,l),
(193,265,l),
(193,280,l),
(84,275,o),
(48,219,o),
(48,138,cs),
(48,0,l)
);
}
);
width = 611;
}
);
unicode = 3585;
}
{
color = 3;
glyphname = "khoKhai-thai";
layers = (
{
anchors = (
{
name = bottom;
pos = (450,0);
},
{
name = top;
pos = (461,536);
}
);
background = {
shapes = (
{
pos = (-73,0);
ref = "boBaimai-thai";
}
);
};
layerId = m01;
shapes = (
{
closed = 1;
nodes = (
(461,0,l),
(461,536,l),
(369,536,l),
(369,74,l),
(186,74,l),
(186,211,ls),
(186,327,o),
(261,340,o),
(261,440,cs),
(261,496,o),
(218,540,o),
(159,540,cs),
(91,540,o),
(49,499,o),
(49,438,cs),
(49,376,o),
(95,340,o),
(158,340,cs),
(195,340,o),
(225,356,o),
(240,383,c),
(156,353,l),
(116,320,o),
(94,274,o),
(94,202,cs),
(94,0,l)
);
},
{
closed = 1;
nodes = (
(128,393,o),
(111,411,o),
(111,438,cs),
(111,465,o),
(128,483,o),
(154,483,cs),
(180,483,o),
(197,465,o),
(197,438,cs),
(197,411,o),
(180,393,o),
(154,393,cs)
);
}
);
width = 542;
},
{
anchors = (
{
name = bottom;
pos = (450,0);
},
{
name = top;
pos = (461,536);
}
);
background = {
shapes = (
{
pos = (-73,0);
ref = "boBaimai-thai";
}
);
};
layerId = m002;
shapes = (
{
closed = 1;
nodes = (
(461,0,l),
(461,536,l),
(369,536,l),
(369,74,l),
(186,74,l),
(186,211,ls),
(186,327,o),
(261,340,o),
(261,440,cs),
(261,496,o),
(218,540,o),
(159,540,cs),
(91,540,o),
(49,499,o),
(49,438,cs),
(49,376,o),
(95,340,o),
(158,340,cs),
(195,340,o),
(225,356,o),
(240,383,c),
(156,353,l),
(116,320,o),
(94,274,o),
(94,202,cs),
(94,0,l)
);
},
{
closed = 1;
nodes = (
(128,393,o),
(111,411,o),
(111,438,cs),
(111,465,o),
(128,483,o),
(154,483,cs),
(180,483,o),
(197,465,o),
(197,438,cs),
(197,411,o),
(180,393,o),
(154,393,cs)
);
}
);
width = 542;
}
);
unicode = 3586;
}
{
glyphname = "khoKhuat-thai";
layers = (
{
anchors = (
{
name = bottom;
pos = (478,0);
},
{
name = top;
pos = (478,536);
}
);
background = {
shapes = (
{
pos = (-11,0);
ref = "boBaimai-thai";
}
);
};
layerId = m01;
shapes = (
{
closed = 1;
nodes = (
(478,0,l),
(478,536,l),
(386,536,l),
(386,74,l),
(200,74,l),
(200,202,ls),
(200,337,o),
(309,345,o),
(309,493,cs),
(309,536,l),
(237,536,l),
(237,499,ls),
(237,434,o),
(216,417,o),
(176,407,c),
(163,382,l),
(198,395,o),
(212,421,o),
(212,454,cs),
(212,508,o),
(175,544,o),
(117,544,cs),
(55,544,o),
(15,503,o),
(15,446,cs),
(15,385,o),
(62,347,o),
(124,347,cs),
(170,347,o),
(208,369,o),
(225,394,c),
(211,383,l),
(140,320,o),
(108,275,o),
(108,187,cs),
(108,0,l)
);
},
{
closed = 1;
nodes = (
(91,403,o),
(74,420,o),
(74,446,cs),
(74,472,o),
(91,490,o),
(116,490,cs),
(141,490,o),
(158,472,o),
(158,446,cs),
(158,420,o),
(141,403,o),
(116,403,cs)
);
}
);
width = 550;
},
{
anchors = (
{
name = bottom;
pos = (478,0);
},
{
name = top;
pos = (478,536);
}
);
background = {
shapes = (
{
pos = (-11,0);
ref = "boBaimai-thai";
}
);
};
layerId = m002;
shapes = (
{
closed = 1;
nodes = (
(478,0,l),
(478,536,l),
(386,536,l),
(386,74,l),
(200,74,l),
(200,202,ls),
(200,337,o),
(309,345,o),
(309,493,cs),
(309,536,l),
(237,536,l),
(237,499,ls),
(237,434,o),
(216,417,o),
(176,407,c),
(163,382,l),
(198,395,o),
(212,421,o),
(212,454,cs),
(212,508,o),
(175,544,o),
(117,544,cs),
(55,544,o),
(15,503,o),
(15,446,cs),
(15,385,o),
(62,347,o),
(124,347,cs),
(170,347,o),
(208,369,o),
(225,394,c),
(211,383,l),
(140,320,o),
(108,275,o),
(108,187,cs),
(108,0,l)
);
},
{
closed = 1;
nodes = (
(91,403,o),
(74,420,o),
(74,446,cs),
(74,472,o),
(91,490,o),
(116,490,cs),
(141,490,o),
(158,472,o),
(158,446,cs),
(158,420,o),
(141,403,o),
(116,403,cs)
);
}
);
width = 550;
}
);
metricRight = "boBaimai-thai";
unicode = 3587;
}
{
color = 3;
glyphname = "khoKhwai-thai";
layers = (
{
anchors = (
{
name = bottom;
pos = (528,0);
},
{
name = top;
pos = (518,536);
}
);
background = {
shapes = (
{
closed = 1;
nodes = (
(158,0,l),
(158,331,ls),
(158,419,o),
(208,470,o),
(295,470,cs),
(383,470,o),
(434,419,o),
(434,331,cs),
(434,0,l),
(526,0,l),
(526,329,ls),
(526,460,o),
(437,544,o),
(296,544,cs),
(154,544,o),
(66,460,o),
(66,329,cs),
(66,0,l)
);
},
{
closed = 0;
nodes = (
(212,192,l),
(229,167,o),
(259,152,o),
(295,152,cs),
(353,152,o),
(394,191,o),
(394,245,cs),
(394,299,o),
(353,338,o),
(295,338,cs),
(237,338,o),
(196,299,o),
(196,245,cs)
);
},
{
closed = 1;
nodes = (
(269,202,o),
(252,219,o),
(252,245,cs),
(252,271,o),
(269,288,o),
(294,288,cs),
(319,288,o),
(336,271,o),
(336,245,cs),
(336,219,o),
(319,202,o),
(294,202,cs)
);
}
);
};
layerId = m01;
shapes = (
{
closed = 1;
nodes = (
(158,0,l),
(158,331,ls),
(158,419,o),
(209,470,o),
(297,470,cs),
(386,470,o),
(438,419,o),
(438,331,cs),
(438,0,l),
(528,0,l),
(528,329,ls),
(528,460,o),
(439,544,o),
(298,544,cs),
(156,544,o),
(68,460,o),
(68,329,cs),
(68,0,l)
);
},
{
closed = 1;
nodes = (
(158,126,o),
(187,179,o),
(231,231,c),
(215,240,l),
(221,188,o),
(265,161,o),
(308,161,cs),
(363,161,o),
(404,200,o),
(404,254,cs),
(404,308,o),
(363,347,o),
(305,347,cs),
(230,347,o),
(169,265,o),
(149,199,c),
(158,62,l)
);
},
{
closed = 1;
nodes = (
(280,213,o),
(264,229,o),
(264,254,cs),
(264,279,o),
(280,295,o),
(304,295,cs),
(328,295,o),
(344,279,o),
(344,254,cs),
(344,229,o),
(328,213,o),
(304,213,cs)
);
}
);
width = 596;
}
);
metricLeft = "=|koKai-thai";
metricRight = "koKai-thai";
unicode = 3588;
}
{
glyphname = "khoKhon-thai";
layers = (
{
anchors = (
{
name = bottom;
pos = (533,0);
},
{
name = top;
pos = (523,536);
}
);
background = {
shapes = (
{
closed = 1;
nodes = (
(156,0,l),
(156,331,ls),
(156,419,o),
(209,470,o),
(300,470,cs),
(392,470,o),
(446,419,o),
(446,331,cs),
(446,0,l),
(536,0,l),
(536,329,ls),
(536,460,o),
(445,544,o),
(301,544,cs),
(156,544,o),
(66,460,o),
(66,329,cs),
(66,0,l)
);
},
{
closed = 1;
nodes = (
(156,126,o),
(185,179,o),
(229,231,c),
(213,240,l),
(219,188,o),
(263,161,o),
(306,161,cs),
(361,161,o),
(402,200,o),
(402,254,cs),
(402,308,o),
(361,347,o),
(303,347,cs),
(228,347,o),
(167,265,o),
(147,199,c),
(156,62,l)
);
},
{
closed = 1;
nodes = (
(278,213,o),
(262,229,o),
(262,254,cs),
(262,279,o),
(278,295,o),
(302,295,cs),
(326,295,o),
(342,279,o),
(342,254,cs),
(342,229,o),
(326,213,o),
(302,213,cs)
);
}
);
};
layerId = m01;
shapes = (
{
closed = 1;
nodes = (
(68,0,l),
(158,0,l),
(158,372,ls),
(158,444,o),
(183,465,o),
(227,475,c),
(191,475,l),
(295,402,l),
(310,402,l),
(415,479,l),
(379,475,l),
(423,465,o),
(448,444,o),
(448,372,cs),
(448,0,l),
(538,0,l),
(538,381,ls),
(538,498,o),
(476,540,o),
(400,547,c),
(291,467,l),
(315,467,l),
(208,547,l),
(130,540,o),
(68,498,o),
(68,381,cs)
);
},
{
closed = 1;
nodes = (
(158,121,o),
(188,173,o),
(234,224,c),
(218,233,l),
(224,181,o),
(268,154,o),
(311,154,cs),
(366,154,o),
(407,193,o),
(407,247,cs),
(407,301,o),
(366,340,o),
(308,340,cs),
(233,340,o),
(169,260,o),
(149,195,c),
(158,58,l)
);
},
{
closed = 1;
nodes = (
(283,206,o),
(267,222,o),
(267,247,cs),
(267,272,o),
(283,288,o),
(307,288,cs),
(331,288,o),
(347,272,o),
(347,247,cs),
(347,222,o),
(331,206,o),
(307,206,cs)
);
}
);
width = 610;
}
);
metricLeft = "khoKhwai-thai";
metricRight = "boBaimai-thai";
unicode = 3589;
}
{
glyphname = "khoRakhang-thai";
layers = (
{
anchors = (
{
name = bottom;
pos = (535,0);
},
{
name = top;
pos = (535,536);
}
);
background = {
shapes = (
{
pos = (18,0);
ref = "khoKhuat-thai";
}
);
};
layerId = m01;
shapes = (
{
closed = 1;
nodes = (
(535,0,l),
(535,536,l),
(443,536,l),
(443,58,l),
(448,84,l),
(410,152,o),
(329,191,o),
(241,199,c),
(254,159,l),
(254,243,ls),
(254,359,o),
(327,366,o),
(327,493,cs),
(327,536,l),
(255,536,l),
(255,499,ls),
(255,434,o),
(234,417,o),
(194,407,c),
(181,382,l),
(216,395,o),
(230,421,o),
(230,454,cs),
(230,508,o),
(193,544,o),
(135,544,cs),
(73,544,o),
(33,503,o),
(33,446,cs),
(33,386,o),
(77,349,o),
(134,349,cs),
(178,349,o),
(224,372,o),
(239,390,c),
(232,390,l),
(187,336,o),
(164,300,o),
(164,228,cs),
(164,191,l),
(202,177,l),
(240,133,l),
(319,130,o),
(390,90,o),
(431,0,c)
);
},
{
closed = 1;
nodes = (
(222,-5,o),
(267,39,o),
(267,99,cs),
(267,159,o),
(222,203,o),
(159,203,cs),
(95,203,o),
(49,159,o),
(49,99,cs),
(49,39,o),
(95,-5,o),
(159,-5,cs)
);
},
{
closed = 1;
nodes = (
(131,52,o),
(113,71,o),
(113,99,cs),
(113,127,o),
(131,146,o),
(158,146,cs),
(185,146,o),
(203,127,o),
(203,99,cs),
(203,71,o),
(185,52,o),
(158,52,cs)
);
},
{
closed = 1;
nodes = (
(109,403,o),
(92,420,o),
(92,446,cs),
(92,472,o),
(109,490,o),
(134,490,cs),
(159,490,o),
(176,472,o),
(176,446,cs),
(176,420,o),
(159,403,o),
(134,403,cs)
);
}
);
width = 607;
},
{
anchors = (
{
name = bottom;
pos = (535,0);
},
{
name = top;
pos = (535,536);
}
);
background = {
shapes = (
{
pos = (18,0);
ref = "khoKhuat-thai";
}
);
};
layerId = m002;
shapes = (
{
closed = 1;
nodes = (
(535,0,l),
(535,536,l),
(443,536,l),
(443,58,l),
(448,84,l),
(410,152,o),
(329,191,o),
(241,199,c),
(254,159,l),
(254,243,ls),
(254,359,o),
(327,366,o),
(327,493,cs),
(327,536,l),
(255,536,l),
(255,499,ls),
(255,434,o),
(234,417,o),
(194,407,c),
(181,382,l),
(216,395,o),
(230,421,o),
(230,454,cs),
(230,508,o),
(193,544,o),
(135,544,cs),
(73,544,o),
(33,503,o),
(33,446,cs),
(33,386,o),
(77,349,o),
(134,349,cs),
(178,349,o),
(224,372,o),
(239,390,c),
(232,390,l),
(187,336,o),
(164,300,o),
(164,228,cs),
(164,191,l),
(202,177,l),
(240,133,l),
(319,130,o),
(390,90,o),
(431,0,c)
);
},
{
closed = 1;
nodes = (
(222,-5,o),
(267,39,o),
(267,99,cs),
(267,159,o),
(222,203,o),
(159,203,cs),
(95,203,o),
(49,159,o),
(49,99,cs),
(49,39,o),
(95,-5,o),
(159,-5,cs)
);
},
{
closed = 1;
nodes = (
(131,52,o),
(113,71,o),
(113,99,cs),
(113,127,o),
(131,146,o),
(158,146,cs),
(185,146,o),
(203,127,o),
(203,99,cs),
(203,71,o),
(185,52,o),
(158,52,cs)
);
},
{
closed = 1;
nodes = (
(109,403,o),
(92,420,o),
(92,446,cs),
(92,472,o),
(109,490,o),
(134,490,cs),
(159,490,o),
(176,472,o),
(176,446,cs),
(176,420,o),
(159,403,o),
(134,403,cs)
);
}
);
width = 607;
}
);
metricRight = "moMa-thai";
unicode = 3590;
}
{
color = 3;
glyphname = "ngoNgu-thai";
layers = (
{
anchors = (
{
name = bottom;
pos = (402,0);
},
{
name = top;
pos = (402,536);
}
);
background = {
shapes = (
{
pos = (-132,0);
ref = "boBaimai-thai";
}
);
};
layerId = m01;
shapes = (
{
closed = 1;
nodes = (
(402,0,l),
(402,438,ls),
(402,497,o),
(358,540,o),
(297,540,cs),
(235,540,o),
(190,497,o),
(190,437,cs),
(190,378,o),
(235,336,o),
(297,336,cs),
(335,336,o),
(374,356,o),
(389,384,c),
(310,368,l),
(310,74,l),
(213,74,l),
(225,51,l),
(115,353,l),
(21,353,l),
(150,0,l)
);
},
{
closed = 1;
nodes = (
(269,393,o),
(252,411,o),
(252,438,cs),
(252,465,o),
(269,483,o),
(295,483,cs),
(321,483,o),
(338,465,o),
(338,438,cs),
(338,411,o),
(321,393,o),
(295,393,cs)
);
}
);
width = 474;
},
{
anchors = (
{
name = bottom;
pos = (402,0);
},
{
name = top;
pos = (402,536);
}
);
background = {
shapes = (
{
pos = (-132,0);
ref = "boBaimai-thai";
}
);
};
layerId = m002;
shapes = (
{
closed = 1;
nodes = (
(402,0,l),
(402,438,ls),
(402,497,o),
(358,540,o),
(297,540,cs),
(235,540,o),
(190,497,o),
(190,437,cs),
(190,378,o),
(235,336,o),
(297,336,cs),
(335,336,o),
(374,356,o),
(389,384,c),
(310,368,l),
(310,74,l),
(213,74,l),
(225,51,l),
(115,353,l),
(21,353,l),
(150,0,l)
);
},
{
closed = 1;
nodes = (
(269,393,o),
(252,411,o),
(252,438,cs),
(252,465,o),
(269,483,o),
(295,483,cs),
(321,483,o),
(338,465,o),
(338,438,cs),
(338,411,o),
(321,393,o),
(295,393,cs)
);
}
);
width = 474;
}
);
unicode = 3591;
}
{
color = 3;
glyphname = "choChan-thai";
layers = (
{
anchors = (
{
name = bottom;
pos = (441,0);
},
{
name = top;
pos = (460,536);
}
);
background = {
shapes = (
{
pos = (-51,30);
ref = o;
}
);
};
layerId = m01;
shapes = (
{
closed = 1;
nodes = (
(312,0,l),
(401,48,o),
(468,140,o),
(468,292,cs),
(468,467,o),
(379,545,o),
(241,545,cs),
(113,545,o),
(28,474,o),
(25,361,c),
(117,361,l),
(119,428,o),
(164,471,o),
(241,471,cs),
(325,471,o),
(376,420,o),
(376,288,cs),
(376,188,o),
(348,113,o),
(293,81,c),
(303,65,l),
(269,250,ls),
(258,311,o),
(217,335,o),
(167,335,cs),
(107,335,o),
(63,293,o),
(63,237,cs),
(63,181,o),
(107,141,o),
(167,141,cs),
(203,141,o),
(241,160,o),
(255,186,c),
(202,172,l),
(236,0,l)
);
},
{
closed = 1;
nodes = (
(140,195,o),
(124,212,o),
(124,237,cs),
(124,262,o),
(140,279,o),
(165,279,cs),
(190,279,o),
(206,262,o),
(206,237,cs),
(206,212,o),
(190,195,o),
(165,195,cs)
);
}
);
width = 522;
}
);
unicode = 3592;
}
{
color = 3;
glyphname = "choChing-thai";
layers = (
{
anchors = (
{
name = bottom;
pos = (520,0);
},
{
name = top;
pos = (515,536);
}
);
background = {
shapes = (
{
pos = (3,0);
ref = "oAng-thai";
}
);
};
layerId = m01;
shapes = (
{
closed = 1;
nodes = (
(136,202,o),
(120,219,o),
(120,245,cs),
(120,270,o),
(136,287,o),
(161,287,cs),
(185,287,o),
(201,270,o),
(201,245,cs),
(201,219,o),
(185,202,o),
(161,202,cs)
);
},
{
closed = 1;
nodes = (
(521,161,l),
(521,354,ls),
(521,475,o),
(433,546,o),
(294,546,cs),
(153,546,o),
(63,475,o),
(55,369,c),
(150,369,l),
(156,434,o),
(207,472,o),
(292,472,cs),
(378,472,o),
(429,429,o),
(429,355,cs),
(429,161,l)
);
},
{
closed = 1;
nodes = (
(262,90,l),
(262,245,ls),
(262,301,o),
(220,341,o),
(163,341,cs),
(104,341,o),
(61,300,o),
(61,244,cs),
(61,188,o),
(104,148,o),
(163,148,cs),
(199,148,o),
(235,167,o),
(250,193,c),
(172,180,l),
(172,0,l),
(272,0,l),
(294,72,o),
(344,130,o),
(388,135,c),
(441,208,l),
(354,205,o),
(280,160,o),
(250,76,c)
);
},
{
closed = 1;
nodes = (
(535,-5,o),
(580,39,o),
(580,99,cs),
(580,159,o),
(535,203,o),
(472,203,cs),
(408,203,o),
(362,159,o),
(362,99,cs),
(362,39,o),
(408,-5,o),
(472,-5,cs)
);
},
{
closed = 1;
nodes = (
(444,52,o),
(426,71,o),
(426,99,cs),
(426,127,o),
(444,146,o),
(471,146,cs),
(498,146,o),
(516,127,o),
(516,99,cs),
(516,71,o),
(498,52,o),
(471,52,cs)
);
}
);
width = 609;
}
);
metricRight = "noNu-thai";
unicode = 3593;
}
{
glyphname = "choChang-thai";
layers = (
{
anchors = (
{
name = bottom;
pos = (469,0);
},
{
name = top;
pos = (469,536);
}
);
background = {
shapes = (
{
ref = "khoKhai-thai";
}
);
};
layerId = m01;
shapes = (
{
closed = 1;
nodes = (
(467,0,l),
(467,265,ls),
(467,335,o),
(434,378,o),
(366,384,c),
(376,377,l),
(443,391,o),
(478,427,o),
(478,495,cs),
(478,536,l),
(389,536,l),
(389,494,ls),
(389,448,o),
(368,416,o),
(319,416,cs),
(300,416,l),
(300,341,l),
(313,341,ls),
(361,341,o),
(375,317,o),
(375,270,cs),
(375,74,l),
(186,74,l),
(186,211,ls),
(186,327,o),
(261,340,o),
(261,440,cs),
(261,496,o),
(218,540,o),
(159,540,cs),
(91,540,o),
(49,499,o),
(49,438,cs),
(49,376,o),
(95,340,o),
(158,340,cs),
(195,340,o),
(225,356,o),
(240,383,c),
(156,353,l),
(116,320,o),
(94,274,o),
(94,202,cs),
(94,0,l)
);
},
{
closed = 1;
nodes = (
(128,393,o),
(111,411,o),
(111,438,cs),
(111,465,o),
(128,483,o),
(154,483,cs),
(180,483,o),
(197,465,o),
(197,438,cs),
(197,411,o),
(180,393,o),
(154,393,cs)
);
}
);
width = 536;
}
);
metricLeft = "khoKhai-thai";
unicode = 3594;
}
{
glyphname = "soSo-thai";
layers = (
{
anchors = (
{
name = bottom;
pos = (487,0);
},
{
name = top;
pos = (487,536);
}
);
background = {
shapes = (
{
closed = 1;
nodes = (
(424,-8,o),
(495,62,o),
(495,170,cs),
(495,258,ls),
(495,334,o),
(463,376,o),
(392,384,c),
(387,372,l),
(450,387,o),
(505,429,o),
(505,550,c),
(407,550,l),
(407,453,o),
(388,417,o),
(326,404,c),
(326,353,l),
(379,343,o),
(399,312,o),
(399,245,cs),
(399,163,ls),
(399,80,o),
(354,52,o),
(295,52,cs),
(220,52,o),
(188,96,o),
(188,167,cs),
(188,201,ls),
(188,333,o),
(302,348,o),
(302,493,cs),
(302,536,l),
(250,536,l),
(242,477,o),
(225,447,o),
(207,437,c),
(217,434,l),
(217,452,ls),
(217,513,o),
(181,544,o),
(123,544,cs),
(62,544,o),
(22,508,o),
(22,449,cs),
(22,385,o),
(69,355,o),
(125,355,cs),
(176,355,o),
(217,384,o),
(235,420,c),
(198,382,l),
(130,322,o),
(90,264,o),
(90,194,cs),
(90,160,ls),
(90,49,o),
(169,-8,o),
(289,-8,cs)
);
},
{
closed = 1;
nodes = (
(100,403,o),
(85,422,o),
(85,449,cs),
(85,477,o),
(100,495,o),
(123,495,cs),
(147,495,o),
(162,477,o),
(162,449,cs),
(162,422,o),
(147,403,o),
(123,403,cs)
);
}
);
};
layerId = m01;
shapes = (
{
closed = 1;
nodes = (
(488,0,l),
(488,269,ls),
(488,339,o),
(455,382,o),
(387,388,c),
(397,381,l),
(464,395,o),
(499,431,o),
(499,499,cs),
(499,544,l),
(410,544,l),
(410,498,ls),
(410,452,o),
(389,420,o),
(340,420,cs),
(327,420,l),
(327,345,l),
(334,345,ls),
(382,345,o),
(396,321,o),
(396,274,cs),
(396,74,l),
(200,74,l),
(200,202,ls),
(200,337,o),
(309,345,o),
(309,493,cs),
(309,536,l),
(239,536,l),
(239,499,ls),
(239,434,o),
(217,417,o),
(176,407,c),
(163,382,l),
(198,395,o),
(212,421,o),
(212,454,cs),
(212,508,o),
(175,544,o),
(117,544,cs),
(55,544,o),
(15,503,o),
(15,446,cs),
(15,385,o),
(62,347,o),
(124,347,cs),
(181,347,o),
(228,389,o),
(249,435,c),
(211,388,l),
(140,323,o),
(108,277,o),
(108,187,cs),
(108,0,l)
);
},
{
closed = 1;
nodes = (
(91,403,o),
(74,420,o),
(74,446,cs),
(74,472,o),
(91,490,o),
(116,490,cs),
(141,490,o),
(158,472,o),
(158,446,cs),
(158,420,o),
(141,403,o),
(116,403,cs)
);
}
);
width = 557;
}
);
metricLeft = "khoKhuat-thai";
metricRight = "choChang-thai";
unicode = 3595;
}
{
glyphname = "choChoe-thai";
layers = (
{
anchors = (
{
name = bottom;
pos = (773,0);
},
{
name = top;
pos = (773,536);
}
);
background = {
anchors = (
{
name = bottom;
pos = (511,0);
},
{
name = top;
pos = (501,536);
}
);
shapes = (
{
closed = 1;
nodes = (
(69,37,o),
(113,-6,o),
(174,-6,cs),
(236,-6,o),
(281,37,o),
(281,97,cs),
(281,156,o),
(236,198,o),
(174,198,cs),
(136,198,o),
(97,178,o),
(82,150,c),
(161,166,l),
(161,193,ls),
(161,223,o),
(174,240,o),
(206,256,cs),
(254,280,l),
(254,329,l),
(109,367,l),
(145,341,l),
(145,350,ls),
(145,423,o),
(196,470,o),
(284,470,cs),
(371,470,o),
(419,423,o),
(419,346,cs),
(419,0,l),
(511,0,l),
(511,344,ls),
(511,466,o),
(424,544,o),
(286,544,cs),
(134,544,o),
(53,455,o),
(53,343,cs),
(53,321,l),
(180,292,l),
(196,302,l),
(162,293,ls),
(88,273,o),
(69,228,o),
(69,170,cs),
(69,96,ls)
);
},
{
closed = 1;
nodes = (
(202,141,o),
(219,123,o),
(219,96,cs),
(219,69,o),
(202,51,o),
(176,51,cs),
(150,51,o),
(133,69,o),
(133,96,cs),
(133,123,o),
(150,141,o),
(176,141,cs)
);
}
);
};
layerId = m01;
shapes = (
{
closed = 1;
nodes = (
(238,-6,o),
(283,37,o),
(283,97,cs),
(283,156,o),
(238,198,o),
(176,198,cs),
(138,198,o),
(99,178,o),
(84,150,c),
(163,166,l),
(163,193,ls),
(163,223,o),
(176,240,o),
(208,256,cs),
(256,280,l),
(256,329,l),
(111,367,l),
(147,341,l),
(147,350,ls),
(147,425,o),
(196,470,o),
(281,470,cs),
(365,470,o),
(412,425,o),
(412,350,cs),
(412,191,l),
(450,177,l),
(488,133,l),
(562,130,o),
(628,90,o),
(667,0,c),
(771,0,l),
(771,536,l),
(681,536,l),
(681,58,l),
(684,84,l),
(649,152,o),
(571,191,o),
(489,199,c),
(502,159,l),
(502,348,ls),
(502,468,o),
(417,544,o),
(283,544,cs),
(134,544,o),
(55,457,o),
(55,343,cs),
(55,321,l),
(182,292,l),
(198,302,l),
(164,293,ls),
(90,273,o),
(71,228,o),
(71,170,cs),
(71,96,ls),
(71,37,o),
(115,-6,o),
(176,-6,cs)
);
},
{
closed = 1;
nodes = (
(510,-7,o),
(555,37,o),
(555,97,cs),
(555,157,o),
(510,201,o),
(447,201,cs),
(383,201,o),
(337,157,o),
(337,97,cs),
(337,37,o),
(383,-7,o),
(447,-7,cs)
);
},
{
closed = 1;
nodes = (
(152,51,o),
(135,69,o),
(135,96,cs),
(135,123,o),
(152,141,o),
(178,141,cs),
(204,141,o),
(221,123,o),
(221,96,cs),
(221,69,o),
(204,51,o),
(178,51,cs)
);
},
{
closed = 1;
nodes = (
(419,50,o),
(401,69,o),
(401,97,cs),
(401,125,o),
(419,144,o),
(446,144,cs),
(473,144,o),
(491,125,o),
(491,97,cs),
(491,69,o),
(473,50,o),
(446,50,cs)
);
}
);
width = 843;
},
{
anchors = (
{
name = bottom;
pos = (773,0);
},
{
name = top;
pos = (773,536);
}
);
background = {
anchors = (
{
name = bottom;
pos = (511,0);
},
{
name = top;
pos = (501,536);
}
);
shapes = (
{
closed = 1;
nodes = (
(69,37,o),
(113,-6,o),
(174,-6,cs),
(236,-6,o),
(281,37,o),
(281,97,cs),
(281,156,o),
(236,198,o),
(174,198,cs),
(136,198,o),
(97,178,o),
(82,150,c),
(161,166,l),
(161,193,ls),
(161,223,o),
(174,240,o),
(206,256,cs),
(254,280,l),
(254,329,l),
(109,367,l),
(145,341,l),
(145,350,ls),
(145,423,o),
(196,470,o),
(284,470,cs),
(371,470,o),
(419,423,o),
(419,346,cs),
(419,0,l),
(511,0,l),
(511,344,ls),
(511,466,o),
(424,544,o),
(286,544,cs),
(134,544,o),
(53,455,o),
(53,343,cs),
(53,321,l),
(180,292,l),
(196,302,l),
(162,293,ls),
(88,273,o),
(69,228,o),
(69,170,cs),
(69,96,ls)
);
},
{
closed = 1;
nodes = (
(202,141,o),
(219,123,o),
(219,96,cs),
(219,69,o),
(202,51,o),
(176,51,cs),
(150,51,o),
(133,69,o),
(133,96,cs),
(133,123,o),
(150,141,o),
(176,141,cs)
);
}
);
};
layerId = m002;
shapes = (
{
closed = 1;
nodes = (
(238,-6,o),
(283,37,o),
(283,97,cs),
(283,156,o),
(238,198,o),
(176,198,cs),
(138,198,o),
(99,178,o),
(84,150,c),
(163,166,l),
(163,193,ls),
(163,223,o),
(176,240,o),
(208,256,cs),
(256,280,l),
(256,329,l),
(111,367,l),
(147,341,l),
(147,350,ls),
(147,425,o),
(196,470,o),
(281,470,cs),
(365,470,o),
(412,425,o),
(412,350,cs),
(412,191,l),
(450,177,l),
(488,133,l),
(562,130,o),
(628,90,o),
(667,0,c),
(771,0,l),
(771,536,l),
(681,536,l),
(681,58,l),
(684,84,l),
(649,152,o),
(571,191,o),
(489,199,c),
(502,159,l),
(502,348,ls),
(502,468,o),
(417,544,o),
(283,544,cs),
(134,544,o),
(55,457,o),
(55,343,cs),
(55,321,l),
(182,292,l),
(198,302,l),
(164,293,ls),
(90,273,o),
(71,228,o),
(71,170,cs),
(71,96,ls),
(71,37,o),
(115,-6,o),
(176,-6,cs)
);
},
{
closed = 1;
nodes = (
(510,-7,o),
(555,37,o),
(555,97,cs),
(555,157,o),
(510,201,o),
(447,201,cs),
(383,201,o),
(337,157,o),
(337,97,cs),
(337,37,o),
(383,-7,o),
(447,-7,cs)
);
},
{
closed = 1;
nodes = (
(152,51,o),
(135,69,o),
(135,96,cs),
(135,123,o),
(152,141,o),
(178,141,cs),
(204,141,o),
(221,123,o),
(221,96,cs),
(221,69,o),
(204,51,o),
(178,51,cs)
);
},
{
closed = 1;
nodes = (
(419,50,o),
(401,69,o),
(401,97,cs),
(401,125,o),
(419,144,o),
(446,144,cs),
(473,144,o),
(491,125,o),
(491,97,cs),
(491,69,o),
(473,50,o),
(446,50,cs)
);
}
);
width = 843;
}
);
metricLeft = "thoThung-thai";
metricRight = "moMa-thai";
unicode = 3596;
}
{
glyphname = "yoYing-thai";
layers = (
{
anchors = (
{
name = bottom;
pos = (793,-248);
},
{
name = top;
pos = (793,536);
}
);
background = {
shapes = (
{
closed = 1;
nodes = (
(676,-242,o),
(745,-178,o),
(750,-62,c),
(658,-62,l),
(655,-142,o),
(627,-189,o),
(573,-189,cs),
(554,-189,o),
(546,-184,o),
(534,-174,c),
(519,-194,l),
(558,-189,o),
(581,-160,o),
(581,-120,cs),
(581,-70,o),
(545,-36,o),
(486,-36,cs),
(426,-36,o),
(388,-71,o),
(388,-127,cs),
(388,-205,o),
(464,-242,o),
(555,-242,cs)
);
},
{
closed = 1;
nodes = (
(465,-165,o),
(451,-150,o),
(451,-124,cs),
(451,-99,o),
(465,-83,o),
(486,-83,cs),
(507,-83,o),
(520,-99,o),
(520,-124,cs),
(520,-150,o),
(507,-165,o),
(486,-165,cs)
);
}
);
};
layerId = m01;
shapes = (
{
closed = 1;
nodes = (
(702,-254,o),
(788,-175,o),
(788,-54,c),
(704,-54,l),
(704,-136,o),
(662,-189,o),
(584,-189,cs),
(570,-189,o),
(546,-188,o),
(529,-180,c),
(465,-193,l),
(475,-202,o),
(497,-210,o),
(516,-210,cs),
(565,-209,o),
(593,-171,o),
(593,-131,cs),
(593,-80,o),
(555,-48,o),
(504,-48,cs),
(443,-48,o),
(409,-90,o),
(409,-137,cs),
(409,-207,o),
(484,-254,o),
(581,-254,cs)
);
},
{
closed = 1;
nodes = (
(479,-174,o),
(463,-158,o),
(463,-134,cs),
(463,-110,o),
(479,-94,o),
(502,-94,cs),
(525,-94,o),
(541,-110,o),
(541,-134,cs),
(541,-158,o),
(525,-174,o),
(502,-174,cs)
);
},
{
ref = "yoYing-thai.less";
}
);
width = 865;
},
{
anchors = (
{
name = bottom;
pos = (793,-248);
},
{
name = top;
pos = (793,536);
}
);
background = {
shapes = (
{
closed = 1;
nodes = (
(676,-242,o),
(745,-178,o),
(750,-62,c),
(658,-62,l),
(655,-142,o),
(627,-189,o),
(573,-189,cs),
(554,-189,o),
(546,-184,o),
(534,-174,c),
(519,-194,l),
(558,-189,o),
(581,-160,o),
(581,-120,cs),
(581,-70,o),
(545,-36,o),
(486,-36,cs),
(426,-36,o),
(388,-71,o),
(388,-127,cs),
(388,-205,o),
(464,-242,o),
(555,-242,cs)
);
},
{
closed = 1;
nodes = (
(465,-165,o),
(451,-150,o),
(451,-124,cs),
(451,-99,o),
(465,-83,o),
(486,-83,cs),
(507,-83,o),
(520,-99,o),
(520,-124,cs),
(520,-150,o),
(507,-165,o),
(486,-165,cs)
);
}
);
};
layerId = m002;
shapes = (
{
closed = 1;
nodes = (
(702,-254,o),
(788,-175,o),
(788,-54,c),
(704,-54,l),
(704,-136,o),
(662,-189,o),
(584,-189,cs),
(570,-189,o),
(546,-188,o),
(529,-180,c),
(465,-193,l),
(475,-202,o),
(497,-210,o),
(516,-210,cs),
(565,-209,o),
(593,-171,o),
(593,-131,cs),
(593,-80,o),
(555,-48,o),
(504,-48,cs),
(443,-48,o),
(409,-90,o),
(409,-137,cs),
(409,-207,o),
(484,-254,o),
(581,-254,cs)
);
},
{
closed = 1;
nodes = (
(479,-174,o),
(463,-158,o),
(463,-134,cs),
(463,-110,o),
(479,-94,o),
(502,-94,cs),
(525,-94,o),
(541,-110,o),
(541,-134,cs),
(541,-158,o),
(525,-174,o),
(502,-174,cs)
);
},
{
ref = "yoYing-thai.less";
}
);
width = 865;
}
);
metricLeft = "thoThung-thai";
metricRight = "boBaimai-thai";
unicode = 3597;
}
{
glyphname = "doChada-thai";
layers = (
{
anchors = (
{
name = bottom;
pos = (542,-235);
},
{
name = top;
pos = (532,536);
}
);
background = {
shapes = (
{
closed = 1;
nodes = (
(100,51,o),
(83,69,o),
(83,96,cs),
(83,123,o),
(100,141,o),
(126,141,cs),
(152,141,o),
(169,123,o),
(169,96,cs),
(169,69,o),
(152,51,o),
(126,51,cs)
);
},
{
closed = 1;
nodes = (
(357,-129,o),
(357,-14,c),
(289,-14,l),
(289,-99,o),
(275,-181,o),
(207,-181,cs),
(180,-181,o),
(162,-168,o),
(162,-147,cs),
(162,-120,o),
(188,-107,o),
(221,-107,cs),
(250,-107,o),
(285,-117,o),
(306,-135,c),
(355,-155,o),
(398,-189,o),
(426,-235,c),
(540,-235,l),
(540,344,ls),
(540,466,o),
(453,544,o),
(315,544,cs),
(161,544,o),
(79,455,o),
(79,343,cs),
(79,322,l),
(223,289,l),
(244,302,l),
(195,288,l),
(155,276,o),
(137,248,o),
(137,211,cs),
(137,166,l),
(220,150,l),
(205,178,o),
(166,198,o),
(128,198,cs),
(66,198,o),
(21,156,o),
(21,97,cs),
(21,37,o),
(66,-6,o),
(128,-6,cs),
(187,-6,o),
(229,37,o),
(229,96,cs),
(229,205,ls),
(229,243,o),
(245,253,o),
(266,265,cs),
(290,278,l),
(290,329,l),
(146,366,l),
(171,341,l),
(171,350,ls),
(171,423,o),
(223,470,o),
(313,470,cs),
(400,470,o),
(448,423,o),
(448,346,cs),
(448,-195,l),
(461,-195,l),
(438,-147,o),
(382,-97,o),
(320,-77,c),
(294,-58,o),
(257,-49,o),
(220,-49,cs),
(140,-49,o),
(95,-89,o),
(95,-148,cs),
(95,-208,o),
(139,-239,o),
(201,-239,cs),
(314,-239,o)
);
}
);
};
layerId = m01;
shapes = (
{
closed = 1;
nodes = (
(450,24,l),
(450,-195,l),
(463,-195,l),
(440,-147,o),
(384,-97,o),
(322,-77,c),
(296,-58,o),
(259,-49,o),
(222,-49,cs),
(142,-49,o),
(97,-89,o),
(97,-148,cs),
(97,-208,o),
(141,-239,o),
(203,-239,cs),
(316,-239,o),
(359,-129,o),
(359,-14,c),
(291,-14,l),
(291,-99,o),
(277,-181,o),
(209,-181,cs),
(182,-181,o),
(164,-168,o),
(164,-147,cs),
(164,-120,o),
(190,-107,o),
(223,-107,cs),
(252,-107,o),
(287,-117,o),
(308,-135,c),
(357,-155,o),
(400,-189,o),
(428,-235,c),
(542,-235,l),
(542,24,l)
);
},
{
ref = "phoSamphao-thai";
}
);
width = 610;
}
);
metricLeft = "phoSamphao-thai";
metricRight = "phoSamphao-thai";
unicode = 3598;
}
{
glyphname = "toPatak-thai";
layers = (
{
anchors = (
{
name = bottom;
pos = (542,-235);
},
{
name = top;
pos = (532,536);
}
);
background = {
shapes = (
{
closed = 1;
nodes = (
(288,-99,o),
(294,-67,o),
(294,-24,c),
(230,-24,l),
(230,-46,o),
(228,-65,o),
(225,-76,c),
(275,-126,l)
);
},
{
closed = 1;
nodes = (
(540,344,ls),
(540,466,o),
(453,544,o),
(315,544,cs),
(161,544,o),
(79,455,o),
(79,343,cs),
(79,325,l),
(262,292,l),
(244,302,l),
(216,294,ls),
(154,276,o),
(137,243,o),
(137,201,cs),
(137,166,l),
(220,150,l),
(205,178,o),
(166,198,o),
(128,198,cs),
(66,198,o),
(21,156,o),
(21,97,cs),
(21,37,o),
(66,-6,o),
(128,-6,cs),
(187,-6,o),
(229,37,o),
(229,96,cs),
(229,194,ls),
(229,238,o),
(247,257,o),
(281,272,cs),
(307,284,l),
(307,340,l),
(143,371,l),
(171,341,l),
(171,350,ls),
(171,423,o),
(223,470,o),
(313,470,cs),
(400,470,o),
(448,423,o),
(448,346,cs),
(448,-204,l),
(457,-199,l),
(393,-95,l),
(353,-95,l),
(313,-188,l),
(328,-183,l),
(294,-94,o),
(232,-52,o),
(162,-52,cs),
(94,-52,o),
(49,-89,o),
(49,-147,cs),
(49,-207,o),
(92,-237,o),
(148,-237,cs),
(213,-237,o),
(247,-197,o),
(262,-145,c),
(247,-134,o),
(232,-124,o),
(217,-113,c),
(207,-157,o),
(183,-182,o),
(153,-182,cs),
(129,-182,o),
(113,-168,o),
(113,-146,cs),
(113,-122,o),
(132,-106,o),
(163,-106,cs),
(208,-106,o),
(265,-147,o),
(292,-235,c),
(339,-235,l),
(380,-141,l),
(366,-144,l),
(424,-235,l),
(540,-235,l)
);
},
{
closed = 1;
nodes = (
(152,141,o),
(169,123,o),
(169,96,cs),
(169,69,o),
(152,51,o),
(126,51,cs),
(100,51,o),
(83,69,o),
(83,96,cs),
(83,123,o),
(100,141,o),
(126,141,cs)
);
}
);
};
layerId = m01;
shapes = (
{
closed = 1;
nodes = (
(450,33,l),
(450,-204,l),
(459,-199,l),
(395,-95,l),
(355,-95,l),
(315,-188,l),
(330,-183,l),
(312,-137,o),
(287,-103,o),
(256,-86,c),
(230,-72,o),
(199,-67,o),
(166,-67,cs),
(99,-67,o),
(55,-102,o),
(55,-157,cs),
(55,-213,o),
(103,-241,o),
(154,-241,cs),
(242,-241,o),
(299,-167,o),
(299,-34,c),
(235,-34,l),
(235,-132,o),
(213,-187,o),
(159,-187,cs),
(134,-187,o),
(119,-175,o),
(119,-156,cs),
(119,-135,o),
(137,-121,o),
(167,-121,cs),
(189,-121,o),
(214,-127,o),
(235,-141,c),
(259,-159,o),
(280,-191,o),
(294,-235,c),
(341,-235,l),
(382,-141,l),
(368,-144,l),
(426,-235,l),
(542,-235,l),
(542,33,l)
);
},
{
ref = "phoSamphao-thai";
}
);
width = 610;
}
);
metricRight = "phoSamphao-thai";
unicode = 3599;
}
{
glyphname = "thoThan-thai";
layers = (
{
anchors = (
{
name = top;
pos = (473,536);
}
);
background = {
shapes = (
{
closed = 1;
nodes = (
(402,-154,ls),
(402,-162,o),
(398,-168,o),
(387,-168,cs),
(328,-168,l),
(353,-187,l),
(313,-117,l),
(272,-117,l),
(242,-175,l),
(258,-170,l),
(234,-105,o),
(188,-65,o),
(124,-65,cs),
(66,-65,o),
(31,-97,o),
(31,-147,cs),
(31,-195,o),
(65,-225,o),
(121,-225,cs),
(164,-225,o),
(200,-196,o),
(214,-160,c),
(179,-129,l),
(170,-155,o),
(148,-174,o),
(123,-174,cs),
(102,-174,o),
(91,-162,o),
(91,-145,cs),
(91,-126,o),
(106,-115,o),
(127,-115,cs),
(170,-115,o),
(199,-155,o),
(222,-221,c),
(268,-221,l),
(307,-153,l),
(278,-152,l),
(314,-221,l),
(400,-221,ls),
(445,-221,o),
(467,-199,o),
(467,-153,cs),
(467,-79,ls),
(467,-39,o),
(435,-7,o),
(393,-7,cs),
(348,-7,o),
(315,-39,o),
(315,-79,cs),
(315,-120,o),
(346,-150,o),
(389,-150,cs),
(411,-150,o),
(435,-135,o),
(444,-116,c),
(402,-120,l)
);
},
{
closed = 1;
nodes = (
(246,-111,o),
(252,-80,o),
(253,-37,c),
(197,-37,l),
(197,-58,o),
(195,-78,o),
(192,-89,c),
(228,-139,l)
);
},
{
closed = 1;
nodes = (
(126,160,o),
(109,178,o),
(109,204,cs),
(109,230,o),
(126,248,o),
(152,248,cs),
(178,248,o),
(195,230,o),
(195,204,cs),
(195,178,o),
(178,160,o),
(152,160,cs)
);
},
{
closed = 1;
nodes = (
(445,283,o),
(426,335,o),
(376,366,cs),
(330,394,o),
(257,407,o),
(118,407,c),
(136,349,l),
(136,401,ls),
(136,444,o),
(173,471,o),
(235,471,cs),
(298,471,o),
(341,446,o),
(400,446,cs),
(419,446,o),
(433,450,o),
(447,456,c),
(447,531,l),
(430,526,o),
(417,524,o),
(403,524,cs),
(351,524,o),
(313,546,o),
(235,546,cs),
(109,546,o),
(44,481,o),
(44,388,cs),
(44,337,l),
(61,336,l),
(181,336,o),
(259,333,o),
(302,313,cs),
(348,292,o),
(359,254,o),
(359,215,cs),
(359,155,o),
(330,101,o),
(292,69,c),
(253,69,l),
(300,65,l),
(256,217,ls),
(239,277,o),
(204,302,o),
(154,302,cs),
(94,302,o),
(50,260,o),
(50,204,cs),
(50,148,o),
(94,108,o),
(154,108,cs),
(190,108,o),
(228,127,o),
(242,153,c),
(190,139,l),
(233,0,l),
(321,0,l),
(373,36,o),
(445,122,o),
(445,221,cs)
);
},
{
closed = 1;
nodes = (
(372,-110,o),
(360,-98,o),
(360,-79,cs),
(360,-60,o),
(372,-48,o),
(391,-48,cs),
(408,-48,o),
(421,-60,o),
(421,-79,cs),
(421,-98,o),
(408,-110,o),
(391,-110,cs)
);
}
);
};
layerId = m01;
shapes = (
{
closed = 1;
nodes = (
(167,-223,o),
(202,-196,o),
(216,-158,c),
(181,-127,l),
(172,-155,o),
(150,-176,o),
(125,-176,cs),
(104,-176,o),
(93,-164,o),
(93,-147,cs),
(93,-128,o),
(108,-117,o),
(129,-117,cs),
(172,-117,o),
(201,-155,o),
(224,-219,c),
(270,-219,l),
(309,-151,l),
(280,-150,l),
(316,-219,l),
(402,-219,ls),
(447,-219,o),
(469,-197,o),
(469,-151,cs),
(469,-77,ls),
(469,-37,o),
(437,-5,o),
(395,-5,cs),
(350,-5,o),
(317,-37,o),
(317,-77,cs),
(317,-118,o),
(348,-148,o),
(391,-148,cs),
(413,-148,o),
(437,-133,o),
(446,-114,c),
(404,-118,l),
(404,-152,ls),
(404,-160,o),
(400,-166,o),
(389,-166,cs),
(330,-166,l),
(355,-185,l),
(315,-115,l),
(274,-115,l),
(244,-173,l),
(257,-168,l),
(234,-106,o),
(189,-71,o),
(129,-71,cs),
(74,-71,o),
(41,-102,o),
(41,-149,cs),
(41,-194,o),
(74,-223,o),
(127,-223,cs)
);
},
{
closed = 1;
nodes = (
(248,-113,o),
(254,-82,o),
(255,-39,c),
(201,-39,l),
(201,-60,o),
(199,-80,o),
(196,-91,c),
(230,-141,l)
);
},
{
closed = 1;
nodes = (
(375,-106,o),
(364,-95,o),
(364,-77,cs),
(364,-59,o),
(375,-48,o),
(393,-48,cs),
(409,-48,o),
(421,-59,o),
(421,-77,cs),
(421,-95,o),
(409,-106,o),
(393,-106,cs)
);
},
{
ref = "thoThan-thai.less";
}
);
width = 512;
},
{
anchors = (
{
name = top;
pos = (473,536);
}
);
background = {
shapes = (
{
closed = 1;
nodes = (
(402,-154,ls),
(402,-162,o),
(398,-168,o),
(387,-168,cs),
(328,-168,l),
(353,-187,l),
(313,-117,l),
(272,-117,l),
(242,-175,l),
(258,-170,l),
(234,-105,o),
(188,-65,o),
(124,-65,cs),
(66,-65,o),
(31,-97,o),
(31,-147,cs),
(31,-195,o),
(65,-225,o),
(121,-225,cs),
(164,-225,o),
(200,-196,o),
(214,-160,c),
(179,-129,l),
(170,-155,o),
(148,-174,o),
(123,-174,cs),
(102,-174,o),
(91,-162,o),
(91,-145,cs),
(91,-126,o),
(106,-115,o),
(127,-115,cs),
(170,-115,o),
(199,-155,o),
(222,-221,c),
(268,-221,l),
(307,-153,l),
(278,-152,l),
(314,-221,l),
(400,-221,ls),
(445,-221,o),
(467,-199,o),
(467,-153,cs),
(467,-79,ls),
(467,-39,o),
(435,-7,o),
(393,-7,cs),
(348,-7,o),
(315,-39,o),
(315,-79,cs),
(315,-120,o),
(346,-150,o),
(389,-150,cs),
(411,-150,o),
(435,-135,o),
(444,-116,c),
(402,-120,l)
);
},
{
closed = 1;
nodes = (
(246,-111,o),
(252,-80,o),
(253,-37,c),
(197,-37,l),
(197,-58,o),
(195,-78,o),
(192,-89,c),
(228,-139,l)
);
},
{
closed = 1;
nodes = (
(126,160,o),
(109,178,o),
(109,204,cs),
(109,230,o),
(126,248,o),
(152,248,cs),
(178,248,o),
(195,230,o),
(195,204,cs),
(195,178,o),
(178,160,o),
(152,160,cs)
);
},
{
closed = 1;
nodes = (
(445,283,o),
(426,335,o),
(376,366,cs),
(330,394,o),
(257,407,o),
(118,407,c),
(136,349,l),
(136,401,ls),
(136,444,o),
(173,471,o),
(235,471,cs),
(298,471,o),
(341,446,o),
(400,446,cs),
(419,446,o),
(433,450,o),
(447,456,c),
(447,531,l),
(430,526,o),
(417,524,o),
(403,524,cs),
(351,524,o),
(313,546,o),
(235,546,cs),
(109,546,o),
(44,481,o),
(44,388,cs),
(44,337,l),
(61,336,l),
(181,336,o),
(259,333,o),
(302,313,cs),
(348,292,o),
(359,254,o),
(359,215,cs),
(359,155,o),
(330,101,o),
(292,69,c),
(253,69,l),
(300,65,l),
(256,217,ls),
(239,277,o),
(204,302,o),
(154,302,cs),
(94,302,o),
(50,260,o),
(50,204,cs),
(50,148,o),
(94,108,o),
(154,108,cs),
(190,108,o),
(228,127,o),
(242,153,c),
(190,139,l),
(233,0,l),
(321,0,l),
(373,36,o),
(445,122,o),
(445,221,cs)
);
},
{
closed = 1;
nodes = (
(372,-110,o),
(360,-98,o),
(360,-79,cs),
(360,-60,o),
(372,-48,o),
(391,-48,cs),
(408,-48,o),
(421,-60,o),
(421,-79,cs),
(421,-98,o),
(408,-110,o),
(391,-110,cs)
);
}
);
};
layerId = m002;
shapes = (
{
closed = 1;
nodes = (
(167,-223,o),
(202,-196,o),
(216,-158,c),
(181,-127,l),
(172,-155,o),
(150,-176,o),
(125,-176,cs),
(104,-176,o),
(93,-164,o),
(93,-147,cs),
(93,-128,o),
(108,-117,o),
(129,-117,cs),
(172,-117,o),
(201,-155,o),
(224,-219,c),
(270,-219,l),
(309,-151,l),
(280,-150,l),
(316,-219,l),
(402,-219,ls),
(447,-219,o),
(469,-197,o),
(469,-151,cs),
(469,-77,ls),
(469,-37,o),
(437,-5,o),
(395,-5,cs),
(350,-5,o),
(317,-37,o),
(317,-77,cs),
(317,-118,o),
(348,-148,o),
(391,-148,cs),
(413,-148,o),
(437,-133,o),
(446,-114,c),
(404,-118,l),
(404,-152,ls),
(404,-160,o),
(400,-166,o),
(389,-166,cs),
(330,-166,l),
(355,-185,l),
(315,-115,l),
(274,-115,l),
(244,-173,l),
(257,-168,l),
(234,-106,o),
(189,-71,o),
(129,-71,cs),
(74,-71,o),
(41,-102,o),
(41,-149,cs),
(41,-194,o),
(74,-223,o),
(127,-223,cs)
);
},
{
closed = 1;
nodes = (
(248,-113,o),
(254,-82,o),
(255,-39,c),
(201,-39,l),
(201,-60,o),
(199,-80,o),
(196,-91,c),
(230,-141,l)
);
},
{
closed = 1;
nodes = (
(375,-106,o),
(364,-95,o),
(364,-77,cs),
(364,-59,o),
(375,-48,o),
(393,-48,cs),
(409,-48,o),
(421,-59,o),
(421,-77,cs),
(421,-95,o),
(409,-106,o),
(393,-106,cs)
);
},
{
ref = "thoThan-thai.less";
}
);
width = 512;
}
);
unicode = 3600;
}
{
glyphname = "thoNangmontho-thai";
layers = (
{
anchors = (
{
name = bottom;
pos = (531,0);
},
{
name = top;
pos = (531,536);
}
);
background = {
shapes = (
{
pos = (-13,0);
ref = "thoThahan-thai";
}
);
};
layerId = m01;
shapes = (
{
closed = 1;
nodes = (
(215,0,l),
(215,210,ls),
(215,272,o),
(220,295,o),
(282,362,cs),
(331,415,ls),
(368,456,o),
(386,465,o),
(404,465,cs),
(429,465,o),
(439,451,o),
(439,417,cs),
(439,0,l),
(531,0,l),
(531,439,ls),
(531,506,o),
(495,543,o),
(436,543,cs),
(369,543,o),
(338,506,o),
(288,447,c),
(282,393,l),
(297,418,o),
(310,448,o),
(310,493,cs),
(310,536,l),
(244,536,l),
(244,499,ls),
(244,440,o),
(222,424,o),
(181,415,c),
(168,382,l),
(203,395,o),
(217,421,o),
(217,454,cs),
(217,508,o),
(180,544,o),
(122,544,cs),
(60,544,o),
(20,503,o),
(20,446,cs),
(20,386,o),
(69,348,o),
(134,348,cs),
(189,348,o),
(235,384,o),
(249,403,c),
(224,387,l),
(190,353,ls),
(132,295,o),
(123,263,o),
(123,215,cs),
(123,0,l)
);
},
{
closed = 1;
nodes = (
(96,403,o),
(79,420,o),
(79,446,cs),
(79,472,o),
(96,490,o),
(121,490,cs),
(146,490,o),
(163,472,o),
(163,446,cs),
(163,420,o),
(146,403,o),
(121,403,cs)
);
}
);
width = 603;
}
);
metricRight = "thoThahan-thai";
unicode = 3601;
}
{
glyphname = "thoPhuthao-thai";
layers = (
{
anchors = (
{
name = bottom;
pos = (808,0);
},
{
name = top;
pos = (808,536);
}
);
layerId = m01;
shapes = (
{
closed = 1;
nodes = (
(217,0,l),
(217,33,ls),
(217,47,o),
(223,56,o),
(233,65,cs),
(308,136,ls),
(353,178,o),
(391,215,o),
(391,271,cs),
(391,319,o),
(351,358,o),
(294,358,cs),
(236,358,o),
(195,319,o),
(195,265,cs),
(195,212,o),
(236,182,o),
(283,178,c),
(271,190,l),
(201,125,ls),
(196,120,o),
(191,113,o),
(190,105,c),
(201,110,l),
(158,167,o),
(136,233,o),
(136,293,cs),
(136,375,o),
(166,449,o),
(223,475,c),
(191,475,l),
(295,402,l),
(310,402,l),
(415,479,l),
(379,475,l),
(423,465,o),
(448,444,o),
(448,372,cs),
(448,191,l),
(487,177,l),
(525,133,l),
(599,130,o),
(665,90,o),
(704,0,c),
(808,0,l),
(808,536,l),
(718,536,l),
(718,58,l),
(721,84,l),
(686,152,o),
(608,191,o),
(526,199,c),
(538,160,l),
(538,381,ls),
(538,498,o),
(476,540,o),
(400,547,c),
(291,467,l),
(315,467,l),
(208,547,l),
(110,529,o),
(46,429,o),
(46,292,cs),
(46,213,o),
(75,128,o),
(135,53,c),
(125,147,l),
(125,0,l)
);
},
{
closed = 1;
nodes = (
(269,224,o),
(253,240,o),
(253,265,cs),
(253,290,o),
(269,306,o),
(293,306,cs),
(317,306,o),
(333,290,o),
(333,265,cs),
(333,240,o),
(317,224,o),
(293,224,cs)
);
},
{
closed = 1;
nodes = (
(547,-7,o),
(592,37,o),
(592,97,cs),
(592,157,o),
(547,201,o),
(484,201,cs),
(420,201,o),
(374,157,o),
(374,97,cs),
(374,37,o),
(420,-7,o),
(484,-7,cs)
);
},
{
closed = 1;
nodes = (
(456,50,o),
(438,69,o),
(438,97,cs),
(438,125,o),
(456,144,o),
(483,144,cs),
(510,144,o),
(528,125,o),
(528,97,cs),
(528,69,o),
(510,50,o),
(483,50,cs)
);
}
);
width = 880;
},
{
anchors = (
{
name = bottom;
pos = (808,0);
},
{
name = top;
pos = (808,536);
}
);
layerId = m002;
shapes = (
{
closed = 1;
nodes = (
(217,0,l),
(217,33,ls),
(217,47,o),
(223,56,o),
(233,65,cs),
(308,136,ls),
(353,178,o),
(391,215,o),
(391,271,cs),
(391,319,o),
(351,358,o),
(294,358,cs),
(236,358,o),
(195,319,o),
(195,265,cs),
(195,212,o),
(236,182,o),
(283,178,c),
(271,190,l),
(201,125,ls),
(196,120,o),
(191,113,o),
(190,105,c),
(201,110,l),
(158,167,o),
(136,233,o),
(136,293,cs),
(136,375,o),
(166,449,o),
(223,475,c),
(191,475,l),
(295,402,l),
(310,402,l),
(415,479,l),
(379,475,l),
(423,465,o),
(448,444,o),
(448,372,cs),
(448,191,l),
(487,177,l),
(525,133,l),
(599,130,o),
(665,90,o),
(704,0,c),
(808,0,l),
(808,536,l),
(718,536,l),
(718,58,l),
(721,84,l),
(686,152,o),
(608,191,o),
(526,199,c),
(538,160,l),
(538,381,ls),
(538,498,o),
(476,540,o),
(400,547,c),
(291,467,l),
(315,467,l),
(208,547,l),
(110,529,o),
(46,429,o),
(46,292,cs),
(46,213,o),
(75,128,o),
(135,53,c),
(125,147,l),
(125,0,l)
);
},
{
closed = 1;
nodes = (
(269,224,o),
(253,240,o),
(253,265,cs),
(253,290,o),
(269,306,o),
(293,306,cs),
(317,306,o),
(333,290,o),
(333,265,cs),
(333,240,o),
(317,224,o),
(293,224,cs)
);
},
{
closed = 1;
nodes = (
(547,-7,o),
(592,37,o),
(592,97,cs),
(592,157,o),
(547,201,o),
(484,201,cs),
(420,201,o),
(374,157,o),
(374,97,cs),
(374,37,o),
(420,-7,o),
(484,-7,cs)
);
},
{
closed = 1;
nodes = (
(456,50,o),
(438,69,o),
(438,97,cs),
(438,125,o),
(456,144,o),
(483,144,cs),
(510,144,o),
(528,125,o),
(528,97,cs),
(528,69,o),
(510,50,o),
(483,50,cs)
);
}
);
width = 880;
}
);
metricLeft = "toTao-thai";
metricRight = "moMa-thai";
unicode = 3602;
}
{
glyphname = "noNen-thai";
layers = (
{
anchors = (
{
name = bottom;
pos = (782,0);
},
{
name = top;
pos = (782,536);
}
);
background = {
anchors = (
{
name = bottom;
pos = (511,0);
},
{
name = top;
pos = (501,536);
}
);
shapes = (
{
closed = 1;
nodes = (
(69,37,o),
(113,-6,o),
(174,-6,cs),
(236,-6,o),
(281,37,o),
(281,97,cs),
(281,156,o),
(236,198,o),
(174,198,cs),
(136,198,o),
(97,178,o),
(82,150,c),
(161,166,l),
(161,193,ls),
(161,223,o),
(174,240,o),
(206,256,cs),
(254,280,l),
(254,329,l),
(109,367,l),
(145,341,l),
(145,350,ls),
(145,423,o),
(196,470,o),
(284,470,cs),
(371,470,o),
(419,423,o),
(419,346,cs),
(419,0,l),
(511,0,l),
(511,344,ls),
(511,466,o),
(424,544,o),
(286,544,cs),
(134,544,o),
(53,455,o),
(53,343,cs),
(53,321,l),
(180,292,l),
(196,302,l),
(162,293,ls),
(88,273,o),
(69,228,o),
(69,170,cs),
(69,96,ls)
);
},
{
closed = 1;
nodes = (
(202,141,o),
(219,123,o),
(219,96,cs),
(219,69,o),
(202,51,o),
(176,51,cs),
(150,51,o),
(133,69,o),
(133,96,cs),
(133,123,o),
(150,141,o),
(176,141,cs)
);
}
);
};
layerId = m01;
shapes = (
{
closed = 1;
nodes = (
(238,-6,o),
(283,37,o),
(283,97,cs),
(283,156,o),
(238,198,o),
(176,198,cs),
(138,198,o),
(99,178,o),
(84,150,c),
(163,166,l),
(163,193,ls),
(163,223,o),
(176,240,o),
(208,256,cs),
(256,280,l),
(256,329,l),
(111,367,l),
(147,341,l),
(147,350,ls),
(147,425,o),
(196,470,o),
(281,470,cs),
(365,470,o),
(412,425,o),
(412,350,cs),
(412,0,l),
(512,0,l),
(541,74,o),
(598,134,o),
(650,139,c),
(703,208,l),
(607,205,o),
(525,160,o),
(492,76,c),
(502,53,l),
(502,348,ls),
(502,468,o),
(417,544,o),
(283,544,cs),
(134,544,o),
(55,457,o),
(55,343,cs),
(55,321,l),
(182,292,l),
(198,302,l),
(164,293,ls),
(90,273,o),
(71,228,o),
(71,170,cs),
(71,96,ls),
(71,37,o),
(115,-6,o),
(176,-6,cs)
);
},
{
closed = 1;
nodes = (
(152,51,o),
(135,69,o),
(135,96,cs),
(135,123,o),
(152,141,o),
(178,141,cs),
(204,141,o),
(221,123,o),
(221,96,cs),
(221,69,o),
(204,51,o),
(178,51,cs)
);
},
{
closed = 1;
nodes = (
(797,-5,o),
(842,39,o),
(842,99,cs),
(842,159,o),
(797,203,o),
(734,203,cs),
(670,203,o),
(624,159,o),
(624,99,cs),
(624,39,o),
(670,-5,o),
(734,-5,cs)
);
},
{
closed = 1;
nodes = (
(705,50,o),
(686,70,o),
(686,99,cs),
(686,128,o),
(705,148,o),
(733,148,cs),
(761,148,o),
(780,128,o),
(780,99,cs),
(780,70,o),
(761,50,o),
(733,50,cs)
);
},
{
closed = 1;
nodes = (
(782,536,l),
(692,536,l),
(692,179,l),
(782,175,l)
);
}
);
width = 871;
}
);
metricLeft = "thoThung-thai";
metricRight = "noNu-thai";
unicode = 3603;
}
{
color = 6;
glyphname = "doDek-thai";
layers = (
{
anchors = (
{
name = bottom;
pos = (528,0);
},
{
name = top;
pos = (518,536);
}
);
background = {
shapes = (
{
closed = 1;
nodes = (
(200,0,l),
(200,33,ls),
(200,47,o),
(207,55,o),
(216,65,cs),
(300,146,ls),
(343,190,o),
(384,225,o),
(384,278,cs),
(384,329,o),
(344,368,o),
(287,368,cs),
(229,368,o),
(188,329,o),
(188,275,cs),
(188,222,o),
(229,192,o),
(276,188,c),
(266,199,l),
(190,127,ls),
(185,122,o),
(180,115,o),
(179,107,c),
(184,110,l),
(151,166,o),
(134,231,o),
(134,290,cs),
(134,390,o),
(183,474,o),
(297,474,cs),
(385,474,o),
(436,425,o),
(436,339,cs),
(436,0,l),
(526,0,l),
(526,340,ls),
(526,468,o),
(440,548,o),
(297,548,cs),
(125,548,o),
(42,429,o),
(42,289,cs),
(42,211,o),
(67,127,o),
(118,53,c),
(108,147,l),
(108,0,l)
);
},
{
closed = 1;
nodes = (
(261,232,o),
(244,249,o),
(244,275,cs),
(244,301,o),
(261,318,o),
(286,318,cs),
(311,318,o),
(328,301,o),
(328,275,cs),
(328,249,o),
(311,232,o),
(286,232,cs)
);
}
);
};
layerId = m01;
shapes = (
{
closed = 1;
nodes = (
(217,0,l),
(217,33,ls),
(217,47,o),
(224,54,o),
(233,65,cs),
(311,153,ls),
(352,200,o),
(394,232,o),
(394,288,cs),
(394,336,o),
(354,375,o),
(297,375,cs),
(239,375,o),
(198,336,o),
(198,282,cs),
(198,229,o),
(231,192,o),
(278,188,c),
(266,207,l),
(194,126,ls),
(189,121,o),
(184,114,o),
(183,106,c),
(201,110,l),
(158,166,o),
(136,231,o),
(136,290,cs),
(136,390,o),
(183,474,o),
(296,474,cs),
(385,474,o),
(438,422,o),
(438,331,cs),
(438,0,l),
(528,0,l),
(528,332,ls),
(528,465,o),
(440,548,o),
(296,548,cs),
(126,548,o),
(46,429,o),
(46,289,cs),
(46,211,o),
(75,127,o),
(135,53,c),
(129,147,l),
(129,0,l)
);
},
{
closed = 1;
nodes = (
(272,241,o),
(256,257,o),
(256,282,cs),
(256,307,o),
(272,323,o),
(296,323,cs),
(320,323,o),
(336,307,o),
(336,282,cs),
(336,257,o),
(320,241,o),
(296,241,cs)
);
}
);
width = 596;
}
);
metricRight = "loLing-thai";
unicode = 3604;
}
{
color = 6;
glyphname = "toTao-thai";
layers = (
{
anchors = (
{
name = bottom;
pos = (538,0);
},
{
name = top;
pos = (538,536);
}
);
background = {
shapes = (
{
ref = "doDek-thai";
}
);
};
layerId = m01;
shapes = (
{
closed = 1;
nodes = (
(273,229,o),
(257,245,o),
(257,270,cs),
(257,295,o),
(273,311,o),
(297,311,cs),
(321,311,o),
(337,295,o),
(337,270,cs),
(337,245,o),
(321,229,o),
(297,229,cs)
);
},
{
closed = 1;
nodes = (
(315,467,l),
(208,547,l),
(110,529,o),
(46,429,o),
(46,292,cs),
(46,213,o),
(75,128,o),
(135,53,c),
(129,147,l),
(129,0,l),
(217,0,l),
(217,27,ls),
(217,41,o),
(224,49,o),
(233,59,cs),
(322,151,ls),
(368,199,o),
(395,229,o),
(395,276,cs),
(395,324,o),
(355,363,o),
(298,363,cs),
(240,363,o),
(199,324,o),
(199,270,cs),
(199,217,o),
(240,187,o),
(287,183,c),
(270,195,l),
(201,125,ls),
(196,120,o),
(191,113,o),
(190,105,c),
(201,110,l),
(158,167,o),
(136,233,o),
(136,293,cs),
(136,375,o),
(166,449,o),
(223,475,c),
(191,475,l),
(295,402,l),
(310,402,l),
(415,479,l),
(379,475,l),
(423,465,o),
(448,444,o),
(448,372,cs),
(448,0,l),
(538,0,l),
(538,381,ls),
(538,498,o),
(476,540,o),
(400,547,c),
(291,467,l)
);
}
);
width = 610;
}
);
metricLeft = "doDek-thai";
metricRight = "boBaimai-thai";
unicode = 3605;
}
{
glyphname = "thoThung-thai";
layers = (
{
anchors = (
{
name = bottom;
pos = (513,0);
},
{
name = top;
pos = (503,536);
}
);
background = {
shapes = (
{
pos = (7,0);
ref = "koKai-thai";
}
);
};
layerId = m01;
shapes = (
{
closed = 1;
nodes = (
(235,-6,o),
(279,37,o),
(279,97,cs),
(279,156,o),
(235,198,o),
(174,198,cs),
(137,198,o),
(99,178,o),
(84,150,c),
(159,166,l),
(159,181,ls),
(159,246,o),
(176,261,o),
(252,290,c),
(252,339,l),
(111,377,l),
(147,341,l),
(147,350,ls),
(147,423,o),
(198,470,o),
(286,470,cs),
(373,470,o),
(421,423,o),
(421,346,cs),
(421,0,l),
(513,0,l),
(513,344,ls),
(513,466,o),
(426,544,o),
(288,544,cs),
(136,544,o),
(55,455,o),
(55,343,cs),
(55,330,l),
(179,302,l),
(188,308,l),
(92,283,o),
(71,256,o),
(71,170,cs),
(71,96,ls),
(71,37,o),
(114,-6,o),
(174,-6,cs)
);
},
{
closed = 1;
nodes = (
(150,51,o),
(133,69,o),
(133,96,cs),
(133,123,o),
(150,141,o),
(176,141,cs),
(202,141,o),
(219,123,o),
(219,96,cs),
(219,69,o),
(202,51,o),
(176,51,cs)
);
}
);
width = 581;
}
);
metricRight = "koKai-thai";
unicode = 3606;
}
{
color = 3;
glyphname = "thoThahan-thai";
layers = (
{
anchors = (
{
name = bottom;
pos = (544,0);
},
{
name = top;
pos = (544,536);
}
);
background = {
shapes = (
{
ref = "boBaimai-thai";
}
);
};
layerId = m01;
shapes = (
{
closed = 1;
nodes = (
(544,0,l),
(544,447,ls),
(544,512,o),
(507,542,o),
(450,542,cs),
(397,542,o),
(373,511,o),
(349,462,cs),
(251,264,ls),
(234,229,o),
(224,185,o),
(221,152,c),
(230,48,l),
(230,73,o),
(238,91,o),
(246,108,cs),
(404,428,ls),
(412,445,o),
(419,454,o),
(432,454,cs),
(448,454,o),
(452,443,o),
(452,429,cs),
(452,0,l)
);
},
{
closed = 1;
nodes = (
(230,0,l),
(230,438,ls),
(230,497,o),
(186,540,o),
(125,540,cs),
(63,540,o),
(18,497,o),
(18,437,cs),
(18,378,o),
(63,336,o),
(125,336,cs),
(163,336,o),
(202,356,o),
(217,384,c),
(140,368,l),
(140,0,l)
);
},
{
closed = 1;
nodes = (
(97,393,o),
(80,411,o),
(80,438,cs),
(80,465,o),
(97,483,o),
(123,483,cs),
(149,483,o),
(166,465,o),
(166,438,cs),
(166,411,o),
(149,393,o),
(123,393,cs)
);
}
);
width = 616;
},
{
anchors = (
{
name = bottom;
pos = (544,0);
},
{
name = top;
pos = (544,536);
}
);
background = {
shapes = (
{
ref = "boBaimai-thai";
}
);
};
layerId = m002;
shapes = (
{
closed = 1;
nodes = (
(544,0,l),
(544,447,ls),
(544,512,o),
(507,542,o),
(450,542,cs),
(397,542,o),
(373,511,o),
(349,462,cs),
(251,264,ls),
(234,229,o),
(224,185,o),
(221,152,c),
(230,48,l),
(230,73,o),
(238,91,o),
(246,108,cs),
(404,428,ls),
(412,445,o),
(419,454,o),
(432,454,cs),
(448,454,o),
(452,443,o),
(452,429,cs),
(452,0,l)
);
},
{
closed = 1;
nodes = (
(230,0,l),
(230,438,ls),
(230,497,o),
(186,540,o),
(125,540,cs),
(63,540,o),
(18,497,o),
(18,437,cs),
(18,378,o),
(63,336,o),
(125,336,cs),
(163,336,o),
(202,356,o),
(217,384,c),
(140,368,l),
(140,0,l)
);
},
{
closed = 1;
nodes = (
(97,393,o),
(80,411,o),
(80,438,cs),
(80,465,o),
(97,483,o),
(123,483,cs),
(149,483,o),
(166,465,o),
(166,438,cs),
(166,411,o),
(149,393,o),
(123,393,cs)
);
}
);
width = 616;
}
);
metricLeft = "boBaimai-thai";
metricRight = "boBaimai-thai";
unicode = 3607;
}
{
glyphname = "thoThong-thai";
layers = (
{
anchors = (
{
name = bottom;
pos = (474,0);
},
{
name = top;
pos = (468,536);
}
);
background = {
shapes = (
{
pos = (-60,0);
ref = "roRua-thai";
}
);
};
layerId = m01;
shapes = (
{
closed = 1;
nodes = (
(474,328,o),
(392,374,o),
(251,374,cs),
(126,374,l),
(142,349,l),
(142,381,ls),
(142,436,o),
(184,471,o),
(254,471,cs),
(315,471,o),
(359,445,o),
(417,445,cs),
(437,445,o),
(452,449,o),
(467,456,c),
(467,531,l),
(449,525,o),
(435,523,o),
(420,523,cs),
(374,523,o),
(322,546,o),
(254,546,cs),
(120,546,o),
(50,473,o),
(50,368,cs),
(50,300,l),
(220,300,ls),
(312,300,o),
(382,294,o),
(382,199,cs),
(382,74,l),
(173,74,l),
(173,255,l),
(83,255,l),
(83,0,l),
(474,0,l),
(474,206,ls)
);
}
);
width = 533;
}
);
unicode = 3608;
}
{
color = 3;
glyphname = "noNu-thai";
layers = (
{
anchors = (
{
name = bottom;
pos = (520,0);
},
{
name = top;
pos = (520,536);
}
);
background = {
shapes = (
{
ref = "boBaimai-thai";
}
);
};
layerId = m01;
shapes = (
{
closed = 1;
nodes = (
(238,0,l),
(269,74,o),
(331,134,o),
(388,139,c),
(441,208,l),
(340,205,o),
(253,160,o),
(218,76,c),
(230,53,l),
(230,438,ls),
(230,497,o),
(186,540,o),
(125,540,cs),
(63,540,o),
(18,497,o),
(18,437,cs),
(18,378,o),
(63,336,o),
(125,336,cs),
(163,336,o),
(202,356,o),
(217,384,c),
(138,368,l),
(138,0,l)
);
},
{
closed = 1;
nodes = (
(96,391,o),
(78,410,o),
(78,438,cs),
(78,466,o),
(96,485,o),
(123,485,cs),
(150,485,o),
(168,466,o),
(168,438,cs),
(168,410,o),
(150,391,o),
(123,391,cs)
);
},
{
closed = 1;
nodes = (
(535,-5,o),
(580,39,o),
(580,99,cs),
(580,159,o),
(535,203,o),
(472,203,cs),
(408,203,o),
(362,159,o),
(362,99,cs),
(362,39,o),
(408,-5,o),
(472,-5,cs)
);
},
{
closed = 1;
nodes = (
(443,50,o),
(424,70,o),
(424,99,cs),
(424,128,o),
(443,148,o),
(471,148,cs),
(499,148,o),
(518,128,o),
(518,99,cs),
(518,70,o),
(499,50,o),
(471,50,cs)
);
},
{
closed = 1;
nodes = (
(520,536,l),
(428,536,l),
(428,179,l),
(520,175,l)
);
}
);
width = 609;
},
{
anchors = (
{
name = bottom;
pos = (520,0);
},
{
name = top;
pos = (520,536);
}
);
background = {
shapes = (
{
ref = "boBaimai-thai";
}
);
};
layerId = m002;
shapes = (
{
closed = 1;
nodes = (
(238,0,l),
(269,74,o),
(331,134,o),
(388,139,c),
(441,208,l),
(340,205,o),
(253,160,o),
(218,76,c),
(230,53,l),
(230,438,ls),
(230,497,o),
(186,540,o),
(125,540,cs),
(63,540,o),
(18,497,o),
(18,437,cs),
(18,378,o),
(63,336,o),
(125,336,cs),
(163,336,o),
(202,356,o),
(217,384,c),
(138,368,l),
(138,0,l)
);
},
{
closed = 1;
nodes = (
(96,391,o),
(78,410,o),
(78,438,cs),
(78,466,o),
(96,485,o),
(123,485,cs),
(150,485,o),
(168,466,o),
(168,438,cs),
(168,410,o),
(150,391,o),
(123,391,cs)
);
},
{
closed = 1;
nodes = (
(535,-5,o),
(580,39,o),
(580,99,cs),
(580,159,o),
(535,203,o),
(472,203,cs),
(408,203,o),
(362,159,o),
(362,99,cs),
(362,39,o),
(408,-5,o),
(472,-5,cs)
);
},
{
closed = 1;
nodes = (
(443,50,o),
(424,70,o),
(424,99,cs),
(424,128,o),
(443,148,o),
(471,148,cs),
(499,148,o),
(518,128,o),
(518,99,cs),
(518,70,o),
(499,50,o),
(471,50,cs)
);
},
{
closed = 1;
nodes = (
(520,536,l),
(428,536,l),
(428,179,l),
(520,175,l)
);
}
);
width = 609;
}
);
metricLeft = "boBaimai-thai";
unicode = 3609;
}
{
color = 3;
glyphname = "boBaimai-thai";
layers = (
{
anchors = (
{
name = bottom;
pos = (534,0);
},
{
name = top;
pos = (534,536);
}
);
background = {
shapes = (
{
closed = 1;
nodes = (
(534,0,l),
(534,536,l),
(442,536,l),
(442,74,l),
(230,74,l),
(230,438,ls),
(230,497,o),
(186,540,o),
(125,540,cs),
(63,540,o),
(18,497,o),
(18,437,cs),
(18,378,o),
(63,336,o),
(125,336,cs),
(163,336,o),
(202,356,o),
(217,384,c),
(138,368,l),
(138,0,l)
);
},
{
closed = 1;
nodes = (
(97,393,o),
(80,411,o),
(80,438,cs),
(80,465,o),
(97,483,o),
(123,483,cs),
(149,483,o),
(166,465,o),
(166,438,cs),
(166,411,o),
(149,393,o),
(123,393,cs)
);
}
);
};
layerId = m01;
shapes = (
{
closed = 1;
nodes = (
(534,0,l),
(534,536,l),
(442,536,l),
(442,74,l),
(230,74,l),
(230,438,ls),
(230,497,o),
(186,540,o),
(125,540,cs),
(63,540,o),
(18,497,o),
(18,437,cs),
(18,378,o),
(63,336,o),
(125,336,cs),
(163,336,o),
(202,356,o),
(217,384,c),
(138,368,l),
(138,0,l)
);
},
{
closed = 1;
nodes = (
(97,393,o),
(80,411,o),
(80,438,cs),
(80,465,o),
(97,483,o),
(123,483,cs),
(149,483,o),
(166,465,o),
(166,438,cs),
(166,411,o),
(149,393,o),
(123,393,cs)
);
}
);
width = 606;
},
{
anchors = (
{
name = bottom;
pos = (597,0);
},
{
name = top;
pos = (597,552);
}
);
background = {
shapes = (
{
pos = (48,0);
ref = n;
}
);
};
layerId = m002;
shapes = (
{
closed = 1;
nodes = (
(597,0,l),
(597,552,l),
(385,552,l),
(385,158,l),
(288,158,l),
(288,429,ls),
(288,504,o),
(231,558,o),
(149,558,cs),
(68,558,o),
(10,504,o),
(10,429,cs),
(10,355,o),
(67,302,o),
(145,302,cs),
(194,302,o),
(242,326,o),
(259,358,c),
(76,367,l),
(76,0,l)
);
},
{
closed = 1;
nodes = (
(125,390,o),
(109,406,o),
(109,430,cs),
(109,454,o),
(125,470,o),
(148,470,cs),
(171,470,o),
(187,454,o),
(187,430,cs),
(187,406,o),
(171,390,o),
(148,390,cs)
);
}
);
width = 631;
}
);
unicode = 3610;
}
{
glyphname = "poPla-thai";
layers = (
{
anchors = (
{
name = bottom;
pos = (538,0);
},
{
name = top;
pos = (386,536);
}
);
background = {
shapes = (
{
ref = "boBaimai-thai";
}
);
};
layerId = m01;
shapes = (
{
closed = 1;
nodes = (
(538,0,l),
(538,723,l),
(446,723,l),
(446,74,l),
(230,74,l),
(230,438,ls),
(230,497,o),
(186,540,o),
(125,540,cs),
(63,540,o),
(18,497,o),
(18,437,cs),
(18,378,o),
(63,336,o),
(125,336,cs),
(163,336,o),
(202,356,o),
(217,384,c),
(138,368,l),
(138,0,l)
);
},
{
closed = 1;
nodes = (
(96,391,o),
(78,410,o),
(78,438,cs),
(78,466,o),
(96,485,o),
(123,485,cs),
(150,485,o),
(168,466,o),
(168,438,cs),
(168,410,o),
(150,391,o),
(123,391,cs)
);
}
);
width = 610;
}
);
metricLeft = "boBaimai-thai";
metricRight = "boBaimai-thai";
unicode = 3611;
}
{
color = 3;
glyphname = "phoPhung-thai";
layers = (
{
anchors = (
{
name = bottom;
pos = (527,0);
},
{
name = top;
pos = (527,536);
}
);
background = {
shapes = (
{
ref = "foFa-thai";
}
);
};
layerId = m01;
shapes = (
{
closed = 1;
nodes = (
(175,0,l),
(319,234,l),
(279,234,l),
(425,0,l),
(527,0,l),
(527,536,l),
(439,536,l),
(439,168,l),
(447,19,l),
(480,21,l),
(325,271,l),
(274,271,l),
(120,21,l),
(152,19,l),
(160,168,l),
(160,368,l),
(83,388,l),
(98,356,o),
(136,336,o),
(174,336,cs),
(235,336,o),
(280,378,o),
(280,437,cs),
(280,497,o),
(235,540,o),
(174,540,cs),
(114,540,o),
(72,497,o),
(72,439,cs),
(72,0,l)
);
},
{
closed = 1;
nodes = (
(151,393,o),
(134,411,o),
(134,438,cs),
(134,465,o),
(151,483,o),
(177,483,cs),
(203,483,o),
(220,465,o),
(220,438,cs),
(220,411,o),
(203,393,o),
(177,393,cs)
);
}
);
width = 599;
}
);
metricLeft = "=|boBaimai-thai";
metricRight = "boBaimai-thai";
unicode = 3612;
}
{
glyphname = "foFa-thai";
layers = (
{
anchors = (
{
name = bottom;
pos = (528,0);
},
{
name = top;
pos = (387,536);
}
);
background = {
shapes = (
{
ref = "phoPhung-thai";
}
);
};
layerId = m01;
shapes = (
{
closed = 1;
nodes = (
(192,0,l),
(314,229,l),
(286,229,l),
(410,0,l),
(527,0,l),
(527,723,l),
(437,723,l),
(437,19,l),
(454,19,l),
(339,269,l),
(260,269,l),
(146,19,l),
(162,19,l),
(162,368,l),
(83,388,l),
(98,356,o),
(137,336,o),
(175,336,cs),
(237,336,o),
(282,378,o),
(282,437,cs),
(282,497,o),
(237,540,o),
(175,540,cs),
(114,540,o),
(72,497,o),
(72,439,cs),
(72,0,l)
);
},
{
closed = 1;
nodes = (
(151,393,o),
(134,411,o),
(134,438,cs),
(134,465,o),
(151,483,o),
(177,483,cs),
(203,483,o),
(220,465,o),
(220,438,cs),
(220,411,o),
(203,393,o),
(177,393,cs)
);
}
);
width = 599;
}
);
metricLeft = "phoPhung-thai";
metricRight = "phoPhung-thai";
unicode = 3613;
}
{
color = 3;
glyphname = "phoPhan-thai";
layers = (
{
anchors = (
{
name = bottom;
pos = (599,0);
},
{
name = top;
pos = (599,536);
}
);
background = {
shapes = (
{
ref = "boBaimai-thai";
}
);
};
layerId = m01;
shapes = (
{
closed = 1;
nodes = (
(263,0,l),
(373,436,l),
(358,436,l),
(473,0,l),
(599,0,l),
(599,536,l),
(511,536,l),
(511,11,l),
(523,11,l),
(410,486,l),
(324,486,l),
(214,11,l),
(226,11,l),
(226,438,ls),
(226,497,o),
(184,540,o),
(125,540,cs),
(63,540,o),
(18,497,o),
(18,437,cs),
(18,378,o),
(63,336,o),
(125,336,cs),
(163,336,o),
(202,356,o),
(217,384,c),
(138,368,l),
(138,0,l)
);
},
{
closed = 1;
nodes = (
(95,393,o),
(78,411,o),
(78,438,cs),
(78,465,o),
(95,483,o),
(121,483,cs),
(147,483,o),
(164,465,o),
(164,438,cs),
(164,411,o),
(147,393,o),
(121,393,cs)
);
}
);
width = 671;
}
);
metricLeft = "boBaimai-thai";
metricRight = "boBaimai-thai";
unicode = 3614;
}
{
glyphname = "foFan-thai";
layers = (
{
anchors = (
{
name = bottom;
pos = (607,0);
},
{
name = top;
pos = (465,536);
}
);
background = {
shapes = (
{
ref = "phoPhan-thai";
}
);
};
layerId = m01;
shapes = (
{
closed = 1;
nodes = (
(259,0,l),
(379,436,l),
(360,436,l),
(485,0,l),
(607,0,l),
(607,723,l),
(519,723,l),
(519,232,l),
(531,11,l),
(541,11,l),
(408,486,l),
(334,486,l),
(204,11,l),
(214,11,l),
(226,232,l),
(226,438,ls),
(226,497,o),
(184,540,o),
(125,540,cs),
(63,540,o),
(18,497,o),
(18,437,cs),
(18,378,o),
(63,336,o),
(125,336,cs),
(163,336,o),
(202,356,o),
(217,384,c),
(138,368,l),
(138,0,l)
);
},
{
closed = 1;
nodes = (
(95,393,o),
(78,411,o),
(78,438,cs),
(78,465,o),
(95,483,o),
(121,483,cs),
(147,483,o),
(164,465,o),
(164,438,cs),
(164,411,o),
(147,393,o),
(121,393,cs)
);
}
);
width = 679;
}
);
metricLeft = "phoPhan-thai";
metricRight = "phoPhan-thai";
unicode = 3615;
}
{
glyphname = "phoSamphao-thai";
layers = (
{
anchors = (
{
name = bottom;
pos = (542,0);
},
{
name = top;
pos = (532,536);
}
);
background = {
shapes = (
{
pos = (37,0);
ref = "koKai-thai";
}
);
};
layerId = m01;
shapes = (
{
closed = 1;
nodes = (
(189,-6,o),
(231,37,o),
(231,96,cs),
(231,214,ls),
(231,255,o),
(243,273,o),
(290,290,c),
(290,337,l),
(148,374,l),
(173,341,l),
(173,350,ls),
(173,423,o),
(225,470,o),
(315,470,cs),
(402,470,o),
(450,423,o),
(450,346,cs),
(450,0,l),
(542,0,l),
(542,344,ls),
(542,466,o),
(455,544,o),
(317,544,cs),
(163,544,o),
(81,455,o),
(81,343,cs),
(81,330,l),
(225,297,l),
(246,316,l),
(176,292,o),
(143,282,o),
(143,211,cs),
(143,166,l),
(222,150,l),
(207,178,o),
(168,198,o),
(130,198,cs),
(68,198,o),
(23,156,o),
(23,97,cs),
(23,37,o),
(68,-6,o),
(130,-6,cs)
);
},
{
closed = 1;
nodes = (
(100,51,o),
(83,69,o),
(83,96,cs),
(83,123,o),
(100,141,o),
(126,141,cs),
(152,141,o),
(169,123,o),
(169,96,cs),
(169,69,o),
(152,51,o),
(126,51,cs)
);
}
);
width = 610;
},
{
anchors = (
{
name = bottom;
pos = (542,0);
},
{
name = top;
pos = (532,536);
}
);
background = {
shapes = (
{
pos = (37,0);
ref = "koKai-thai";
}
);
};
layerId = m002;
shapes = (
{
closed = 1;
nodes = (
(189,-6,o),
(231,37,o),
(231,96,cs),
(231,214,ls),
(231,255,o),
(243,273,o),
(290,290,c),
(290,337,l),
(148,374,l),
(173,341,l),
(173,350,ls),
(173,423,o),
(225,470,o),
(315,470,cs),
(402,470,o),
(450,423,o),
(450,346,cs),
(450,0,l),
(542,0,l),
(542,344,ls),
(542,466,o),
(455,544,o),
(317,544,cs),
(163,544,o),
(81,455,o),
(81,343,cs),
(81,330,l),
(225,297,l),
(246,316,l),
(176,292,o),
(143,282,o),
(143,211,cs),
(143,166,l),
(222,150,l),
(207,178,o),
(168,198,o),
(130,198,cs),
(68,198,o),
(23,156,o),
(23,97,cs),
(23,37,o),
(68,-6,o),
(130,-6,cs)
);
},
{
closed = 1;
nodes = (
(100,51,o),
(83,69,o),
(83,96,cs),
(83,123,o),
(100,141,o),
(126,141,cs),
(152,141,o),
(169,123,o),
(169,96,cs),
(169,69,o),
(152,51,o),
(126,51,cs)
);
}
);
width = 610;
}
);
metricRight = "koKai-thai";
unicode = 3616;
}
{
color = 3;
glyphname = "moMa-thai";
layers = (
{
anchors = (
{
name = bottom;
pos = (547,0);
},
{
name = top;
pos = (547,536);
}
);
background = {
shapes = (
{
pos = (38,0);
ref = "boBaimai-thai";
}
);
};
layerId = m01;
shapes = (
{
closed = 1;
nodes = (
(547,0,l),
(547,536,l),
(455,536,l),
(455,58,l),
(460,84,l),
(422,152,o),
(341,191,o),
(253,199,c),
(268,159,l),
(268,438,ls),
(268,497,o),
(224,540,o),
(163,540,cs),
(101,540,o),
(56,497,o),
(56,437,cs),
(56,378,o),
(101,336,o),
(163,336,cs),
(201,336,o),
(240,356,o),
(255,384,c),
(176,372,l),
(176,191,l),
(214,177,l),
(252,133,l),
(331,130,o),
(402,90,o),
(443,0,c)
);
},
{
closed = 1;
nodes = (
(234,-6,o),
(279,38,o),
(279,98,cs),
(279,158,o),
(234,202,o),
(171,202,cs),
(107,202,o),
(61,158,o),
(61,98,cs),
(61,38,o),
(107,-6,o),
(171,-6,cs)
);
},
{
closed = 1;
nodes = (
(143,51,o),
(125,70,o),
(125,98,cs),
(125,126,o),
(143,145,o),
(170,145,cs),
(197,145,o),
(215,126,o),
(215,98,cs),
(215,70,o),
(197,51,o),
(170,51,cs)
);
},
{
closed = 1;
nodes = (
(135,393,o),
(118,411,o),
(118,438,cs),
(118,465,o),
(135,483,o),
(161,483,cs),
(187,483,o),
(204,465,o),
(204,438,cs),
(204,411,o),
(187,393,o),
(161,393,cs)
);
}
);
width = 619;
}
);
metricRight = "boBaimai-thai";
unicode = 3617;
}
{
color = 3;
glyphname = "yoYak-thai";
layers = (
{
anchors = (
{
name = bottom;
pos = (490,0);
},
{
name = top;
pos = (490,536);
}
);
background = {
shapes = (
{
pos = (-45,0);
ref = "boBaimai-thai";
}
);
};
layerId = m01;
shapes = (
{
closed = 1;
nodes = (
(490,0,l),
(490,536,l),
(398,536,l),
(398,74,l),
(163,74,l),
(166,48,l),
(166,154,ls),
(166,196,o),
(189,212,o),
(220,212,cs),
(293,212,l),
(293,282,l),
(223,282,ls),
(167,282,o),
(118,316,o),
(118,368,c),
(118,380,l),
(83,427,l),
(83,378,o),
(122,344,o),
(171,344,cs),
(229,344,o),
(274,382,o),
(274,442,cs),
(274,501,o),
(233,540,o),
(168,540,cs),
(101,540,o),
(42,483,o),
(42,394,cs),
(42,299,o),
(100,242,o),
(187,236,c),
(178,261,l),
(111,255,o),
(74,219,o),
(74,156,cs),
(74,0,l)
);
},
{
closed = 1;
nodes = (
(143,396,o),
(126,414,o),
(126,441,cs),
(126,468,o),
(143,486,o),
(169,486,cs),
(195,486,o),
(212,468,o),
(212,441,cs),
(212,414,o),
(195,396,o),
(169,396,cs)
);
}
);
width = 562;
},
{
anchors = (
{
name = bottom;
pos = (490,0);
},
{
name = top;
pos = (490,536);
}
);
background = {
shapes = (
{
pos = (-45,0);
ref = "boBaimai-thai";
}
);
};
layerId = m002;
shapes = (
{
closed = 1;
nodes = (
(490,0,l),
(490,536,l),
(398,536,l),
(398,74,l),
(163,74,l),
(166,48,l),
(166,154,ls),
(166,196,o),
(189,212,o),
(220,212,cs),
(293,212,l),
(293,282,l),
(223,282,ls),
(167,282,o),
(118,316,o),
(118,368,c),
(118,380,l),
(83,427,l),
(83,378,o),
(122,344,o),
(171,344,cs),
(229,344,o),
(274,382,o),
(274,442,cs),
(274,501,o),
(233,540,o),
(168,540,cs),
(101,540,o),
(42,483,o),
(42,394,cs),
(42,299,o),
(100,242,o),
(187,236,c),
(178,261,l),
(111,255,o),
(74,219,o),
(74,156,cs),
(74,0,l)
);
},
{
closed = 1;
nodes = (
(143,396,o),
(126,414,o),
(126,441,cs),
(126,468,o),
(143,486,o),
(169,486,cs),
(195,486,o),
(212,468,o),
(212,441,cs),
(212,414,o),
(195,396,o),
(169,396,cs)
);
}
);
width = 562;
}
);
metricRight = "boBaimai-thai";
unicode = 3618;
}
{
color = 3;
glyphname = "roRua-thai";
layers = (
{
anchors = (
{
name = bottom;
pos = (389,0);
},
{
name = top;
pos = (423,536);
}
);
background = {
shapes = (
{
closed = 1;
nodes = (
(346,-4,o),
(390,39,o),
(390,98,cs),
(390,268,ls),
(390,319,o),
(368,351,o),
(314,360,cs),
(112,394,l),
(130,349,l),
(130,401,ls),
(130,444,o),
(163,471,o),
(219,471,cs),
(278,471,o),
(319,446,o),
(374,446,cs),
(393,446,o),
(407,450,o),
(421,456,c),
(421,531,l),
(404,526,o),
(391,524,o),
(377,524,cs),
(328,524,o),
(292,546,o),
(219,546,cs),
(100,546,o),
(38,481,o),
(38,388,cs),
(38,337,l),
(252,300,ls),
(285,294,o),
(298,285,o),
(298,259,cs),
(298,168,l),
(377,152,l),
(362,180,o),
(323,200,o),
(285,200,cs),
(223,200,o),
(178,158,o),
(178,99,cs),
(178,39,o),
(223,-4,o),
(285,-4,cs)
);
},
{
closed = 1;
nodes = (
(257,53,o),
(240,71,o),
(240,98,cs),
(240,125,o),
(257,143,o),
(283,143,cs),
(309,143,o),
(326,125,o),
(326,98,cs),
(326,71,o),
(309,53,o),
(283,53,cs)
);
}
);
};
layerId = m01;
shapes = (
{
closed = 1;
nodes = (
(259,51,o),
(242,69,o),
(242,96,cs),
(242,123,o),
(259,141,o),
(285,141,cs),
(311,141,o),
(328,123,o),
(328,96,cs),
(328,69,o),
(311,51,o),
(285,51,cs)
);
},
{
closed = 1;
nodes = (
(190,319,o),
(234,316,o),
(259,304,cs),
(294,288,o),
(300,262,o),
(300,232,cs),
(300,166,l),
(379,150,l),
(364,178,o),
(325,198,o),
(287,198,cs),
(225,198,o),
(180,156,o),
(180,97,cs),
(180,37,o),
(225,-6,o),
(287,-6,cs),
(348,-6,o),
(392,37,o),
(392,96,cs),
(392,240,ls),
(392,293,o),
(375,338,o),
(331,363,cs),
(294,384,o),
(248,393,o),
(169,393,cs),
(78,393,l),
(118,349,l),
(118,401,ls),
(118,444,o),
(156,471,o),
(221,471,cs),
(280,471,o),
(321,446,o),
(376,446,cs),
(395,446,o),
(409,450,o),
(423,456,c),
(423,531,l),
(406,526,o),
(393,524,o),
(379,524,cs),
(330,524,o),
(294,546,o),
(221,546,cs),
(97,546,o),
(32,481,o),
(32,388,cs),
(32,319,l),
(110,319,ls)
);
}
);
width = 475;
}
);
unicode = 3619;
}
{
glyphname = "ru-thai";
layers = (
{
anchors = (
{
name = bottom;
pos = (513,-204);
},
{
name = top;
pos = (503,536);
}
);
background = {
shapes = (
{
closed = 1;
nodes = (
(511,-204,l),
(511,345,ls),
(511,470,o),
(430,544,o),
(294,544,cs),
(147,544,o),
(57,457,o),
(57,338,cs),
(57,299,l),
(211,299,l),
(211,306,l),
(122,294,o),
(83,252,o),
(83,177,cs),
(83,112,ls),
(83,37,o),
(119,-8,o),
(192,-8,cs),
(260,-8,o),
(294,36,o),
(294,91,cs),
(294,148,o),
(257,187,o),
(193,187,cs),
(146,187,o),
(122,166,o),
(99,130,c),
(176,164,l),
(176,207,ls),
(176,259,o),
(204,291,o),
(290,298,c),
(290,341,l),
(119,341,l),
(151,326,l),
(151,353,ls),
(151,436,o),
(204,484,o),
(284,484,cs),
(367,484,o),
(414,437,o),
(414,349,cs),
(414,-204,l)
);
},
{
closed = 1;
nodes = (
(167,43,o),
(152,61,o),
(152,90,cs),
(152,118,o),
(167,137,o),
(192,137,cs),
(216,137,o),
(231,118,o),
(231,90,cs),
(231,61,o),
(216,43,o),
(192,43,cs)
);
}
);
};
layerId = m01;
shapes = (
{
closed = 1;
nodes = (
(513,-204,l),
(513,74,l),
(421,74,l),
(421,-204,l)
);
},
{
ref = "thoThung-thai";
}
);
width = 581;
},
{
anchors = (
{
name = bottom;
pos = (513,-204);
},
{
name = top;
pos = (503,536);
}
);
background = {
shapes = (
{
closed = 1;
nodes = (
(511,-204,l),
(511,345,ls),
(511,470,o),
(430,544,o),
(294,544,cs),
(147,544,o),
(57,457,o),
(57,338,cs),
(57,299,l),
(211,299,l),
(211,306,l),
(122,294,o),
(83,252,o),
(83,177,cs),
(83,112,ls),
(83,37,o),
(119,-8,o),
(192,-8,cs),
(260,-8,o),
(294,36,o),
(294,91,cs),
(294,148,o),
(257,187,o),
(193,187,cs),
(146,187,o),
(122,166,o),
(99,130,c),
(176,164,l),
(176,207,ls),
(176,259,o),
(204,291,o),
(290,298,c),
(290,341,l),
(119,341,l),
(151,326,l),
(151,353,ls),
(151,436,o),
(204,484,o),
(284,484,cs),
(367,484,o),
(414,437,o),
(414,349,cs),
(414,-204,l)
);
},
{
closed = 1;
nodes = (
(167,43,o),
(152,61,o),
(152,90,cs),
(152,118,o),
(167,137,o),
(192,137,cs),
(216,137,o),
(231,118,o),
(231,90,cs),
(231,61,o),
(216,43,o),
(192,43,cs)
);
}
);
};
layerId = m002;
shapes = (
{
closed = 1;
nodes = (
(513,-204,l),
(513,74,l),
(421,74,l),
(421,-204,l)
);
},
{
ref = "thoThung-thai";
}
);
width = 581;
}
);
metricLeft = "thoThung-thai";
metricRight = "thoThung-thai";
unicode = 3620;
}
{
color = 3;
glyphname = "loLing-thai";
layers = (
{
anchors = (
{
name = bottom;
pos = (497,0);
},
{
name = top;
pos = (497,536);
}
);
background = {
shapes = (
{
pos = (-51,0);
ref = "boBaimai-thai";
}
);
};
layerId = m01;
shapes = (
{
closed = 1;
nodes = (
(497,0,l),
(497,353,ls),
(497,471,o),
(413,544,o),
(279,544,cs),
(150,544,o),
(54,475,o),
(52,359,c),
(144,359,l),
(146,429,o),
(200,470,o),
(278,470,cs),
(359,470,o),
(405,429,o),
(405,355,cs),
(405,244,l),
(405,240,l),
(405,0,l)
);
},
{
closed = 1;
nodes = (
(241,-4,o),
(284,39,o),
(284,95,cs),
(284,151,o),
(244,190,o),
(187,190,cs),
(149,190,o),
(120,173,o),
(107,148,c),
(164,168,l),
(164,187,ls),
(164,250,o),
(209,280,o),
(277,280,cs),
(363,280,o),
(405,234,o),
(405,160,c),
(447,255,l),
(424,265,l),
(398,320,o),
(345,350,o),
(264,350,cs),
(159,350,o),
(74,296,o),
(74,179,cs),
(74,105,ls),
(74,42,o),
(117,-4,o),
(180,-4,cs)
);
},
{
closed = 1;
nodes = (
(157,51,o),
(140,69,o),
(140,93,cs),
(140,117,o),
(157,135,o),
(181,135,cs),
(205,135,o),
(222,117,o),
(222,93,cs),
(222,69,o),
(205,51,o),
(181,51,cs)
);
}
);
width = 565;
}
);
unicode = 3621;
}
{
color = 3;
glyphname = "woWaen-thai";
layers = (
{
anchors = (
{
name = bottom;
pos = (418,0);
},
{
name = top;
pos = (408,536);
}
);
background = {
shapes = (
{
pos = (63,0);
ref = "roRua-thai";
}
);
};
layerId = m01;
shapes = (
{
closed = 1;
nodes = (
(374,-4,o),
(418,39,o),
(418,98,cs),
(418,366,ls),
(418,475,o),
(346,544,o),
(229,544,cs),
(115,544,o),
(31,480,o),
(24,367,c),
(118,367,l),
(121,433,o),
(160,472,o),
(224,472,cs),
(287,472,o),
(322,435,o),
(322,372,cs),
(322,168,l),
(405,152,l),
(390,180,o),
(351,200,o),
(313,200,cs),
(251,200,o),
(206,158,o),
(206,99,cs),
(206,39,o),
(251,-4,o),
(313,-4,cs)
);
},
{
closed = 1;
nodes = (
(285,53,o),
(268,71,o),
(268,98,cs),
(268,125,o),
(285,143,o),
(311,143,cs),
(337,143,o),
(354,125,o),
(354,98,cs),
(354,71,o),
(337,53,o),
(311,53,cs)
);
}
);
width = 486;
}
);
unicode = 3623;
}
{
glyphname = "soSala-thai";
layers = (
{
anchors = (
{
name = bottom;
pos = (547,0);
},
{
name = top;
pos = (536,536);
}
);
background = {
shapes = (
{
closed = 1;
nodes = (
(156,126,o),
(185,179,o),
(229,231,c),
(213,240,l),
(219,188,o),
(263,161,o),
(306,161,cs),
(361,161,o),
(402,200,o),
(402,254,cs),
(402,308,o),
(361,347,o),
(303,347,cs),
(228,347,o),
(167,265,o),
(147,199,c),
(156,62,l)
);
},
{
closed = 1;
nodes = (
(278,213,o),
(262,229,o),
(262,254,cs),
(262,279,o),
(278,295,o),
(302,295,cs),
(326,295,o),
(342,279,o),
(342,254,cs),
(342,229,o),
(326,213,o),
(302,213,cs)
);
},
{
closed = 0;
nodes = (
(420,485,l),
(398,479,l),
(412,479,ls),
(471,479,o),
(517,514,o),
(517,567,cs),
(517,587,l),
(427,587,l),
(427,572,ls),
(427,549,o),
(407,536,o),
(373,536,cs)
);
},
{
closed = 0;
nodes = (
(296,536,l),
(154,536,o),
(66,454,o),
(66,325,cs),
(66,0,l),
(156,0,l),
(156,327,ls),
(156,412,o),
(207,462,o),
(295,462,cs),
(384,462,o),
(436,412,o),
(436,327,cs),
(436,0,l),
(526,0,l),
(526,325,ls),
(526,419,o),
(479,487,o),
(400,518,c)
);
}
);
};
layerId = m01;
shapes = (
{
closed = 1;
nodes = (
(158,0,l),
(158,327,ls),
(158,414,o),
(209,465,o),
(297,465,cs),
(386,465,o),
(438,414,o),
(438,327,cs),
(438,0,l),
(528,0,l),
(528,307,ls),
(528,394,o),
(495,457,o),
(441,485,c),
(429,479,l),
(443,479,ls),
(502,479,o),
(548,514,o),
(548,567,cs),
(548,587,l),
(458,587,l),
(458,572,ls),
(458,551,o),
(438,539,o),
(404,539,cs),
(298,539,ls),
(156,539,o),
(68,456,o),
(68,325,cs),
(68,0,l)
);
},
{
closed = 1;
nodes = (
(158,126,o),
(187,179,o),
(231,231,c),
(215,240,l),
(221,188,o),
(265,161,o),
(308,161,cs),
(363,161,o),
(404,200,o),
(404,254,cs),
(404,308,o),
(363,347,o),
(305,347,cs),
(230,347,o),
(169,265,o),
(149,199,c),
(158,62,l)
);
},
{
closed = 1;
nodes = (
(280,213,o),
(264,229,o),
(264,254,cs),
(264,279,o),
(280,295,o),
(304,295,cs),
(328,295,o),
(344,279,o),
(344,254,cs),
(344,229,o),
(328,213,o),
(304,213,cs)
);
}
);
width = 600;
}
);
metricLeft = "khoKhwai-thai";
unicode = 3624;
}
{
glyphname = "soRusi-thai";
layers = (
{
anchors = (
{
name = bottom;
pos = (550,0);
},
{
name = top;
pos = (550,536);
}
);
background = {
shapes = (
{
closed = 1;
nodes = (
(558,0,l),
(558,536,l),
(466,536,l),
(466,74,l),
(224,74,l),
(224,438,ls),
(224,497,o),
(180,540,o),
(119,540,cs),
(57,540,o),
(12,497,o),
(12,437,cs),
(12,378,o),
(57,336,o),
(119,336,cs),
(157,336,o),
(196,356,o),
(211,384,c),
(132,368,l),
(132,0,l)
);
},
{
closed = 1;
nodes = (
(91,393,o),
(74,411,o),
(74,438,cs),
(74,465,o),
(91,483,o),
(117,483,cs),
(143,483,o),
(160,465,o),
(160,438,cs),
(160,411,o),
(143,393,o),
(117,393,cs)
);
},
{
closed = 1;
nodes = (
(474,245,l),
(440,245,o),
(403,245,o),
(376,258,c),
(370,241,l),
(409,246,o),
(432,276,o),
(432,312,cs),
(432,357,o),
(402,390,o),
(349,390,cs),
(296,390,o),
(262,360,o),
(262,308,cs),
(262,224,o),
(345,196,o),
(468,196,c)
);
},
{
closed = 1;
nodes = (
(329,267,o),
(316,283,o),
(316,308,cs),
(316,332,o),
(329,348,o),
(348,348,cs),
(368,348,o),
(381,332,o),
(381,308,cs),
(381,283,o),
(368,267,o),
(348,267,cs)
);
},
{
closed = 1;
nodes = (
(622,218,o),
(671,259,o),
(678,359,c),
(614,359,l),
(609,291,o),
(589,271,o),
(544,259,c),
(535,207,l)
);
},
{
pos = (-4,0);
ref = "boBaimai-thai";
}
);
};
layerId = m01;
shapes = (
{
closed = 1;
nodes = (
(550,0,l),
(550,536,l),
(460,536,l),
(460,74,l),
(226,74,l),
(226,438,ls),
(226,497,o),
(182,540,o),
(121,540,cs),
(59,540,o),
(14,497,o),
(14,437,cs),
(14,378,o),
(59,336,o),
(121,336,cs),
(159,336,o),
(198,356,o),
(213,384,c),
(136,368,l),
(136,0,l)
);
},
{
closed = 1;
nodes = (
(93,393,o),
(76,411,o),
(76,438,cs),
(76,465,o),
(93,483,o),
(119,483,cs),
(145,483,o),
(162,465,o),
(162,438,cs),
(162,411,o),
(145,393,o),
(119,393,cs)
);
},
{
closed = 1;
nodes = (
(324,257,o),
(309,272,o),
(309,295,cs),
(309,318,o),
(324,333,o),
(346,333,cs),
(368,333,o),
(383,318,o),
(383,295,cs),
(383,272,o),
(368,257,o),
(346,257,cs)
);
},
{
closed = 1;
nodes = (
(544,195,l),
(614,226,o),
(650,287,o),
(650,367,c),
(586,367,l),
(586,314,o),
(571,270,o),
(536,256,c)
);
},
{
closed = 1;
nodes = (
(466,238,l),
(455,233,o),
(442,230,o),
(428,230,cs),
(409,230,o),
(376,232,o),
(352,248,c),
(308,234,l),
(318,225,o),
(339,221,o),
(359,217,cs),
(409,218,o),
(435,256,o),
(435,296,cs),
(435,346,o),
(397,380,o),
(347,380,cs),
(288,380,o),
(255,338,o),
(255,291,cs),
(255,220,o),
(334,174,o),
(425,174,cs),
(440,174,o),
(454,176,o),
(468,179,c)
);
}
);
width = 660;
}
);
unicode = 3625;
}
{
color = 3;
glyphname = "soSua-thai";
layers = (
{
anchors = (
{
name = bottom;
pos = (499,0);
},
{
name = top;
pos = (503,536);
}
);
background = {
shapes = (
{
ref = "loLing-thai";
}
);
};
layerId = m01;
shapes = (
{
closed = 1;
nodes = (
(499,0,l),
(499,321,ls),
(499,402,o),
(472,459,o),
(422,485,c),
(400,479,l),
(414,479,ls),
(473,479,o),
(519,514,o),
(519,567,cs),
(519,587,l),
(429,587,l),
(429,572,ls),
(429,551,o),
(409,539,o),
(375,539,cs),
(284,539,ls),
(153,539,o),
(56,472,o),
(54,359,c),
(146,359,l),
(148,427,o),
(202,467,o),
(280,467,cs),
(361,467,o),
(407,427,o),
(407,355,cs),
(407,244,l),
(407,240,l),
(407,0,l)
);
},
{
closed = 1;
nodes = (
(243,-4,o),
(286,39,o),
(286,95,cs),
(286,151,o),
(246,190,o),
(189,190,cs),
(151,190,o),
(122,173,o),
(109,148,c),
(166,168,l),
(166,187,ls),
(166,250,o),
(211,280,o),
(279,280,cs),
(365,280,o),
(407,234,o),
(407,160,c),
(449,255,l),
(426,265,l),
(400,320,o),
(347,350,o),
(266,350,cs),
(161,350,o),
(76,296,o),
(76,179,cs),
(76,105,ls),
(76,42,o),
(119,-4,o),
(182,-4,cs)
);
},
{
closed = 1;
nodes = (
(159,51,o),
(142,69,o),
(142,93,cs),
(142,117,o),
(159,135,o),
(183,135,cs),
(207,135,o),
(224,117,o),
(224,93,cs),
(224,69,o),
(207,51,o),
(183,51,cs)
);
}
);
width = 573;
},
{
anchors = (
{
name = bottom;
pos = (499,0);
},
{
name = top;
pos = (503,536);
}
);
background = {
shapes = (
{
ref = "loLing-thai";
}
);
};
layerId = m002;
shapes = (
{
closed = 1;
nodes = (
(499,0,l),
(499,321,ls),
(499,402,o),
(472,459,o),
(422,485,c),
(400,479,l),
(414,479,ls),
(473,479,o),
(519,514,o),
(519,567,cs),
(519,587,l),
(429,587,l),
(429,572,ls),
(429,551,o),
(409,539,o),
(375,539,cs),
(284,539,ls),
(153,539,o),
(56,472,o),
(54,359,c),
(146,359,l),
(148,427,o),
(202,467,o),
(280,467,cs),
(361,467,o),
(407,427,o),
(407,355,cs),
(407,244,l),
(407,240,l),
(407,0,l)
);
},
{
closed = 1;
nodes = (
(243,-4,o),
(286,39,o),
(286,95,cs),
(286,151,o),
(246,190,o),
(189,190,cs),
(151,190,o),
(122,173,o),
(109,148,c),
(166,168,l),
(166,187,ls),
(166,250,o),
(211,280,o),
(279,280,cs),
(365,280,o),
(407,234,o),
(407,160,c),
(449,255,l),
(426,265,l),
(400,320,o),
(347,350,o),
(266,350,cs),
(161,350,o),
(76,296,o),
(76,179,cs),
(76,105,ls),
(76,42,o),
(119,-4,o),
(182,-4,cs)
);
},
{
closed = 1;
nodes = (
(159,51,o),
(142,69,o),
(142,93,cs),
(142,117,o),
(159,135,o),
(183,135,cs),
(207,135,o),
(224,117,o),
(224,93,cs),
(224,69,o),
(207,51,o),
(183,51,cs)
);
}
);
width = 573;
}
);
unicode = 3626;
}
{
color = 3;
glyphname = "hoHip-thai";
layers = (
{
anchors = (
{
name = bottom;
pos = (540,0);
},
{
name = top;
pos = (540,536);
}
);
background = {
shapes = (
{
ref = "thoThahan-thai";
}
);
};
layerId = m01;
shapes = (
{
closed = 1;
nodes = (
(540,0,l),
(540,270,ls),
(540,318,o),
(524,355,o),
(490,368,c),
(485,354,l),
(523,371,o),
(544,405,o),
(544,447,cs),
(544,500,o),
(506,544,o),
(437,544,cs),
(373,544,o),
(330,500,o),
(330,442,cs),
(330,397,o),
(362,354,o),
(410,351,c),
(381,386,l),
(295,379,o),
(227,278,o),
(213,180,c),
(187,180,l),
(230,58,l),
(230,193,o),
(306,333,o),
(393,333,cs),
(426,333,o),
(448,310,o),
(448,265,cs),
(448,0,l)
);
},
{
closed = 1;
nodes = (
(230,0,l),
(230,201,l),
(230,211,l),
(230,438,ls),
(230,497,o),
(186,540,o),
(125,540,cs),
(63,540,o),
(18,497,o),
(18,437,cs),
(18,378,o),
(63,336,o),
(125,336,cs),
(163,336,o),
(202,356,o),
(217,384,c),
(138,368,l),
(138,0,l)
);
},
{
closed = 1;
nodes = (
(97,393,o),
(80,411,o),
(80,438,cs),
(80,465,o),
(97,483,o),
(123,483,cs),
(149,483,o),
(166,465,o),
(166,438,cs),
(166,411,o),
(149,393,o),
(123,393,cs)
);
},
{
closed = 1;
nodes = (
(411,397,o),
(394,415,o),
(394,442,cs),
(394,469,o),
(411,487,o),
(437,487,cs),
(463,487,o),
(480,469,o),
(480,442,cs),
(480,415,o),
(463,397,o),
(437,397,cs)
);
}
);
width = 610;
},
{
anchors = (
{
name = bottom;
pos = (583,0);
},
{
name = top;
pos = (583,552);
}
);
background = {
shapes = (
{
ref = "thoThahan-thai";
}
);
};
layerId = m002;
shapes = (
{
closed = 1;
nodes = (
(583,0,l),
(583,270,ls),
(583,311,o),
(567,342,o),
(543,353,c),
(533,328,l),
(578,348,o),
(603,383,o),
(603,434,cs),
(603,502,o),
(553,558,o),
(465,558,cs),
(385,558,o),
(331,501,o),
(331,433,cs),
(331,376,o),
(371,328,o),
(430,325,c),
(362,390,l),
(299,377,o),
(261,297,o),
(251,219,c),
(217,209,l),
(284,129,l),
(284,195,o),
(305,272,o),
(352,272,cs),
(369,272,o),
(378,261,o),
(378,242,cs),
(378,0,l)
);
},
{
closed = 1;
nodes = (
(284,0,l),
(284,179,l),
(278,201,l),
(278,431,ls),
(278,510,o),
(225,558,o),
(149,558,cs),
(68,558,o),
(10,504,o),
(10,429,cs),
(10,355,o),
(67,302,o),
(145,302,cs),
(194,302,o),
(242,326,o),
(259,358,c),
(76,367,l),
(76,0,l)
);
},
{
closed = 1;
nodes = (
(120,390,o),
(104,406,o),
(104,430,cs),
(104,454,o),
(120,470,o),
(143,470,cs),
(166,470,o),
(182,454,o),
(182,430,cs),
(182,406,o),
(166,390,o),
(143,390,cs)
);
},
{
closed = 1;
nodes = (
(443,392,o),
(428,408,o),
(428,432,cs),
(428,457,o),
(443,472,o),
(467,472,cs),
(491,472,o),
(506,457,o),
(506,432,cs),
(506,408,o),
(491,392,o),
(467,392,cs)
);
}
);
width = 622;
}
);
metricLeft = "boBaimai-thai";
unicode = 3627;
}
{
glyphname = "loChula-thai";
layers = (
{
anchors = (
{
name = bottom;
pos = (599,0);
}
);
background = {
shapes = (
{
closed = 1;
nodes = (
(258,0,l),
(371,336,l),
(356,336,l),
(476,0,l),
(597,0,l),
(597,509,l),
(597,523,o),
(597,538,o),
(597,552,c),
(586,616,o),
(539,677,o),
(417,677,cs),
(319,677,o),
(259,635,o),
(259,573,cs),
(259,513,o),
(312,478,o),
(416,478,cs),
(570,478,o),
(666,568,o),
(666,679,c),
(576,679,l),
(576,593,o),
(510,536,o),
(418,536,cs),
(364,536,o),
(336,552,o),
(336,576,cs),
(336,601,o),
(363,619,o),
(413,619,cs),
(482,619,o),
(507,582,o),
(507,547,c),
(507,11,l),
(528,11,l),
(412,386,l),
(318,386,l),
(204,11,l),
(226,11,l),
(226,438,ls),
(226,497,o),
(183,540,o),
(123,540,cs),
(61,540,o),
(16,497,o),
(16,437,cs),
(16,378,o),
(61,336,o),
(123,336,cs),
(161,336,o),
(200,356,o),
(215,384,c),
(136,368,l),
(136,0,l)
);
},
{
closed = 1;
nodes = (
(95,393,o),
(78,411,o),
(78,438,cs),
(78,465,o),
(95,483,o),
(121,483,cs),
(147,483,o),
(164,465,o),
(164,438,cs),
(164,411,o),
(147,393,o),
(121,393,cs)
);
}
);
};
layerId = m01;
shapes = (
{
closed = 1;
nodes = (
(256,0,l),
(373,356,l),
(358,356,l),
(482,0,l),
(599,0,l),
(599,487,ls),
(599,533,o),
(589,568,o),
(575,589,c),
(556,635,o),
(513,677,o),
(417,677,cs),
(321,677,o),
(261,635,o),
(261,573,cs),
(261,513,o),
(315,478,o),
(412,478,cs),
(565,478,o),
(655,572,o),
(655,689,c),
(577,689,l),
(577,590,o),
(513,536,o),
(417,536,cs),
(366,536,o),
(338,552,o),
(338,576,cs),
(338,600,o),
(366,619,o),
(412,619,cs),
(477,619,o),
(506,580,o),
(509,547,c),
(509,11,l),
(534,11,l),
(410,406,l),
(324,406,l),
(202,11,l),
(228,11,l),
(228,438,ls),
(228,497,o),
(185,540,o),
(125,540,cs),
(63,540,o),
(18,497,o),
(18,437,cs),
(18,378,o),
(63,336,o),
(125,336,cs),
(163,336,o),
(202,356,o),
(217,384,c),
(138,368,l),
(138,0,l)
);
},
{
closed = 1;
nodes = (
(97,393,o),
(80,411,o),
(80,438,cs),
(80,465,o),
(97,483,o),
(123,483,cs),
(149,483,o),
(166,465,o),
(166,438,cs),
(166,411,o),
(149,393,o),
(123,393,cs)
);
}
);
width = 686;
}
);
metricLeft = "phoPhan-thai";
unicode = 3628;
}
{
color = 3;
glyphname = "oAng-thai";
layers = (
{
anchors = (
{
name = bottom;
pos = (496,0);
},
{
name = top;
pos = (486,536);
}
);
background = {
shapes = (
{
closed = 1;
nodes = (
(494,354,ls),
(494,480,o),
(392,544,o),
(272,544,cs),
(147,544,o),
(56,477,o),
(48,375,c),
(144,375,l),
(151,434,o),
(199,470,o),
(271,470,cs),
(348,470,o),
(398,430,o),
(398,352,cs),
(398,76,l),
(177,76,l),
(177,178,l),
(94,192,l),
(108,166,o),
(146,147,o),
(182,147,cs),
(242,147,o),
(286,187,o),
(286,244,cs),
(286,301,o),
(242,343,o),
(182,343,cs),
(123,343,o),
(81,301,o),
(81,244,cs),
(81,0,l),
(494,0,l)
);
},
{
closed = 1;
nodes = (
(158,199,o),
(141,217,o),
(141,244,cs),
(141,271,o),
(158,289,o),
(184,289,cs),
(210,289,o),
(227,271,o),
(227,244,cs),
(227,217,o),
(210,199,o),
(184,199,cs)
);
}
);
};
layerId = m01;
shapes = (
{
closed = 1;
nodes = (
(496,0,l),
(496,340,ls),
(496,481,o),
(397,544,o),
(272,544,cs),
(146,544,o),
(56,478,o),
(50,369,c),
(144,369,l),
(148,433,o),
(200,470,o),
(272,470,cs),
(351,470,o),
(404,427,o),
(404,336,cs),
(404,74,l),
(179,74,l),
(179,178,l),
(101,192,l),
(115,166,o),
(153,147,o),
(191,147,cs),
(250,147,o),
(292,187,o),
(292,243,cs),
(292,299,o),
(250,341,o),
(191,341,cs),
(131,341,o),
(88,299,o),
(88,243,cs),
(88,0,l)
);
},
{
closed = 1;
nodes = (
(166,201,o),
(150,218,o),
(150,243,cs),
(150,268,o),
(166,285,o),
(191,285,cs),
(216,285,o),
(232,268,o),
(232,243,cs),
(232,218,o),
(216,201,o),
(191,201,cs)
);
}
);
width = 564;
},
{
anchors = (
{
name = bottom;
pos = (556,0);
},
{
name = top;
pos = (546,552);
}
);
background = {
shapes = (
{
pos = (-40,0);
ref = "boBaimai-thai";
}
);
};
layerId = m002;
shapes = (
{
closed = 1;
nodes = (
(556,0,l),
(556,323,ls),
(556,483,o),
(452,566,o),
(293,566,cs),
(138,566,o),
(36,493,o),
(27,358,c),
(231,358,l),
(232,387,o),
(255,403,o),
(290,403,cs),
(326,403,o),
(350,384,o),
(350,345,cs),
(350,134,l),
(239,134,l),
(239,178,l),
(81,189,l),
(93,152,o),
(136,134,o),
(185,134,cs),
(262,134,o),
(311,176,o),
(311,239,cs),
(311,302,o),
(264,346,o),
(185,346,cs),
(102,346,o),
(42,304,o),
(42,222,cs),
(42,0,l)
);
},
{
closed = 1;
nodes = (
(167,199,o),
(153,214,o),
(153,234,cs),
(153,254,o),
(167,269,o),
(189,269,cs),
(211,269,o),
(225,254,o),
(225,234,cs),
(225,214,o),
(211,199,o),
(189,199,cs)
);
}
);
width = 588;
}
);
unicode = 3629;
}
{
glyphname = "hoNokhuk-thai";
layers = (
{
anchors = (
{
name = bottom;
pos = (500,0);
},
{
name = top;
pos = (500,536);
}
);
background = {
shapes = (
{
closed = 1;
nodes = (
(417,-8,o),
(504,68,o),
(504,188,cs),
(504,365,ls),
(504,406,o),
(490,440,o),
(463,466,c),
(457,441,l),
(480,481,o),
(538,492,o),
(590,483,c),
(590,562,l),
(518,579,o),
(442,554,o),
(421,488,c),
(432,501,l),
(396,529,o),
(348,544,o),
(289,544,cs),
(162,544,o),
(72,476,o),
(57,367,c),
(152,367,l),
(157,442,o),
(206,484,o),
(285,484,cs),
(362,484,o),
(408,441,o),
(408,366,cs),
(408,173,ls),
(408,96,o),
(362,52,o),
(285,52,cs),
(214,52,o),
(171,89,o),
(171,147,cs),
(171,173,l),
(85,187,l),
(102,157,o),
(136,140,o),
(176,140,cs),
(235,140,o),
(280,177,o),
(280,240,cs),
(280,298,o),
(242,337,o),
(179,337,cs),
(113,337,o),
(72,296,o),
(72,232,cs),
(72,173,ls),
(72,54,o),
(153,-8,o),
(279,-8,cs)
);
},
{
closed = 1;
nodes = (
(153,193,o),
(138,211,o),
(138,239,cs),
(138,266,o),
(153,284,o),
(177,284,cs),
(200,284,o),
(215,266,o),
(215,239,cs),
(215,211,o),
(200,193,o),
(177,193,cs)
);
}
);
};
layerId = m01;
shapes = (
{
closed = 1;
nodes = (
(496,0,l),
(496,321,ls),
(496,396,o),
(469,450,o),
(419,485,c),
(397,479,l),
(411,479,ls),
(470,479,o),
(516,514,o),
(516,567,cs),
(516,587,l),
(426,587,l),
(426,572,ls),
(426,551,o),
(406,539,o),
(372,539,cs),
(272,539,ls),
(146,539,o),
(56,473,o),
(50,365,c),
(144,365,l),
(148,428,o),
(200,465,o),
(272,465,cs),
(351,465,o),
(404,424,o),
(404,336,cs),
(404,74,l),
(179,74,l),
(179,178,l),
(101,192,l),
(115,166,o),
(154,147,o),
(192,147,cs),
(251,147,o),
(294,187,o),
(294,243,cs),
(294,299,o),
(251,341,o),
(192,341,cs),
(131,341,o),
(88,299,o),
(88,243,cs),
(88,0,l)
);
},
{
closed = 1;
nodes = (
(166,201,o),
(150,218,o),
(150,243,cs),
(150,268,o),
(166,285,o),
(191,285,cs),
(216,285,o),
(232,268,o),
(232,243,cs),
(232,218,o),
(216,201,o),
(191,201,cs)
);
}
);
width = 570;
},
{
anchors = (
{
name = bottom;
pos = (500,0);
},
{
name = top;
pos = (500,536);
}
);
background = {
shapes = (
{
closed = 1;
nodes = (
(417,-8,o),
(504,68,o),
(504,188,cs),
(504,365,ls),
(504,406,o),
(490,440,o),
(463,466,c),
(457,441,l),
(480,481,o),
(538,492,o),
(590,483,c),
(590,562,l),
(518,579,o),
(442,554,o),
(421,488,c),
(432,501,l),
(396,529,o),
(348,544,o),
(289,544,cs),
(162,544,o),
(72,476,o),
(57,367,c),
(152,367,l),
(157,442,o),
(206,484,o),
(285,484,cs),
(362,484,o),
(408,441,o),
(408,366,cs),
(408,173,ls),
(408,96,o),
(362,52,o),
(285,52,cs),
(214,52,o),
(171,89,o),
(171,147,cs),
(171,173,l),
(85,187,l),
(102,157,o),
(136,140,o),
(176,140,cs),
(235,140,o),
(280,177,o),
(280,240,cs),
(280,298,o),
(242,337,o),
(179,337,cs),
(113,337,o),
(72,296,o),
(72,232,cs),
(72,173,ls),
(72,54,o),
(153,-8,o),
(279,-8,cs)
);
},
{
closed = 1;
nodes = (
(153,193,o),
(138,211,o),
(138,239,cs),
(138,266,o),
(153,284,o),
(177,284,cs),
(200,284,o),
(215,266,o),
(215,239,cs),
(215,211,o),
(200,193,o),
(177,193,cs)
);
}
);
};
layerId = m002;
shapes = (
{
closed = 1;
nodes = (
(496,0,l),
(496,321,ls),
(496,396,o),
(469,450,o),
(419,485,c),
(397,479,l),
(411,479,ls),
(470,479,o),
(516,514,o),
(516,567,cs),
(516,587,l),
(426,587,l),
(426,572,ls),
(426,551,o),
(406,539,o),
(372,539,cs),
(272,539,ls),
(146,539,o),
(56,473,o),
(50,365,c),
(144,365,l),
(148,428,o),
(200,465,o),
(272,465,cs),
(351,465,o),
(404,424,o),
(404,336,cs),
(404,74,l),
(179,74,l),
(179,178,l),
(101,192,l),
(115,166,o),
(154,147,o),
(192,147,cs),
(251,147,o),
(294,187,o),
(294,243,cs),
(294,299,o),
(251,341,o),
(192,341,cs),
(131,341,o),
(88,299,o),
(88,243,cs),
(88,0,l)
);
},
{
closed = 1;
nodes = (
(166,201,o),
(150,218,o),
(150,243,cs),
(150,268,o),
(166,285,o),
(191,285,cs),
(216,285,o),
(232,268,o),
(232,243,cs),
(232,218,o),
(216,201,o),
(191,201,cs)
);
}
);
width = 570;
}
);
unicode = 3630;
}
{
glyphname = "paiyannoi-thai";
layers = (
{
background = {
shapes = (
{
closed = 1;
nodes = (
(107,412,o),
(90,429,o),
(90,454,cs),
(90,479,o),
(107,496,o),
(131,496,cs),
(155,496,o),
(172,479,o),
(172,454,cs),
(172,429,o),
(155,412,o),
(131,412,cs)
);
},
{
closed = 1;
nodes = (
(196,376,o),
(225,416,o),
(225,458,cs),
(225,511,o),
(185,545,o),
(132,545,cs),
(70,545,o),
(35,502,o),
(35,453,cs),
(35,378,o),
(119,330,o),
(214,330,cs),
(339,330,o),
(437,404,o),
(440,536,c),
(358,536,l),
(355,440,o),
(302,392,o),
(217,392,cs),
(197,392,o),
(163,394,o),
(138,407,c),
(91,393,l),
(102,383,o),
(125,375,o),
(145,375,cs)
);
}
);
};
layerId = m01;
shapes = (
{
closed = 1;
nodes = (
(446,0,l),
(446,536,l),
(352,536,l),
(341,417,o),
(293,358,o),
(208,358,cs),
(192,358,o),
(165,360,o),
(142,366,c),
(152,355,l),
(201,358,o),
(247,393,o),
(247,449,cs),
(247,503,o),
(205,543,o),
(145,543,cs),
(82,543,o),
(37,500,o),
(37,439,cs),
(37,355,o),
(107,294,o),
(201,294,cs),
(294,294,o),
(379,351,o),
(384,455,c),
(354,455,l),
(354,0,l)
);
},
{
closed = 1;
nodes = (
(116,396,o),
(99,414,o),
(99,441,cs),
(99,468,o),
(116,486,o),
(142,486,cs),
(168,486,o),
(185,468,o),
(185,441,cs),
(185,414,o),
(168,396,o),
(142,396,cs)
);
}
);
width = 518;
}
);
metricRight = "phoPhung-thai";
unicode = 3631;
}
{
glyphname = "saraA-thai";
layers = (
{
background = {
shapes = (
{
closed = 1;
nodes = (
(327,292,o),
(401,355,o),
(406,469,c),
(310,469,l),
(307,391,o),
(276,346,o),
(217,346,cs),
(202,346,o),
(194,351,o),
(182,361,c),
(174,337,l),
(213,341,o),
(235,370,o),
(235,409,cs),
(235,458,o),
(200,492,o),
(142,492,cs),
(83,492,o),
(46,457,o),
(46,402,cs),
(46,326,o),
(116,292,o),
(205,292,cs)
);
},
{
closed = 1;
nodes = (
(121,365,o),
(108,380,o),
(108,405,cs),
(108,430,o),
(121,445,o),
(142,445,cs),
(163,445,o),
(175,430,o),
(175,405,cs),
(175,380,o),
(163,365,o),
(142,365,cs)
);
},
{
closed = 1;
nodes = (
(327,15,o),
(401,78,o),
(406,192,c),
(310,192,l),
(307,114,o),
(276,69,o),
(217,69,cs),
(202,69,o),
(194,74,o),
(182,84,c),
(174,60,l),
(213,64,o),
(235,93,o),
(235,132,cs),
(235,181,o),
(200,215,o),
(142,215,cs),
(83,215,o),
(46,180,o),
(46,125,cs),
(46,49,o),
(116,15,o),
(204,15,cs)
);
},
{
closed = 1;
nodes = (
(121,88,o),
(108,103,o),
(108,128,cs),
(108,153,o),
(121,168,o),
(142,168,cs),
(163,168,o),
(175,153,o),
(175,128,cs),
(175,103,o),
(163,88,o),
(142,88,cs)
);
}
);
};
layerId = m01;
shapes = (
{
closed = 1;
nodes = (
(328,309,o),
(408,379,o),
(413,489,c),
(317,489,l),
(314,413,o),
(277,364,o),
(223,364,cs),
(211,364,o),
(197,368,o),
(184,375,c),
(176,355,l),
(221,355,o),
(249,386,o),
(249,435,cs),
(249,492,o),
(210,527,o),
(148,527,cs),
(84,527,o),
(43,488,o),
(43,428,cs),
(43,355,o),
(106,309,o),
(207,309,cs)
);
},
{
closed = 1;
nodes = (
(328,15,o),
(408,86,o),
(413,196,c),
(317,196,l),
(314,119,o),
(277,70,o),
(223,70,cs),
(211,70,o),
(197,74,o),
(184,82,c),
(176,61,l),
(221,61,o),
(249,93,o),
(249,142,cs),
(249,199,o),
(210,233,o),
(148,233,cs),
(84,233,o),
(43,195,o),
(43,134,cs),
(43,61,o),
(106,15,o),
(207,15,cs)
);
},
{
closed = 1;
nodes = (
(121,93,o),
(106,111,o),
(106,139,cs),
(106,166,o),
(121,184,o),
(145,184,cs),
(168,184,o),
(183,166,o),
(183,139,cs),
(183,111,o),
(168,93,o),
(145,93,cs)
);
},
{
closed = 1;
nodes = (
(121,386,o),
(106,404,o),
(106,432,cs),
(106,460,o),
(121,478,o),
(145,478,cs),
(168,478,o),
(183,460,o),
(183,432,cs),
(183,404,o),
(168,386,o),
(145,386,cs)
);
}
);
width = 456;
}
);
unicode = 3632;
}
{
glyphname = "maiHanaKat-thai";
layers = (
{
anchors = (
{
name = _top;
pos = (-70,536);
},
{
name = top;
pos = (-70,813);
}
);
background = {
shapes = (
{
closed = 1;
nodes = (
(369,705,o),
(353,722,o),
(353,747,cs),
(353,772,o),
(369,789,o),
(394,789,cs),
(417,789,o),
(434,772,o),
(434,747,cs),
(434,722,o),
(417,705,o),
(394,705,cs)
);
},
{
closed = 1;
nodes = (
(463,670,o),
(493,713,o),
(493,753,cs),
(493,805,o),
(451,839,o),
(394,839,cs),
(330,839,o),
(292,796,o),
(292,743,cs),
(292,680,o),
(356,609,o),
(478,609,cs),
(590,609,o),
(682,680,o),
(685,806,c),
(603,806,l),
(600,712,o),
(551,665,o),
(471,665,cs),
(451,665,o),
(417,668,o),
(392,686,c),
(355,687,l),
(366,677,o),
(389,669,o),
(409,669,cs)
);
}
);
};
layerId = m01;
shapes = (
{
closed = 1;
nodes = (
(-59,610,o),
(28,680,o),
(31,805,c),
(-45,805,l),
(-48,715,o),
(-93,670,o),
(-167,670,cs),
(-187,670,o),
(-221,673,o),
(-246,684,c),
(-291,667,l),
(-279,657,o),
(-256,649,o),
(-235,649,cs),
(-182,650,o),
(-152,692,o),
(-152,735,cs),
(-152,790,o),
(-193,825,o),
(-249,825,cs),
(-313,825,o),
(-349,781,o),
(-349,730,cs),
(-349,657,o),
(-265,610,o),
(-170,610,cs)
);
},
{
closed = 1;
nodes = (
(-274,689,o),
(-292,707,o),
(-292,732,cs),
(-292,758,o),
(-274,775,o),
(-250,775,cs),
(-225,775,o),
(-208,758,o),
(-208,732,cs),
(-208,707,o),
(-225,689,o),
(-250,689,cs)
);
}
);
width = 200;
}
);
tags = (
mark
);
unicode = 3633;
}
{
color = 3;
glyphname = "saraAa-thai";
layers = (
{
background = {
shapes = (
{
closed = 1;
nodes = (
(385,479,o),
(314,534,o),
(200,534,cs),
(91,534,o),
(10,482,o),
(-1,360,c),
(93,360,l),
(96,437,o),
(133,474,o),
(193,474,cs),
(249,474,o),
(289,441,o),
(289,365,cs),
(289,0,l),
(385,0,l),
(385,359,ls)
);
}
);
};
layerId = m01;
shapes = (
{
closed = 1;
nodes = (
(394,0,l),
(394,370,ls),
(394,478,o),
(325,545,o),
(208,545,cs),
(95,545,o),
(13,484,o),
(12,367,c),
(101,367,l),
(102,440,o),
(144,471,o),
(206,471,cs),
(267,471,o),
(302,436,o),
(302,376,cs),
(302,0,l)
);
}
);
width = 462;
}
);
metricRight = "loLing-thai";
unicode = 3634;
}
{
glyphname = "saraI-thai";
layers = (
{
anchors = (
{
name = _top;
pos = (-70,536);
},
{
name = top;
pos = (-70,788);
}
);
background = {
anchors = (
{
name = _top;
pos = (-70,536);
},
{
name = top;
pos = (-70,813);
}
);
shapes = (
{
ref = "saraIi-thai";
}
);
};
layerId = m01;
shapes = (
{
closed = 1;
nodes = (
(-70,616,l),
(-70,637,ls),
(-70,736,o),
(-156,802,o),
(-288,802,cs),
(-421,802,o),
(-506,736,o),
(-506,637,cs),
(-506,616,l)
);
},
{
closed = 1;
nodes = (
(-428,660,ls),
(-428,696,o),
(-394,742,o),
(-288,742,cs),
(-183,742,o),
(-148,696,o),
(-148,660,cs),
(-148,630,l),
(-131,674,l),
(-445,674,l),
(-428,630,l)
);
}
);
width = 200;
}
);
tags = (
mark
);
unicode = 3636;
}
{
glyphname = "saraIi-thai";
layers = (
{
anchors = (
{
name = _top;
pos = (-72,536);
},
{
name = top;
pos = (-72,822);
}
);
background = {
shapes = (
{
ref = "saraI-thai";
}
);
};
layerId = m01;
shapes = (
{
closed = 1;
nodes = (
(-72,616,l),
(-72,821,l),
(-152,821,l),
(-152,718,l),
(-131,689,l),
(-144,759,o),
(-215,801,o),
(-313,801,cs),
(-433,801,o),
(-508,735,o),
(-508,637,cs),
(-508,616,l)
);
},
{
closed = 1;
nodes = (
(-430,660,ls),
(-430,696,o),
(-399,741,o),
(-306,741,cs),
(-216,741,o),
(-145,703,o),
(-143,635,c),
(-142,674,l),
(-447,674,l),
(-430,630,l)
);
}
);
width = 200;
},
{
anchors = (
{
name = _top;
pos = (-72,536);
},
{
name = top;
pos = (-72,822);
}
);
background = {
shapes = (
{
ref = "saraI-thai";
}
);
};
layerId = m002;
shapes = (
{
closed = 1;
nodes = (
(-72,616,l),
(-72,821,l),
(-152,821,l),
(-152,718,l),
(-131,689,l),
(-144,759,o),
(-215,801,o),
(-313,801,cs),
(-433,801,o),
(-508,735,o),
(-508,637,cs),
(-508,616,l)
);
},
{
closed = 1;
nodes = (
(-430,660,ls),
(-430,696,o),
(-399,741,o),
(-306,741,cs),
(-216,741,o),
(-145,703,o),
(-143,635,c),
(-142,674,l),
(-447,674,l),
(-430,630,l)
);
}
);
width = 200;
}
);
tags = (
mark
);
unicode = 3637;
}
{
glyphname = "saraUe-thai";
layers = (
{
anchors = (
{
name = _top;
pos = (-70,536);
},
{
name = top;
pos = (-74,807);
}
);
background = {
shapes = (
{
ref = "saraI-thai";
}
);
};
layerId = m01;
shapes = (
{
closed = 1;
nodes = (
(-118,616,ls),
(-62,616,o),
(-15,655,o),
(-15,718,cs),
(-15,781,o),
(-60,817,o),
(-119,817,cs),
(-183,817,o),
(-222,779,o),
(-222,717,c),
(-204,750,l),
(-229,780,o),
(-277,798,o),
(-330,798,cs),
(-432,798,o),
(-510,747,o),
(-510,637,cs),
(-510,616,l)
);
},
{
closed = 1;
nodes = (
(-432,660,ls),
(-432,706,o),
(-393,738,o),
(-329,738,cs),
(-271,738,o),
(-227,709,o),
(-216,668,c),
(-168,674,l),
(-449,674,l),
(-432,630,l)
);
},
{
closed = 1;
nodes = (
(-144,675,o),
(-161,692,o),
(-161,718,cs),
(-161,744,o),
(-144,761,o),
(-119,761,cs),
(-95,761,o),
(-77,744,o),
(-77,718,cs),
(-77,692,o),
(-95,675,o),
(-119,675,cs)
);
}
);
width = 200;
}
);
tags = (
mark
);
unicode = 3638;
}
{
glyphname = "saraUee-thai";
layers = (
{
anchors = (
{
name = _top;
pos = (-70,536);
},
{
name = top;
pos = (-90,823);
}
);
background = {
shapes = (
{
ref = "saraIi-thai";
}
);
};
layerId = m01;
shapes = (
{
closed = 1;
nodes = (
(-70,616,l),
(-70,823,l),
(-140,823,l),
(-140,638,l),
(-123,679,l),
(-144,745,o),
(-217,798,o),
(-319,798,cs),
(-421,798,o),
(-506,747,o),
(-506,638,cs),
(-506,616,l)
);
},
{
closed = 1;
nodes = (
(-140,674,l),
(-450,674,l),
(-428,661,l),
(-429,665,ls),
(-429,707,o),
(-389,738,o),
(-307,738,cs),
(-222,738,o),
(-169,698,o),
(-158,636,c)
);
},
{
closed = 1;
nodes = (
(-173,823,l),
(-237,823,l),
(-237,749,l),
(-173,723,l)
);
}
);
width = 200;
}
);
tags = (
mark
);
unicode = 3639;
}
{
glyphname = "saraU-thai";
layers = (
{
anchors = (
{
name = _bottom;
pos = (-70,0);
}
);
background = {
shapes = (
{
closed = 0;
nodes = (
(530,-172,ls),
(530,-113,o),
(486,-70,o),
(425,-70,cs),
(363,-70,o),
(318,-113,o),
(318,-173,cs),
(318,-232,o),
(363,-274,o),
(425,-274,cs),
(463,-274,o),
(502,-254,o),
(517,-226,c),
(438,-242,l)
);
},
{
closed = 1;
nodes = (
(396,-219,o),
(378,-200,o),
(378,-172,cs),
(378,-144,o),
(396,-125,o),
(423,-125,cs),
(450,-125,o),
(468,-144,o),
(468,-172,cs),
(468,-200,o),
(450,-219,o),
(423,-219,cs)
);
},
{
ref = "boBaimai-thai";
}
);
};
layerId = m01;
shapes = (
{
closed = 1;
nodes = (
(-70,-325,l),
(-70,-157,ls),
(-70,-101,o),
(-113,-59,o),
(-171,-59,cs),
(-230,-59,o),
(-273,-101,o),
(-273,-158,cs),
(-273,-214,o),
(-230,-255,o),
(-171,-255,cs),
(-135,-255,o),
(-97,-236,o),
(-82,-209,c),
(-158,-225,l),
(-158,-325,l)
);
},
{
closed = 1;
nodes = (
(-197,-200,o),
(-214,-182,o),
(-214,-157,cs),
(-214,-132,o),
(-197,-114,o),
(-173,-114,cs),
(-148,-114,o),
(-132,-132,o),
(-132,-157,cs),
(-132,-182,o),
(-148,-200,o),
(-173,-200,cs)
);
}
);
width = 200;
}
);
tags = (
mark
);
unicode = 3640;
}
{
glyphname = "saraUu-thai";
layers = (
{
anchors = (
{
name = _bottom;
pos = (-72,0);
}
);
background = {
shapes = (
{
closed = 1;
nodes = (
(-228,-329,l),
(-228,-152,ls),
(-228,-95,o),
(-267,-64,o),
(-321,-64,cs),
(-381,-64,o),
(-419,-102,o),
(-419,-155,cs),
(-419,-205,o),
(-384,-239,o),
(-327,-239,cs),
(-286,-239,o),
(-266,-222,o),
(-242,-187,c),
(-306,-217,l),
(-306,-329,l)
);
},
{
closed = 1;
nodes = (
(-346,-194,o),
(-361,-177,o),
(-361,-152,cs),
(-361,-126,o),
(-346,-110,o),
(-325,-110,cs),
(-304,-110,o),
(-289,-126,o),
(-289,-152,cs),
(-289,-177,o),
(-304,-194,o),
(-325,-194,cs)
);
},
{
closed = 1;
nodes = (
(-147,-329,ls),
(-98,-329,o),
(-70,-302,o),
(-70,-253,cs),
(-70,-72,l),
(-150,-72,l),
(-150,-257,ls),
(-150,-272,o),
(-158,-276,o),
(-173,-276,cs),
(-253,-276,l),
(-264,-329,l)
);
}
);
};
layerId = m01;
shapes = (
{
closed = 1;
nodes = (
(-69,-315,l),
(-69,-73,l),
(-149,-73,l),
(-149,-251,l),
(-222,-251,l),
(-221,-163,ls),
(-220,-109,o),
(-262,-69,o),
(-318,-69,cs),
(-375,-69,o),
(-416,-109,o),
(-416,-164,cs),
(-416,-218,o),
(-375,-257,o),
(-318,-257,cs),
(-283,-257,o),
(-247,-239,o),
(-233,-213,c),
(-297,-229,l),
(-297,-315,l)
);
},
{
closed = 1;
nodes = (
(-343,-205,o),
(-359,-187,o),
(-359,-163,cs),
(-359,-139,o),
(-343,-122,o),
(-320,-122,cs),
(-296,-122,o),
(-281,-139,o),
(-281,-163,cs),
(-281,-187,o),
(-296,-205,o),
(-320,-205,cs)
);
}
);
width = 200;
}
);
tags = (
mark
);
unicode = 3641;
}
{
glyphname = "phinthu-thai";
layers = (
{
anchors = (
{
name = _bottom;
pos = (-70,0);
}
);
background = {
shapes = (
{
closed = 1;
nodes = (
(520,-148,cs),
(520,-92,o),
(482,-62,o),
(429,-62,cs),
(370,-62,o),
(333,-99,o),
(333,-151,cs),
(333,-200,o),
(367,-234,o),
(423,-234,cs),
(482,-234,o),
(520,-205,o)
);
},
{
closed = 1;
nodes = (
(404,-189,o),
(390,-173,o),
(390,-148,cs),
(390,-123,o),
(404,-107,o),
(425,-107,cs),
(446,-107,o),
(460,-123,o),
(460,-148,cs),
(460,-173,o),
(446,-189,o),
(425,-189,cs)
);
}
);
};
layerId = m01;
shapes = (
{
closed = 1;
nodes = (
(-71,-199,o),
(-44,-170,o),
(-44,-131,cs),
(-44,-91,o),
(-71,-63,o),
(-111,-63,cs),
(-151,-63,o),
(-179,-91,o),
(-179,-131,cs),
(-179,-170,o),
(-151,-199,o),
(-111,-199,cs)
);
}
);
width = 200;
},
{
anchors = (
{
name = _bottom;
pos = (-70,0);
}
);
background = {
shapes = (
{
closed = 1;
nodes = (
(520,-148,cs),
(520,-92,o),
(482,-62,o),
(429,-62,cs),
(370,-62,o),
(333,-99,o),
(333,-151,cs),
(333,-200,o),
(367,-234,o),
(423,-234,cs),
(482,-234,o),
(520,-205,o)
);
},
{
closed = 1;
nodes = (
(404,-189,o),
(390,-173,o),
(390,-148,cs),
(390,-123,o),
(404,-107,o),
(425,-107,cs),
(446,-107,o),
(460,-123,o),
(460,-148,cs),
(460,-173,o),
(446,-189,o),
(425,-189,cs)
);
}
);
};
layerId = m002;
shapes = (
{
closed = 1;
nodes = (
(-71,-199,o),
(-44,-170,o),
(-44,-131,cs),
(-44,-91,o),
(-71,-63,o),
(-111,-63,cs),
(-151,-63,o),
(-179,-91,o),
(-179,-131,cs),
(-179,-170,o),
(-151,-199,o),
(-111,-199,cs)
);
}
);
width = 200;
}
);
tags = (
mark
);
unicode = 3642;
}
{
color = 3;
glyphname = "saraE-thai";
layers = (
{
background = {
shapes = (
{
angle = 180;
pos = (298,536);
ref = "boBaimai-thai";
}
);
};
layerId = m01;
shapes = (
{
closed = 1;
nodes = (
(239,-4,o),
(284,39,o),
(284,99,cs),
(284,158,o),
(239,200,o),
(177,200,cs),
(139,200,o),
(100,180,o),
(85,152,c),
(164,168,l),
(164,536,l),
(72,536,l),
(72,98,ls),
(72,39,o),
(116,-4,o),
(177,-4,cs)
);
},
{
closed = 1;
nodes = (
(153,53,o),
(136,71,o),
(136,98,cs),
(136,125,o),
(153,143,o),
(179,143,cs),
(205,143,o),
(222,125,o),
(222,98,cs),
(222,71,o),
(205,53,o),
(179,53,cs)
);
}
);
width = 304;
},
{
background = {
shapes = (
{
angle = 180;
pos = (298,536);
ref = "boBaimai-thai";
}
);
};
layerId = m002;
shapes = (
{
closed = 1;
nodes = (
(239,-4,o),
(284,39,o),
(284,99,cs),
(284,158,o),
(239,200,o),
(177,200,cs),
(139,200,o),
(100,180,o),
(85,152,c),
(164,168,l),
(164,536,l),
(72,536,l),
(72,98,ls),
(72,39,o),
(116,-4,o),
(177,-4,cs)
);
},
{
closed = 1;
nodes = (
(153,53,o),
(136,71,o),
(136,98,cs),
(136,125,o),
(153,143,o),
(179,143,cs),
(205,143,o),
(222,125,o),
(222,98,cs),
(222,71,o),
(205,53,o),
(179,53,cs)
);
}
);
width = 304;
}
);
unicode = 3648;
}
{
glyphname = "saraO-thai";
layers = (
{
background = {
shapes = (
{
closed = 1;
nodes = (
(313,-4,o),
(358,39,o),
(358,99,cs),
(358,158,o),
(313,200,o),
(251,200,cs),
(213,200,o),
(174,180,o),
(159,152,c),
(238,168,l),
(238,589,ls),
(241,653,o),
(225,683,o),
(155,704,cs),
(89,724,l),
(100,693,l),
(100,731,ls),
(100,795,o),
(136,831,o),
(200,831,cs),
(264,831,o),
(303,793,o),
(305,724,c),
(390,724,l),
(387,822,o),
(314,884,o),
(202,884,cs),
(81,884,o),
(6,817,o),
(6,711,cs),
(6,696,l),
(109,657,ls),
(139,646,o),
(146,628,o),
(146,594,cs),
(146,98,ls),
(146,39,o),
(190,-4,o),
(251,-4,cs)
);
},
{
closed = 1;
nodes = (
(227,53,o),
(210,71,o),
(210,98,cs),
(210,125,o),
(227,143,o),
(253,143,cs),
(279,143,o),
(296,125,o),
(296,98,cs),
(296,71,o),
(279,53,o),
(253,53,cs)
);
}
);
};
layerId = m01;
shapes = (
{
closed = 1;
nodes = (
(315,-4,o),
(360,39,o),
(360,99,cs),
(360,158,o),
(315,200,o),
(253,200,cs),
(215,200,o),
(176,180,o),
(161,152,c),
(240,168,l),
(240,619,ls),
(240,712,o),
(173,742,o),
(94,742,cs),
(47,742,l),
(94,714,l),
(94,755,ls),
(94,791,o),
(130,814,o),
(174,814,cs),
(223,814,o),
(257,798,o),
(303,798,cs),
(324,798,o),
(339,802,o),
(354,808,c),
(354,877,l),
(335,872,o),
(321,870,o),
(306,870,cs),
(265,870,o),
(235,884,o),
(174,884,cs),
(73,884,o),
(13,826,o),
(13,745,cs),
(13,681,l),
(21,681,ls),
(97,681,o),
(148,680,o),
(148,623,cs),
(148,98,ls),
(148,39,o),
(192,-4,o),
(253,-4,cs)
);
},
{
closed = 1;
nodes = (
(229,53,o),
(212,71,o),
(212,98,cs),
(212,125,o),
(229,143,o),
(255,143,cs),
(281,143,o),
(298,125,o),
(298,98,cs),
(298,71,o),
(281,53,o),
(255,53,cs)
);
}
);
width = 380;
}
);
unicode = 3650;
}
{
glyphname = "saraAiMaimuan-thai";
layers = (
{
background = {
shapes = (
{
closed = 1;
nodes = (
(313,-4,o),
(358,39,o),
(358,99,cs),
(358,158,o),
(313,200,o),
(251,200,cs),
(213,200,o),
(174,180,o),
(159,152,c),
(238,168,l),
(238,438,ls),
(238,492,o),
(254,517,o),
(293,570,cs),
(346,641,o),
(367,679,o),
(367,736,cs),
(367,829,o),
(302,884,o),
(194,884,cs),
(83,884,o),
(14,822,o),
(14,727,cs),
(14,650,o),
(58,613,o),
(114,613,cs),
(175,613,o),
(208,657,o),
(208,701,cs),
(208,746,o),
(174,782,o),
(119,782,cs),
(87,782,o),
(61,768,o),
(46,730,c),
(92,767,l),
(97,798,o),
(135,816,o),
(184,816,cs),
(247,816,o),
(281,786,o),
(281,729,cs),
(281,701,o),
(274,667,o),
(227,612,cs),
(167,541,o),
(146,500,o),
(146,424,cs),
(146,98,ls),
(146,39,o),
(190,-4,o),
(251,-4,cs)
);
},
{
closed = 1;
nodes = (
(227,53,o),
(210,71,o),
(210,98,cs),
(210,125,o),
(227,143,o),
(253,143,cs),
(279,143,o),
(296,125,o),
(296,98,cs),
(296,71,o),
(279,53,o),
(253,53,cs)
);
},
{
closed = 1;
nodes = (
(93,659,o),
(78,675,o),
(78,697,cs),
(78,720,o),
(93,735,o),
(115,735,cs),
(136,735,o),
(152,720,o),
(152,697,cs),
(152,675,o),
(136,659,o),
(115,659,cs)
);
}
);
};
layerId = m01;
shapes = (
{
closed = 1;
nodes = (
(315,-4,o),
(360,39,o),
(360,99,cs),
(360,158,o),
(315,200,o),
(253,200,cs),
(215,200,o),
(176,180,o),
(161,152,c),
(240,168,l),
(240,438,ls),
(240,580,o),
(369,580,o),
(369,724,cs),
(369,822,o),
(301,884,o),
(193,884,cs),
(82,884,o),
(16,819,o),
(16,727,cs),
(16,647,o),
(61,613,o),
(117,613,cs),
(178,613,o),
(210,656,o),
(210,699,cs),
(210,744,o),
(178,782,o),
(123,782,cs),
(91,782,o),
(63,768,o),
(48,730,c),
(90,767,l),
(95,799,o),
(133,818,o),
(184,818,cs),
(251,818,o),
(289,785,o),
(289,723,cs),
(289,604,o),
(148,616,o),
(148,424,cs),
(148,98,ls),
(148,39,o),
(192,-4,o),
(253,-4,cs)
);
},
{
closed = 1;
nodes = (
(229,53,o),
(212,71,o),
(212,98,cs),
(212,125,o),
(229,143,o),
(255,143,cs),
(281,143,o),
(298,125,o),
(298,98,cs),
(298,71,o),
(281,53,o),
(255,53,cs)
);
},
{
closed = 1;
nodes = (
(95,659,o),
(80,675,o),
(80,697,cs),
(80,720,o),
(95,735,o),
(117,735,cs),
(138,735,o),
(154,720,o),
(154,697,cs),
(154,675,o),
(138,659,o),
(117,659,cs)
);
}
);
width = 380;
}
);
unicode = 3651;
}
{
glyphname = "saraAiMaimalai-thai";
layers = (
{
background = {
shapes = (
{
pos = (-10,0);
ref = "saraAiMaimuan-thai";
}
);
};
layerId = m01;
shapes = (
{
closed = 1;
nodes = (
(229,53,o),
(212,71,o),
(212,98,cs),
(212,125,o),
(229,143,o),
(255,143,cs),
(281,143,o),
(298,125,o),
(298,98,cs),
(298,71,o),
(281,53,o),
(255,53,cs)
);
},
{
closed = 1;
nodes = (
(21,839,l),
(61,785,o),
(102,761,o),
(155,761,cs),
(186,761,o),
(234,776,o),
(300,818,c),
(272,807,l),
(191,732,o),
(148,669,o),
(148,536,cs),
(148,98,ls),
(148,39,o),
(192,-4,o),
(253,-4,cs),
(315,-4,o),
(360,39,o),
(360,99,cs),
(360,158,o),
(315,200,o),
(253,200,cs),
(215,200,o),
(176,180,o),
(161,152,c),
(240,168,l),
(240,552,ls),
(240,665,o),
(259,724,o),
(355,823,c),
(317,880,l),
(249,840,o),
(215,826,o),
(177,826,cs),
(146,826,o),
(111,836,o),
(76,885,c)
);
}
);
width = 380;
}
);
unicode = 3652;
}
{
glyphname = "lakkhangyao-thai";
layers = (
{
background = {
shapes = (
{
pos = (12,0);
ref = "saraAa-thai";
}
);
};
layerId = m01;
shapes = (
{
closed = 1;
nodes = (
(406,-204,l),
(406,370,ls),
(406,478,o),
(337,545,o),
(220,545,cs),
(107,545,o),
(25,484,o),
(24,367,c),
(113,367,l),
(114,440,o),
(156,471,o),
(218,471,cs),
(279,471,o),
(314,436,o),
(314,376,cs),
(314,-204,l)
);
}
);
width = 474;
},
{
background = {
shapes = (
{
pos = (12,0);
ref = "saraAa-thai";
}
);
};
layerId = m002;
shapes = (
{
closed = 1;
nodes = (
(406,-204,l),
(406,370,ls),
(406,478,o),
(337,545,o),
(220,545,cs),
(107,545,o),
(25,484,o),
(24,367,c),
(113,367,l),
(114,440,o),
(156,471,o),
(218,471,cs),
(279,471,o),
(314,436,o),
(314,376,cs),
(314,-204,l)
);
}
);
width = 474;
}
);
metricLeft = "saraAa-thai";
metricRight = "saraAa-thai";
unicode = 3653;
}
{
glyphname = "maiyamok-thai";
layers = (
{
background = {
shapes = (
{
pos = (90,0);
ref = "saraAa-thai";
}
);
};
layerId = m01;
shapes = (
{
closed = 1;
nodes = (
(481,-204,l),
(481,392,ls),
(481,502,o),
(419,540,o),
(343,547,c),
(257,477,l),
(278,477,l),
(194,547,l),
(115,540,o),
(52,499,o),
(52,383,cs),
(52,296,ls),
(52,233,o),
(95,187,o),
(158,187,cs),
(219,187,o),
(262,230,o),
(262,286,cs),
(262,342,o),
(222,381,o),
(165,381,cs),
(127,381,o),
(98,364,o),
(85,339,c),
(136,359,l),
(136,388,ls),
(136,451,o),
(161,465,o),
(210,475,c),
(178,475,l),
(260,409,l),
(275,409,l),
(359,479,l),
(333,475,l),
(370,466,o),
(391,451,o),
(391,386,cs),
(391,-204,l)
);
},
{
closed = 1;
nodes = (
(135,242,o),
(118,260,o),
(118,284,cs),
(118,308,o),
(135,326,o),
(159,326,cs),
(183,326,o),
(200,308,o),
(200,284,cs),
(200,260,o),
(183,242,o),
(159,242,cs)
);
}
);
width = 553;
}
);
metricRight = "toTao-thai";
unicode = 3654;
}
{
glyphname = "maitaikhu-thai";
layers = (
{
anchors = (
{
name = _top;
pos = (-70,536);
},
{
name = top;
pos = (-79,881);
}
);
layerId = m01;
shapes = (
{
closed = 1;
nodes = (
(-124,610,o),
(-92,642,o),
(-92,687,cs),
(-92,730,o),
(-125,758,o),
(-172,758,cs),
(-225,758,o),
(-250,722,o),
(-250,688,cs),
(-250,657,o),
(-231,636,o),
(-209,633,c),
(-221,669,l),
(-250,672,o),
(-273,688,o),
(-289,730,c),
(-340,730,l),
(-369,659,l),
(-342,676,l),
(-376,676,o),
(-392,695,o),
(-392,725,cs),
(-392,756,o),
(-371,774,o),
(-338,774,cs),
(-102,774,l),
(-102,838,l),
(-328,838,ls),
(-413,838,o),
(-463,794,o),
(-463,725,cs),
(-463,657,o),
(-415,616,o),
(-351,616,cs),
(-332,616,l),
(-306,674,l),
(-327,698,l),
(-313,646,o),
(-264,610,o),
(-183,610,cs)
);
},
{
closed = 1;
nodes = (
(-190,656,o),
(-202,668,o),
(-202,686,cs),
(-202,704,o),
(-190,716,o),
(-172,716,cs),
(-153,716,o),
(-141,704,o),
(-141,686,cs),
(-141,668,o),
(-153,656,o),
(-172,656,cs)
);
}
);
width = 200;
}
);
tags = (
mark
);
unicode = 3655;
}
{
glyphname = "maiEk-thai";
layers = (
{
anchors = (
{
name = _top;
pos = (-70,536);
},
{
name = top;
pos = (-70,803);
}
);
layerId = m01;
shapes = (
{
closed = 1;
nodes = (
(-70,617,l),
(-70,803,l),
(-158,803,l),
(-158,617,l)
);
}
);
width = 200;
},
{
anchors = (
{
name = _top;
pos = (-70,536);
},
{
name = top;
pos = (-70,803);
}
);
layerId = m002;
shapes = (
{
closed = 1;
nodes = (
(-70,617,l),
(-70,803,l),
(-158,803,l),
(-158,617,l)
);
}
);
width = 200;
}
);
tags = (
mark
);
unicode = 3656;
}
{
glyphname = "maiTho-thai";
layers = (
{
anchors = (
{
name = _top;
pos = (-70,536);
},
{
name = top;
pos = (-63,854);
}
);
background = {
shapes = (
{
ref = "saraIi-thai";
}
);
};
layerId = m01;
shapes = (
{
closed = 1;
nodes = (
(-201,616,ls),
(-76,616,o),
(2,679,o),
(2,826,c),
(-71,826,l),
(-73,724,o),
(-115,670,o),
(-195,670,cs),
(-242,670,l),
(-218,662,l),
(-174,683,o),
(-150,724,o),
(-150,768,cs),
(-150,817,o),
(-185,851,o),
(-240,851,cs),
(-295,851,o),
(-329,815,o),
(-329,768,cs),
(-329,721,o),
(-293,689,o),
(-240,689,cs),
(-226,689,o),
(-216,691,o),
(-207,694,c),
(-236,701,l),
(-242,686,o),
(-257,664,o),
(-290,664,cs),
(-313,664,l),
(-313,616,l)
);
},
{
closed = 1;
nodes = (
(-263,731,o),
(-277,746,o),
(-277,768,cs),
(-277,791,o),
(-263,806,o),
(-240,806,cs),
(-218,806,o),
(-204,791,o),
(-204,768,cs),
(-204,746,o),
(-218,731,o),
(-240,731,cs)
);
}
);
width = 200;
}
);
tags = (
mark
);
unicode = 3657;
}
{
glyphname = "maiTri-thai";
layers = (
{
anchors = (
{
name = _top;
pos = (-70,536);
},
{
name = top;
pos = (-70,832);
}
);
background = {
shapes = (
{
ref = "maiTho-thai";
}
);
};
layerId = m01;
shapes = (
{
closed = 1;
nodes = (
(-265,797,l),
(-324,840,l),
(-392,836,o),
(-434,788,o),
(-434,713,cs),
(-434,645,o),
(-392,610,o),
(-347,610,cs),
(-304,610,o),
(-274,638,o),
(-274,679,cs),
(-274,720,o),
(-305,745,o),
(-343,745,cs),
(-378,745,o),
(-393,720,o),
(-396,697,c),
(-368,711,l),
(-371,715,o),
(-373,720,o),
(-373,727,cs),
(-373,749,o),
(-362,777,o),
(-328,784,c),
(-346,792,l),
(-281,742,l),
(-269,742,l),
(-204,789,l),
(-237,787,l),
(-199,783,o),
(-188,755,o),
(-188,728,cs),
(-188,692,o),
(-207,661,o),
(-241,661,c),
(-241,616,l),
(-178,616,ls),
(-64,616,o),
(-10,683,o),
(-10,819,c),
(-82,819,l),
(-82,723,o),
(-104,675,o),
(-150,668,c),
(-156,662,l),
(-129,677,o),
(-123,711,o),
(-123,738,cs),
(-123,800,o),
(-160,836,o),
(-220,841,c),
(-279,797,l)
);
},
{
closed = 1;
nodes = (
(-363,649,o),
(-375,661,o),
(-375,678,cs),
(-375,694,o),
(-363,706,o),
(-347,706,cs),
(-331,706,o),
(-320,694,o),
(-320,678,cs),
(-320,661,o),
(-331,649,o),
(-347,649,cs)
);
}
);
width = 200;
}
);
tags = (
mark
);
unicode = 3658;
}
{
glyphname = "maiChattawa-thai";
layers = (
{
anchors = (
{
name = _top;
pos = (-70,536);
},
{
name = top;
pos = (-70,822);
}
);
layerId = m01;
shapes = (
{
closed = 1;
nodes = (
(-78,616,l),
(-78,822,l),
(-156,822,l),
(-156,616,l)
);
},
{
closed = 1;
nodes = (
(-5,691,l),
(-5,747,l),
(-229,747,l),
(-229,691,l)
);
}
);
width = 200;
},
{
anchors = (
{
name = _top;
pos = (-70,536);
},
{
name = top;
pos = (-70,822);
}
);
layerId = m002;
shapes = (
{
closed = 1;
nodes = (
(-78,616,l),
(-78,822,l),
(-156,822,l),
(-156,616,l)
);
},
{
closed = 1;
nodes = (
(-5,691,l),
(-5,747,l),
(-229,747,l),
(-229,691,l)
);
}
);
width = 200;
}
);
tags = (
mark
);
unicode = 3659;
}
{
glyphname = "thanthakhat-thai";
layers = (
{
anchors = (
{
name = _top;
pos = (-70,536);
},
{
name = top;
pos = (-70,875);
}
);
background = {
shapes = (
{
ref = "maiTho-thai";
}
);
};
layerId = m01;
shapes = (
{
closed = 1;
nodes = (
(-100,610,o),
(-64,650,o),
(-64,700,cs),
(-64,745,o),
(-93,774,o),
(-141,778,c),
(-103,756,l),
(-19,796,o),
(12,822,o),
(17,871,c),
(-61,871,l),
(-69,837,o),
(-105,821,o),
(-144,806,cs),
(-196,785,o),
(-250,756,o),
(-250,697,cs),
(-250,645,o),
(-211,610,o),
(-157,610,cs)
);
},
{
closed = 1;
nodes = (
(-178,663,o),
(-193,677,o),
(-193,700,cs),
(-193,722,o),
(-178,737,o),
(-157,737,cs),
(-136,737,o),
(-121,722,o),
(-121,700,cs),
(-121,677,o),
(-136,663,o),
(-157,663,cs)
);
}
);
width = 200;
}
);
tags = (
mark
);
unicode = 3660;
}
{
glyphname = "nikhahit-thai";
layers = (
{
anchors = (
{
name = _top;
pos = (-72,536);
},
{
name = top;
pos = (-72,812);
}
);
background = {
shapes = (
{
ref = "saraIi-thai";
}
);
};
layerId = m01;
shapes = (
{
closed = 1;
nodes = (
(-51,610,o),
(-11,655,o),
(-11,714,cs),
(-11,775,o),
(-51,818,o),
(-120,818,cs),
(-188,818,o),
(-229,775,o),
(-229,714,cs),
(-229,655,o),
(-188,610,o),
(-120,610,cs)
);
},
{
closed = 1;
nodes = (
(-148,668,o),
(-165,687,o),
(-165,714,cs),
(-165,741,o),
(-148,760,o),
(-120,760,cs),
(-92,760,o),
(-75,741,o),
(-75,714,cs),
(-75,687,o),
(-92,668,o),
(-120,668,cs)
);
}
);
width = 200;
},
{
anchors = (
{
name = _top;
pos = (-72,536);
},
{
name = top;
pos = (-72,812);
}
);
background = {
shapes = (
{
ref = "saraIi-thai";
}
);
};
layerId = m002;
shapes = (
{
closed = 1;
nodes = (
(-51,610,o),
(-11,655,o),
(-11,714,cs),
(-11,775,o),
(-51,818,o),
(-120,818,cs),
(-188,818,o),
(-229,775,o),
(-229,714,cs),
(-229,655,o),
(-188,610,o),
(-120,610,cs)
);
},
{
closed = 1;
nodes = (
(-148,668,o),
(-165,687,o),
(-165,714,cs),
(-165,741,o),
(-148,760,o),
(-120,760,cs),
(-92,760,o),
(-75,741,o),
(-75,714,cs),
(-75,687,o),
(-92,668,o),
(-120,668,cs)
);
}
);
width = 200;
}
);
tags = (
mark
);
unicode = 3661;
}
{
glyphname = endash;
kernLeft = hyphen;
kernRight = hyphen;
layers = (
{
layerId = m01;
shapes = (
{
closed = 1;
nodes = (
(444,220,l),
(444,294,l),
(46,294,l),
(46,220,l)
);
}
);
width = 490;
},
{
layerId = m002;
shapes = (
{
closed = 1;
nodes = (
(444,220,l),
(444,294,l),
(46,294,l),
(46,220,l)
);
}
);
width = 490;
}
);
unicode = 8211;
}
{
glyphname = emdash;
kernLeft = hyphen;
kernRight = hyphen;
layers = (
{
layerId = m01;
shapes = (
{
closed = 1;
nodes = (
(742,220,l),
(742,294,l),
(42,294,l),
(42,220,l)
);
}
);
width = 784;
}
);
unicode = 8212;
}
{
glyphname = quoteright;
kernLeft = quoteright;
kernRight = quoteright;
layers = (
{
background = {
shapes = (
{
closed = 1;
nodes = (
(104,417,l),
(188,670,l),
(70,670,l),
(35,417,l)
);
}
);
};
layerId = m01;
shapes = (
{
closed = 1;
nodes = (
(117,445,l),
(174,670,l),
(70,670,l),
(40,445,l)
);
}
);
width = 223;
},
{
background = {
shapes = (
{
closed = 1;
nodes = (
(104,417,l),
(188,670,l),
(70,670,l),
(35,417,l)
);
}
);
};
layerId = m002;
shapes = (
{
closed = 1;
nodes = (
(117,445,l),
(174,670,l),
(70,670,l),
(40,445,l)
);
}
);
width = 223;
}
);
unicode = 8217;
}
{
glyphname = bullet;
layers = (
{
layerId = m01;
shapes = (
{
closed = 1;
nodes = (
(310,163,o),
(371,224,o),
(371,309,cs),
(371,394,o),
(310,455,o),
(224,455,cs),
(139,455,o),
(78,394,o),
(78,309,cs),
(78,224,o),
(139,163,o),
(224,163,cs)
);
}
);
width = 449;
}
);
unicode = 8226;
}
